<?xml version="1.0" encoding="UTF-8"?>
<svg id="Layer_1" xmlns="http://www.w3.org/2000/svg" version="1.1" viewBox="0 0 216 45.2">
  <!-- Generator: Adobe Illustrator 29.8.2, SVG Export Plug-In . SVG Version: 2.1.1 Build 3)  -->
  <defs>
    <style>
      .st0 {
        fill: #fff;
      }

      .st1 {
        fill: #545454;
      }

      .st2 {
        fill: #7f7f7f;
      }
    </style>
  </defs>
  <circle class="st0" cx="20.3" cy="22.3" r="11.9"/>
  <path class="st0" d="M63.1,7.1c-5.1,0-12.9-2.4-12.9-2.4,0,0-1.7,4.4-1.7,10.4s5,21.8,15.1,25.8c0,0,14.4-9.1,14.4-25,0-9.5-1.4-11.2-1.4-11.2,0,0-8.4,2.4-13.5,2.4Z"/>
  <path class="st1" d="M92.8,19.4V2.2h6.5c3.1-.2,6.2,1.1,6.2,4.5,0,1.9-1.3,3.2-3,3.8,2.2.5,3.8,2,3.8,4.5,0,3.4-4.3,4.7-6.9,4.5h-6.6v-.1ZM99.4,9.1c1.6,0,2.4-.6,2.4-2s-.9-2-2.4-2h-2.9v4.1h2.9s0-.1,0-.1ZM99.4,16.5c1.7,0,2.9-.3,2.9-2.3s-1.2-2.3-2.9-2.3h-2.9v4.6h2.9ZM112.2,2.2v17.2h-3.6V2.2h3.6ZM123.1,17.9c-.8,1.1-1.9,1.8-3.7,1.8-1.2,0-3.5-.9-3.9-2.6-.2-.7-.2-1.5-.2-1.9v-7.8h3.6v7.2c0,1.3.4,2.8,2.1,2.8,1.1,0,2.1-1,2.1-2.8v-7.2h3.6v9.8c0,.7.1,1.4.1,2.1h-3.6s-.1-1.4-.1-1.4ZM133,14.4c0,1.6.2,3,2.1,3,1.2,0,1.9-.5,2.2-1.6h3.2c-.3,3-2.6,3.9-5.4,3.9-4.1,0-5.8-2.3-5.8-6.3,0-3.6,2.1-6.4,5.8-6.4,2.2,0,4.1.8,5.1,2.9.3.7.5,1.4.6,2.1s.1,1.5.1,2.3h-7.9v.1ZM137.2,12c0-1.3-.4-2.5-2.1-2.5-1.6,0-2,1.2-2.1,2.5h4.2ZM153,7.7c0-1.8-1.1-3.3-3.3-3.3-2.6,0-3.3,3.9-3.3,6.3s.7,6.3,3.3,6.3c2.2,0,3.3-1.5,3.3-3.3h3.9c-.2,4.3-3.3,5.9-7.2,5.9-5,0-7.2-3.9-7.2-9s2.2-9,7.2-9c4,0,7.1,1.6,7.2,5.9h-3.9s0,.2,0,.2ZM162.1,7.4l.1,2.2c.8-1.9,2.3-2.4,4.1-2.3v3.2h-1.6c-.6,0-1.4.4-1.7.9-.4.7-.5,1.3-.5,2.1v5.9h-3.6v-9.6c0-.5-.1-1.5-.1-2.4h3.3ZM174.1,19.8c-3.9,0-6.3-2.6-6.3-6.4s2.3-6.4,6.3-6.4,6.3,2.6,6.3,6.4-2.4,6.4-6.3,6.4ZM174.1,17.4c2.2,0,2.6-2.1,2.6-4s-.4-4-2.6-4-2.6,2.1-2.6,4c.1,1.9.4,4,2.6,4ZM189,10.6c0-.8-.8-1.2-1.6-1.2-1,0-1.4.3-1.4,1.1,0,1.9,6.9.8,6.9,5.3,0,2.6-3.2,3.9-5.4,3.9-2.8,0-5.2-1.1-5.3-3.8h3.3c.1.9.9,1.5,2,1.5,1,0,1.7-.4,1.7-1.3,0-1-1.7-1.4-2.4-1.5-2.3-.5-4.4-1.1-4.4-3.8,0-2.5,3-3.6,5.1-3.6,2.5,0,4.7.9,4.8,3.6h-3.3v-.2ZM200.9,10.6c0-.8-.8-1.2-1.6-1.2-1,0-1.4.3-1.4,1.1,0,1.9,6.9.8,6.9,5.3,0,2.6-3.2,3.9-5.4,3.9-2.8,0-5.2-1.1-5.3-3.8h3.3c.1.9.9,1.5,2,1.5,1,0,1.7-.4,1.7-1.3,0-1-1.7-1.4-2.4-1.5-2.3-.5-4.4-1.1-4.4-3.8,0-2.5,3-3.6,5.1-3.6,2.5,0,4.7.9,4.8,3.6h-3.3v-.2h0ZM92.8,42.8v-17.2h6.5c3.1-.2,6.2,1.1,6.2,4.5,0,1.9-1.3,3.2-3,3.8,2.2.5,3.8,2,3.8,4.5,0,3.4-4.3,4.7-6.9,4.5h-6.6v-.1ZM99.4,32.5c1.6,0,2.4-.6,2.4-2s-.9-2-2.4-2h-2.9v4.1l2.9-.1ZM99.4,39.9c1.7,0,2.9-.3,2.9-2.3s-1.2-2.3-2.9-2.3h-2.9v4.6h2.9ZM112.2,25.6v17.2h-3.6v-17.2h3.6ZM123.1,41.3c-.8,1.1-1.9,1.8-3.7,1.8-1.2,0-3.5-.9-3.9-2.7-.2-.7-.2-1.5-.2-1.9v-7.8h3.6v7.3c0,1.3.4,2.8,2.1,2.8,1.1,0,2.1-1,2.1-2.8v-7.2h3.6v9.8c0,.7.1,1.4.1,2.1h-3.6s-.1-1.4-.1-1.4ZM133,37.8c0,1.6.2,3,2.1,3,1.2,0,1.9-.5,2.2-1.6h3.2c-.3,3-2.6,3.9-5.4,3.9-4.1,0-5.8-2.3-5.8-6.3,0-3.6,2.1-6.4,5.8-6.4,2.2,0,4.1.8,5.1,2.9.3.7.5,1.4.6,2.1.1.7.1,1.5.1,2.3l-7.9.1h0ZM137.2,35.4c0-1.3-.4-2.5-2.1-2.5-1.6,0-2,1.2-2.1,2.5h4.2ZM152.5,30.5c-.1-1.7-1.1-2.6-2.9-2.6-1.4,0-2.7.7-2.7,2.2,0,1.9,1.7,2.1,3.2,2.4,2.6.7,6.5,1.4,6.5,4.9,0,4.3-3.7,5.8-7.4,5.8-3.9,0-6.7-1.5-6.6-5.9h3.8c-.1,1.9,1,3.2,2.9,3.2,1.5,0,3.4-.5,3.4-2.3,0-2-2.5-2.2-3.9-2.6-2.4-.6-5.7-1.7-5.7-4.8,0-3.9,3.6-5.7,7.2-5.7,3.3,0,5.9,1.8,5.9,5.3,0,0-3.7.1-3.7.1ZM159.1,42.8v-17.2h3.6v6.7c.7-1.1,1.9-1.8,3.7-1.8,1.2,0,3.5.9,3.9,2.6.2.7.2,1.5.2,1.9v7.8h-3.5v-7.2c0-1.3-.4-2.7-2.1-2.7-1.1,0-2.1,1-2.1,2.7v7.2h-3.7,0ZM177.4,25.6v3.1h-3.8v-3.1h3.8ZM177.2,30.8v12h-3.6v-12h3.6ZM183.5,37.8c0,1.6.2,3,2.1,3,1.2,0,1.9-.5,2.2-1.6h3.2c-.3,3-2.6,3.9-5.4,3.9-4.1,0-5.8-2.3-5.8-6.3,0-3.6,2.1-6.4,5.8-6.4,2.2,0,4.1.8,5.1,2.9.3.7.5,1.4.6,2.1.1.7.1,1.5.1,2.3l-7.9.1h0ZM187.6,35.4c0-1.3-.4-2.5-2.1-2.5-1.6,0-2,1.2-2.1,2.5h4.2ZM197.1,25.6v17.2h-3.6v-17.2h3.6ZM208.5,25.6h3.6v14.9c0,.8.1,1.6.1,2.4h-3.6c0-.6-.1-1.1-.1-1.7-.8,1.4-2.1,2.1-3.7,2.1-3.5,0-5.2-3.3-5.2-6.4s1.9-6.4,5.6-6.4c1.2,0,2.5.7,3.2,1.7l.1-6.6h0ZM205.9,40.8c1.9,0,2.6-2.3,2.6-4,0-1.6-.6-4-2.6-4-2.3,0-2.6,2.1-2.6,4,0,1.8.3,4,2.6,4ZM206.5,19.3c-.6,0-1.1-.5-1.1-1.1s.5-1.1,1.1-1.1,1.1.5,1.1,1.1-.4,1.1-1.1,1.1M206.5,16.9c-.7,0-1.3.6-1.3,1.3s.6,1.3,1.3,1.3,1.3-.6,1.3-1.3-.6-1.3-1.3-1.3"/>
  <path class="st1" d="M206.5,18.2h-.3v-.5h.4c.2,0,.4,0,.4.2,0,.3-.3.3-.5.3M207.2,17.9c0-.3-.1-.4-.5-.4h-.7v1.5h.2v-.7h.3l.5.7h.2l-.4-.7c.2,0,.4-.1.4-.4M214.2,42.7c-.6,0-1.1-.5-1.1-1.1s.5-1.1,1.1-1.1,1.1.5,1.1,1.1-.5,1.1-1.1,1.1M214.2,40.2c-.7,0-1.3.6-1.3,1.3s.6,1.3,1.3,1.3,1.3-.6,1.3-1.3-.6-1.3-1.3-1.3"/>
  <path class="st1" d="M214.2,41.47h-.3v-.5h.4c.2,0,.4,0,.4.2,0,.3-.2.3-.5.3M214.9,41.2c0-.3-.1-.4-.5-.4h-.7v1.5h.2v-.7h.3l.4.7h.2l-.4-.7c.3,0,.5-.1.5-.4"/>
  <g>
    <path class="st2" d="M38.4,38.4c-1.3,0-2.3,1-2.3,2.3s1,2.3,2.3,2.3c1.2,0,2.3-1,2.3-2.3s-1-2.3-2.3-2.3ZM38.4,42.6c-1.1,0-1.9-.8-1.9-1.9s.8-1.9,1.9-1.9,1.9.8,1.9,1.9-.7,1.9-1.9,1.9Z"/>
    <path class="st2" d="M39.6,40.1c0-.5-.2-.7-.9-.7h-1.1v2.6h.3v-1.1h.6l.7,1.1h.4l-.8-1.1c.5-.1.8-.3.8-.8ZM38.4,40.5h-.5v-.8h.7c.3,0,.6,0,.6.4.1.5-.5.4-.8.4ZM20.4,25.4q-.1,0-.2.1l-3.8,5.8c1.2.5,2.5.8,3.9.8s2.7-.3,3.9-.8l-3.8-5.8c.1-.1,0-.1,0-.1ZM16.7,20.6l-5.7-.5c-.2.7-.3,1.5-.3,2.3,0,2.4.9,4.6,2.3,6.3l4-7.6c.2-.2.1-.4-.3-.5Z"/>
    <path class="st2" d="M29.4,13.3V2H11.3v11.3H0v18.1h11.3v11.3h18.1v-11.3h11.3V13.3h-11.3ZM20.4,11.2c4.5,0,8.4,2.6,10.1,6.5h-8c-1.1,0-1.6-.7-1.7-1.2,0-.6.1-.8.6-1.5.6-.8.2-2.2-1.1-2.3-1.3,0-1.7,1.5-1.1,2.3.5.7.6.9.6,1.5,0,.5-.5,1.2-1.7,1.2h-8c1.9-3.8,5.8-6.5,10.3-6.5ZM9.2,22.4c0-1.4.3-2.7.7-3.9l7.5.7c1.4.2,1.6,1.6,1.2,2.4l-5.1,9.7c-2.6-2.1-4.3-5.3-4.3-8.9ZM26.5,31.8c-1.8,1.2-3.9,1.8-6.2,1.8s-4.4-.7-6.2-1.8l5.5-8.1c.4-.6,1-.5,1.4,0,0,0,5.5,8.1,5.5,8.1ZM27.3,31.2l-5.1-9.6c-.4-.8-.2-2.2,1.2-2.4l7.5-.7c.5,1.2.7,2.6.7,3.9,0,3.6-1.7,6.8-4.3,8.8Z"/>
    <path class="st2" d="M27.7,16.1c-1.2-1.4-2.8-2.5-4.6-3,.6.9.1,2.2-.4,2.8-.1.1,0,.2,0,.2h5ZM24.1,20.6c-.4,0-.4.2-.3.4l4,7.6c1.4-1.7,2.3-3.9,2.3-6.3,0-.8-.1-1.6-.3-2.3,0,0-5.7.6-5.7.6ZM17.7,13.2c-1.8.5-3.4,1.6-4.6,3h5c.1,0,.1-.1,0-.2-.5-.7-1-1.9-.4-2.8Z"/>
  </g>
  <g>
    <path class="st2" d="M77.1,2c-4.4,2.2-8.8,3.4-13.9,3.4s-9.5-1.2-13.9-3.4c-2.9,5.7-3.3,14.9-.8,22.6,2.4,7.4,7.1,14.2,14.7,18.4,7.7-4.2,12.3-11,14.7-18.4,2.6-7.7,2.1-16.9-.8-22.6ZM75.1,23.7c-2.2,6.3-5.5,11.9-11.8,15.8-6.3-3.9-9.7-9.5-11.8-15.8-1.9-5.6-2.4-12.2-.3-17.3,3.2,1.1,5,1.4,6.7,1.7,1.6.3,3,.4,5.4.4s3.8-.2,5.4-.4c1.7-.3,3.6-.6,6.7-1.7,2,5.1,1.6,11.7-.3,17.3Z"/>
    <path class="st2" d="M68.7,9.5c-1.8.2-3.7.4-5.5.4s-3.6-.2-5.5-.4c-1.8-.3-3.6-.7-5.5-1.2-1.3,3.8-1.1,8.6,0,12.8,1.9,8,6.8,14.1,11,16.8,4.3-2.7,9.1-8.8,11-16.8,1-4.3,1.3-9,0-12.8-1.9.5-3.6,1-5.5,1.2ZM62.2,34.2c-.1.4.1.6.1.8-.1.3-.3.2-.4,0-.2-.3-.3-.5-.3-1-.1-.8.3-1.1.5-1.3s.4-.3.4-.3l.1,1.3c-.2,0-.4.1-.4.5ZM63.9,35.5c0,.2-.1.4-.5.4-.3,0-.5-.1-.5-.5-.1-1.6-.1-4.5-.1-4.5,0,0,.4.1.7.3.1,0,.3.2.5.4,0,.1.1.1.1.2-.1,1.1-.2,3.2-.2,3.7ZM65.2,32.5c-.4.3-.8.4-.8.4v-1.2s.1-.1.1-.3c-.1-.2-.9-.8-1.3-1-.5-.2-1.1-.4-1.5-.5-1-.4-1.4-1.3-1-2.3.1-.4.6-.6.8-.7s.6-.2.6-.2l.1,1.4s-.1,0-.2.2.1.4.2.4c.7.3,1.6.7,2.3,1.1.9.5,1.2.9,1.2,1.6.1.5-.2.9-.5,1.1ZM62.7,26c.7.1.9.1,1.5.2l-.1,2.8-.6-.3-.6-.3s-.2-2.4-.2-2.4ZM66.7,26.6c-.1.5-.4.9-.9,1.2-.5.3-1.1.3-1.1.3v-1.7s.1,0,.2-.1.1-.2.1-.3-.1-.2-.2-.3c-.2-.1-.4-.1-.5-.1l-2.4-.3c-1.4-.2-2.5-1.1-2.4-2.5.1-.9,1-1.2,1.7-1.5l.5,1c.1.4.2.6.2.6,0,0-.3.1-.3.3s.3.3.4.3c1,.1,2.4.3,3.1.6.5.2.9.4,1.2.8.4.7.5,1.2.4,1.7ZM62.1,20.1s.3,0,1.2.1c.6,0,1.1.2,1.1.2l-.1,3c-.7-.1-1.1-.2-1.7-.3-.2-1.1-.5-1.5-.9-2.3-.1-.2,0-.3,0-.3.1-.1.5-.2.5-.2,0,0-.1-.2-.1-.2ZM64.8,23.1s.1-1.4.1-2.1c.4-.1.5-.5.3-.8-.1-.2-.4-.3-.5-.3-.8-.2-1.5-.2-2.3-.3-.7-.1-1.3-.2-1.9-.3-1.3-.3-2.5-1-3.1-2.2-.7-1.5-.1-3.4,1.4-4.1,1.1-.6,2.3-.5,3.4,0,.4.1.6.5.8.8.1.1.3.2.4.4.1.1-.1.1-.1.1-.2.1-1.1.1-1.3,0h-1.2c.3.2.7.4,1.1.6.2.1.4.1.6.2.1,0,.3.1.3.2s-.2.1-.4.2c-.3.1-.7.1-1.1,0-.6-.1-.9-.5-1.3-.3-.3.2-.3.5-.2.9.1.6.7.8,1.2,1,1.7.6,3.6.2,5.2,1.1.6.3,1.4,1,1.5,1.7.5,2.8-2.9,3.2-2.9,3.2ZM67.8,13.8c-.1.3-.2.3-.4.5-.4.4-1,.8-1.6,1.3-.4.3-.7.5-1,1-.1.1-.2.3-.2.3-1-.2-1.9-.2-2.7-.4v-.8s.9,0,1-.6c0,0,0-.2-.1-.3s-.4-.2-.5-.2c.7.1,1.4.4,2.1.7,0-.1-.1-.4-.1-.4-.1-.1-.2-.2-.5-.3-.4-.1-1.5-.2-1.5-.2h.9c.2,0,.5-.1.5-.2.1-.1,0-.3-.2-.5l-.3-.3c-.1-.2-.3-.4-.4-.6-.2-.3-1-.6-1-.6,0,0-.1-.5.1-.7.1-.2.5-.2.6-.1.5.3,1.2.6,1.9.8q.2.1.2.4c.1.5-.1,1.2,0,1.5,0,.1.2.1.2.1.7-.4,1.1-1,1.8-1.3.5-.2,1.4.2,1.2.9ZM77.3,38.5c-1.2,0-2.2,1-2.2,2.2s1,2.2,2.2,2.2,2.2-1,2.2-2.2-1-2.2-2.2-2.2ZM77.3,42.6c-1.1,0-1.9-.8-1.9-1.9s.8-1.9,1.9-1.9,1.9.8,1.9,1.9-.8,1.9-1.9,1.9Z"/>
    <path class="st2" d="M78.5,40.1c0-.5-.2-.7-.9-.7h-1.1v2.6h.3v-1.1h.5l.7,1.1h.4l-.8-1.1c.5-.1.9-.3.9-.8ZM77.3,40.6h-.5v-.8h.7c.3,0,.6,0,.6.4s-.5.4-.8.4ZM61.1,13.1c.2.2.2.4.5.4.2,0,.3-.1.4-.2h.2c-.3-.3-1-.3-1.5-.4.2.2.3.1.4.2Z"/>
  </g>
</svg>