<?xml version="1.0" encoding="UTF-8"?>
<svg id="Camada_1" xmlns="http://www.w3.org/2000/svg" version="1.1" xmlns:xlink="http://www.w3.org/1999/xlink" viewBox="0 0 670.22 193.78">
  <!-- Generator: Adobe Illustrator 29.8.2, SVG Export Plug-In . SVG Version: 2.1.1 Build 3)  -->
  <defs>
    <style>
      .st0 {
        stroke: #000;
        stroke-miterlimit: 10;
        stroke-width: .25px;
      }

      .st0, .st1 {
        fill: #545454;
      }

      .st2 {
        fill: #fff;
      }

      .st3 {
        fill: url(#Gradiente_sem_nome_1081);
      }

      .st4 {
        fill: url(#Gradiente_sem_nome_1150);
      }
    </style>
    <linearGradient id="Gradiente_sem_nome_1081" data-name="Gradiente sem nome 1081" x1="58.83" y1="600.1" x2="59.83" y2="600.1" gradientTransform="translate(-87973.6 -8607.33) rotate(90) scale(146.75 -146.75)" gradientUnits="userSpaceOnUse">
      <stop offset="0" stop-color="#525251"/>
      <stop offset=".6" stop-color="#c2c2c2"/>
      <stop offset="1" stop-color="#706f6f"/>
    </linearGradient>
    <linearGradient id="Gradiente_sem_nome_1150" data-name="Gradiente sem nome 1150" x1="58.69" y1="600.82" x2="59.69" y2="600.82" gradientTransform="translate(-98989.17 -9683.5) rotate(90) scale(164.91 -164.91)" gradientUnits="userSpaceOnUse">
      <stop offset="0" stop-color="#727271"/>
      <stop offset=".3" stop-color="#dedede"/>
      <stop offset=".55" stop-color="#5f5e5e"/>
      <stop offset=".84" stop-color="#979696"/>
      <stop offset="1" stop-color="#818080"/>
    </linearGradient>
  </defs>
  <path class="st3" d="M24.02,166.04h139.02V29.33H24.02v136.71Z"/>
  <path class="st4" d="M34.88,31.78c-2.7,0-4.46,2.28-4.88,5.47s-3.47,18.25-3.47,57,3.47,64.14,3.47,64.14c.32,3.07,2.18,5.46,4.88,5.46h120.33c2.69,0,4.83-2.13,4.87-5.46s-1.34-29.71-1.34-58.73,1.34-62.41,1.34-62.41c.07-2.97-2.18-5.47-4.87-5.47H34.88Z"/>
  <path class="st1" d="M102.46,45.72c3.8,1.59,19.05,9.84,20.92,12.48-7.68,1.01-22.73,4.93-30.84,8.88l-.47.95c8.94-1.97,21.44-3,30.06-3.47-3.22,4.72-5.35,6.97-10.24,12.31l-.45,1.04c9.33-5.6,11.95-6.01,20.55-11.04,3.25,4.8,4.03,15.87,4.15,24.64,2.8-5.56,6.2-26.53,4.78-30.32,5.7-3.91,6.47-7.06,6.47-7.06-5.23.45-8.11.54-10.93,1.43-6.68-4.1-22-9.5-33.56-10.81l-.44.97Z"/>
  <path class="st1" d="M45.51,110.87c-.76,6.98-1.06,11.98-.06,17.57-2.83.78-5.31.89-7.58,1.86l-.43.96c3.63,2.24,6.58,3.95,10.68,5.86,2.19,4.71,4.46,7.89,8.13,11.52l.45-.97c-.66-2.68-1.52-4.89-1.19-7.82,4.56,1.33,8.47,2.03,13.66,2.19l.44-.97c-4.57-1.77-9.13-3.17-12.83-6.65,1.16-3.23,2.49-5.76,4.66-8.97l.46-.98c-3.92.59-7.48,2.03-10.87,2.69-2.67-4.7-3.71-11.13-5.06-17.26l-.45.98Z"/>
  <path class="st1" d="M68.78,78.99s-2.94-.28-7.79-.13c-4.11.19-10.23.56-13.21,1.43l-.43.95c4.73.2,11.22,1.47,13.7,3.97s-7.19,6.48-14.31,20.67,12.91-12.12,18.51-15.12,2.93,9.76,4.96,14.64l.45-.97c.56-3.14,1.96-11.65,4.34-16.86s.84-.51,4.97-.92c4.14-.37,9.99-.59,21.1,1.36l.45-.95c-2.54-1.5-12.65-5.83-23.35-7.27h.35c1.47-4.32,3.31-7.58,3.31-7.58-2.27.32-8.73,3.34-13.05,6.79"/>
  <path class="st1" d="M95.83,138.85c-.17-1.88-.29-3.75-.38-5.64-2.08,2.85-4.3,5.59-6.64,8.23-2.62.73-5.61.7-8.34.67-1.03-.02-2.05-.02-3.08,0l-.44.97c2.54,1.31,5.03,2.11,7.7,2.66-2.16,1.96-5.04,3.46-7.07,4.83l-.44.95c4.34-1.03,10.06-2.87,14.32-5.38,2.22.1,4.29-.05,5.81-.35s.45-.99.45-.97c-.28-.98-1.15-1.58-1.41-2.95,3.99-3.1,6.88-5.92,10.22-9.28l.46-.97c-3.3,2.28-7.3,5.4-11.16,7.23"/>
  <path class="st2" d="M132.42,65.89c-8.58,5.04-11.21,5.47-20.54,11.05,5.43-5.89,7.32-8.41,10.68-13.34-8.6.46-21.1,1.49-30.02,3.47,7.77-4.15,23.17-8.76,31.3-9.86-1.89-2.6-17.14-10.87-20.94-12.46,12.08.94,26.84,5.45,34,9.83,2.81-.88,5.74-.92,10.98-1.39-1.33,2.29-1.39,3.62-6.54,7.03,1.43,3.81-1.98,24.76-4.79,30.31-.1-8.76-.87-19.83-4.15-24.64M69.6,141.06c-4.93-1.83-8.48-3.96-12.39-7.61,1.17-3.23,2.51-5.75,4.68-8.99-3.48.5-6.96,1.06-10.42,1.7-2.81-4.92-4.09-9.67-5.52-16.27-.77,7-1.06,12-.07,17.58-3.17.88-5.41,1.65-8.02,2.82,3.65,2.24,6.6,3.96,10.69,5.86,2.19,4.71,4.46,7.88,8.14,11.51-.86-3.09-1.09-5.54-.74-8.78,4.56,1.33,8.46,2.03,13.64,2.18M82.43,71.38c-1.54,1.99-3.32,5.71-3.8,7.43,12.71,1.73,22.9,8.25,22.9,8.25-11.12-1.97-16.97-1.73-21.11-1.35-4.12.39-4.97.87-4.97.87-2.99,6.57-4.79,17.85-4.79,17.85-2.02-4.87-4.94-14.64-4.94-14.64-5.61,2.99-18.5,15.13-18.5,15.13,7.09-14.2,14.29-20.66,14.29-20.66-2.47-2.51-8.97-3.76-13.72-3.97,2.46-1.01,8.79-2.18,13.65-2.41,4.86-.14,7.81.14,7.81.14,4.34-3.43,10.92-6.31,13.19-6.65M95.91,132.26c-2.08,2.85-4.3,5.59-6.66,8.22-3.85,1.13-7.85,1.68-11.86,1.64,2.43,1.24,5.03,2.14,7.71,2.67-2.33,2.15-4.85,4.08-7.52,5.79,4.34-1.03,10.06-2.87,14.31-5.39,2.22.09,4.3-.06,5.82-.36-.4-1.29-.64-2.25-.96-3.92,4-3.1,6.91-5.91,10.25-9.28-3.38,2.4-6.96,4.5-10.71,6.26-.17-1.87-.3-3.75-.37-5.62"/>
  <path class="st0" d="M213.75,81.73c8.51.07,11.63,1.8,11.63,6.43,0,1.28-.39,2.41-1.14,3.28-1.63,1.96-4.81,2.98-8.85,2.72h-.21l-2.38,6.19h2.38c4.7-.13,8.78,1.35,10.88,3.91.97,1.17,1.45,2.57,1.45,4,0,4.84-4.27,7.35-12.68,7.35-1.42,0-3.72,0-5.15-.05-.2-5.95-.32-11.9-.35-17.85,0-3.05.2-9.85.35-15.66.97-.2,2.58-.33,4.08-.33M197.99,77.27c.26,4.59.53,16.21.53,20.44,0,3.9,0,16.97-.69,22.6l-.04.44h20.41c10.04,0,20.64-3.12,20.64-12.03,0-5.57-4.04-9.7-11.59-11.95,5.6-1.5,9.33-5.33,9.33-9.71,0-7.27-8.35-10.01-16.21-10.2h-22.51l.12.41ZM285.95,76.86h-9.93l.4,11.07c.2,5.47.38,11.1.77,16.56-.64-1.71-1.24-2.59-4.26-6.99,0-.15-10.33-16.03-13.92-20.54l-.1-.1h-11.53v.41c.37,4.59.51,16.21.51,20.44,0,3.9,0,16.96-.55,22.6l-.1.44h10.27v-.44c-.59-10.71-.59-21.52-.59-32.01.36,1.27.81,2.36,2.43,4.76.13.28,17.82,26.04,18.68,27.51l.09.19h8.23v-.44c-.64-5.63-.69-18.69-.69-22.6,0-4.23.28-15.85.55-20.44l.13-.41h-.4ZM312.89,82.16c5.72-.1,9.72,1.05,11.62,3.46.87,1.03,1.35,2.4,1.35,3.96,0,6.35-7.15,7.73-13.12,7.73l-2.43-.14-1-.1c-.04-1.47-.04-3.41-.04-5.58,0-2.76,0-6.04.13-9.08,1.16-.16,2.32-.25,3.49-.26M297.83,77.27c.4,4.59.56,16.21.56,20.44,0,3.9,0,16.97-.6,22.6v.44h12.22l-.05-.44c-.42-4.05-.63-11.78-.67-17.69l2.31.11,1.73.04c16.07,0,23.89-4.25,23.89-13.2,0-10.18-10.96-12.52-20.11-12.71h-19.26v.41ZM375.56,82.16c5.74-.1,9.73,1.05,11.65,3.46.88,1.03,1.32,2.4,1.32,3.96,0,6.35-7.14,7.73-13.03,7.73l-2.42-.14s-.64-.06-1.01-.1c-.07-1.47-.07-3.42-.07-5.58,0-2.79,0-6.04.11-9.08.76-.11,2.09-.26,3.45-.26M360.52,77.27c.39,4.59.61,16.21.61,20.44,0,3.9-.04,16.97-.67,22.6v.44h12.23l-.07-.44c-.39-4.05-.61-11.78-.61-17.69.57.03,2.2.11,2.2.11l1.77.04c16.06,0,23.95-4.25,23.95-13.2,0-10.18-11.03-12.52-20.2-12.71h-19.2v.41ZM419.23,89.79c.97,2.09,3.49,7.93,6.33,14.89-.44.02-.99.02-.99.02l-5.35.07s-5.53-.07-6.46-.09c2.31-5.57,4.59-10.6,6.46-14.89M416.26,76.86h-.16l-.09.22c-2.28,6.25-16.93,38.23-19.25,43.13l-.19.55h10.41l.09-.24c.92-3.01,2.15-6.4,3.49-10.03.42,0,8.68-.12,8.68-.12l7.19.05s1.16.07,1.5.07c1.85,4.72,3.27,8.27,3.89,10.08l.12.19h12.06l-19.48-43.9h-8.25ZM448.89,77.27c.35,4.59.53,16.21.53,20.44,0,3.9,0,16.96-.67,22.6v.44h12.29l-.05-.44c-.65-5.67-.7-18.69-.7-22.6,0-3.05.1-9.85.4-15.35.93-.07,2.35-.21,3.32-.21,5.69-.1,9.71,1.07,11.59,3.46.9,1.04,1.31,2.43,1.31,3.96,0,5.07-4.73,7.64-9.14,7.87-1.48.06-2.58-.13-2.58-.13l-.86-.14.47.8c4.36,6.37,10.89,17.39,13.59,22.6l.08.19h13.13l-.33-.59c-.54-.74-9.09-13.33-12.72-18.71,0,0-.16-.15-.32-.33,6.73-2.02,9.99-5.79,9.99-11.56,0-10.11-10.96-12.51-20.22-12.71h-19.13l.04.41ZM508.98,76.86h-11.7l.07.41c.3,4.59.54,16.21.54,20.44,0,3.88-.05,16.92-.6,22.6l-.05.44h12.14l-.06-.44c-.47-5.67-.61-18.71-.61-22.6,0-4.23.29-15.85.61-20.44v-.41h-.32ZM536.18,81.73c8.57.07,11.69,1.8,11.69,6.43,0,1.28-.39,2.41-1.17,3.28-1.55,1.96-4.84,2.98-8.87,2.72h-.2l-2.36,6.19h2.36c4.71-.13,8.76,1.35,10.86,3.91,1.02,1.17,1.51,2.57,1.51,4,0,4.84-4.28,7.35-12.75,7.35-1.36,0-3.65,0-5.08-.05-.35-6.47-.35-15.21-.35-17.85,0-3.05.11-9.85.35-15.66.93-.2,2.53-.33,4-.33M520.42,77.27c.35,4.59.56,16.21.56,20.44,0,3.9,0,16.97-.61,22.6l-.1.44h20.44c9.99,0,20.64-3.12,20.64-12.03,0-5.57-4.05-9.7-11.66-11.95,5.61-1.5,9.39-5.33,9.39-9.71,0-7.27-8.37-10.01-16.15-10.2h-22.56l.05.41ZM586.36,89.77c.98,2.04,3.49,7.89,6.33,14.87-.43,0-.96.05-.96.05l-5.37.07s-5.6-.12-6.43-.12c2.05-5,4.19-9.95,6.43-14.87M591.41,76.86h-8.22l-.05.2c-2.46,6.65-17.94,40.32-19.24,43.11l-.23.59h10.46l.07-.26c.87-3.01,2.09-6.38,3.45-10.08.33,0,8.64-.13,8.64-.13l7.2.11,1.53.02c1.89,4.72,3.29,8.3,3.9,10.08l.11.26h12.1l-19.47-43.9h-.26ZM614.56,88.21c0,7.71,7.73,10.81,14.56,13.65,5.33,2.12,10.9,4.35,10.9,8.03,0,1.11-.22,2.05-.84,2.7-1.28,1.51-3.87,2.14-7.99,1.92-4.07-.16-8.67-1.45-13.84-3.83l-2.03-.97v9.56l1.38.35.8.14c2.55.63,7.49,1.79,12.38,1.79,12.89,0,20.59-5.14,20.59-13.64,0-7.98-7.94-11.09-14.96-13.88-5.17-2.1-10.52-4.17-10.52-7.59,0-.99,0-3.87,6.68-3.87,4.92,0,9.7,2,12.42,3.04l2.48,1.04-.02-1.65v-7.95l-2.46-.44c-2.5-.51-6.68-1.34-10.98-1.34-11.12,0-18.55,5.25-18.55,12.95"/>
</svg>