<?xml version="1.0" encoding="UTF-8"?>
<svg id="Camada_1" xmlns="http://www.w3.org/2000/svg" version="1.1" xmlns:xlink="http://www.w3.org/1999/xlink" viewBox="0 0 155 27">
  <!-- Generator: Adobe Illustrator 29.8.2, SVG Export Plug-In . SVG Version: 2.1.1 Build 3)  -->
  <defs>
    <style>
      .st0 {
        mask: url(#mask-5);
      }

      .st1 {
        mask: url(#mask-1);
      }

      .st2 {
        fill: #4d4d4c;
      }

      .st3 {
        mask: url(#mask);
      }

      .st4 {
        fill: #fff;
      }

      .st4, .st5 {
        fill-rule: evenodd;
      }

      .st6 {
        mask: url(#mask-2);
      }

      .st7 {
        mask: url(#mask-4);
      }

      .st8 {
        mask: url(#mask-3);
      }
    </style>
    <mask id="mask" x="5.44" y="0" width="144.05" height="27" maskUnits="userSpaceOnUse">
      <g id="b">
        <path id="a" class="st4" d="M5.44,27h144.05V0H5.44v27Z"/>
      </g>
    </mask>
    <mask id="mask-1" x="5.44" y="0" width="144.05" height="27" maskUnits="userSpaceOnUse">
      <g id="b1" data-name="b">
        <path id="a1" data-name="a" class="st4" d="M5.44,27h144.05V0H5.44v27Z"/>
      </g>
    </mask>
    <mask id="mask-2" x="5.44" y="0" width="144.05" height="27" maskUnits="userSpaceOnUse">
      <g id="b2" data-name="b">
        <path id="a2" data-name="a" class="st4" d="M5.44,27h144.05V0H5.44v27Z"/>
      </g>
    </mask>
    <mask id="mask-3" x="5.44" y="0" width="144.05" height="27" maskUnits="userSpaceOnUse">
      <g id="b3" data-name="b">
        <path id="a3" data-name="a" class="st4" d="M5.44,27h144.05V0H5.44v27Z"/>
      </g>
    </mask>
    <mask id="mask-4" x="5.44" y="0" width="144.05" height="27" maskUnits="userSpaceOnUse">
      <g id="b4" data-name="b">
        <path id="a4" data-name="a" class="st4" d="M5.44,27h144.05V0H5.44v27Z"/>
      </g>
    </mask>
    <mask id="mask-5" x="5.44" y="0" width="144.05" height="27" maskUnits="userSpaceOnUse">
      <g id="b5" data-name="b">
        <path id="a5" data-name="a" class="st4" d="M5.44,27h144.05V0H5.44v27Z"/>
      </g>
    </mask>
  </defs>
  <g>
    <path class="st4" d="M8.14,0C6.65,0,5.44,1.18,5.44,2.66v21.68c0,1.45,1.22,2.66,2.7,2.66h133.63c1.48,0,2.7-1.18,2.7-2.66V2.66C144.47,1.22,143.25,0,141.77,0H8.14Z"/>
    <path class="st5" d="M6.58,24.34V2.66c0-.84.68-1.48,1.56-1.48h133.63c.84,0,1.56.68,1.56,1.48v21.68c0,.84-.68,1.48-1.56,1.48H8.14c-.87,0-1.56-.65-1.56-1.48ZM8.14,0C6.65,0,5.44,1.18,5.44,2.66v21.68c0,1.45,1.22,2.66,2.7,2.66h133.63c1.48,0,2.7-1.18,2.7-2.66V2.66C144.47,1.22,143.25,0,141.77,0H8.14Z"/>
    <g class="st3">
      <path class="st5" d="M30.38,24.76h21.56V2.24h-21.56v22.51ZM52.86,24.76h21.56V2.24h-21.56v22.51ZM75.52,24.76h21.56V2.24h-21.56v22.51ZM98.15,24.76h21.56V2.24h-21.56v22.51Z"/>
    </g>
    <g class="st1">
      <path class="st4" d="M141.62,24.15h-3.23l-4.53-6.46,5.21-7.3h-5.17l-.91,1.45c-.57.95-1.22,1.94-1.6,2.74-.34-.8-.99-1.79-1.56-2.74l-.91-1.45h-5.29l5.21,7.42-4.64,6.35h-2.97V2.78h20.38v21.37h0Z"/>
    </g>
    <g class="st6">
      <path class="st5" d="M7.72,24.76h21.56V2.24H7.72v22.51Z"/>
    </g>
    <g class="st8">
      <path class="st4" d="M19.01,21.41c-4.49,0-6.85-3.31-6.85-7.76,0-4.83,2.85-7.76,6.88-7.76,3.69,0,5.17,1.6,6.2,4.41l-3.8,1.48c-.53-1.41-1.06-2.28-2.43-2.28-1.75,0-2.51,1.75-2.51,4.15s.72,4.15,2.55,4.15c1.29,0,1.86-.72,2.7-2.13l3.54,1.86c-1.03,1.94-2.7,3.88-6.27,3.88M48.79,20.99l-5.48-15.06h-4.22l-5.48,15.06h4.53l.8-2.66h4.53l.8,2.66s4.53,0,4.53,0ZM42.44,15.02h-2.51l.27-.99c.53-1.9.76-2.74.95-3.76.19,1.03.42,1.83.95,3.76l.34.99ZM70.2,21.07l-3-5.74c1.67-.76,2.7-2.13,2.7-4.41,0-3.57-2.36-4.91-5.86-4.91h-6.73v15.06h4.11v-5.1h1.67l2.47,5.1s4.64,0,4.64,0ZM65.75,11.03c0,1.06-.53,1.67-1.9,1.67h-2.47v-3.31h2.51c1.37,0,1.86.68,1.86,1.64ZM84.46,9.55v2.09h4.72v3.54h-4.72v5.89h-4.15V6.01h11.9v3.54h-7.76ZM116.36,21.11l-5.48-15.06h-4.22l-5.44,15.06h4.49l.8-2.66h4.53l.8,2.66h4.53ZM110.01,15.14h-2.51l.27-.99c.53-1.9.76-2.74.95-3.76.19,1.03.42,1.83.95,3.76l.34.99Z"/>
    </g>
    <g class="st7">
      <path class="st5" d="M141.62,24.15h-3.23l-4.53-6.46,5.21-7.3h-5.17l-.91,1.45c-.57.95-1.22,1.94-1.6,2.74-.34-.8-.99-1.79-1.56-2.74l-.91-1.45h-5.29l5.21,7.42-4.64,6.35h-2.97V2.78h20.38v21.37h0ZM129.29,24.15l.38-.53c.61-.95,1.22-1.98,1.6-2.78.42.8.99,1.83,1.56,2.78l.34.53h-3.88ZM120.62,24.72h21.56V2.21h-21.56v22.51Z"/>
    </g>
    <g class="st0">
      <path class="st4" d="M147.36,1.98c.34,0,.61,0,.61-.38,0-.3-.27-.34-.53-.34h-.49v.72h.42,0ZM146.6.91h.91c.53,0,.8.23.8.68,0,.42-.27.61-.65.65l.68,1.03h-.38l-.65-.99h-.38v.99h-.38V.91s.04,0,.04,0ZM149.11,2.09c0-.95-.76-1.71-1.67-1.71s-1.67.76-1.67,1.71.76,1.71,1.67,1.71,1.67-.76,1.67-1.71ZM147.43.04c1.14,0,2.05.91,2.05,2.05s-.91,2.05-2.05,2.05-2.05-.91-2.05-2.05.91-2.05,2.05-2.05Z"/>
    </g>
  </g>
  <g>
    <path class="st2" d="M36.16,40.22c-.88,0-1.73.28-2.44.8-.73.61-1.2,1.46-1.32,2.4-.24,1.24-.12,2.08.36,2.64.56.55,1.33.84,2.12.8.61.01,1.21-.11,1.76-.36.53-.25.99-.63,1.32-1.12.37-.56.63-1.18.76-1.84.2-1.12.04-1.92-.48-2.48-.54-.57-1.3-.88-2.08-.84ZM23.73,55.74l3.32-18.71h6l-.48,2.4c.66-.82,1.53-1.44,2.52-1.8,1.23-.5,2.55-.77,3.88-.8,1.56,0,2.52.08,3.68.68,1.1.55,1.95,1.49,2.4,2.64.47,1.21.58,2.53.32,3.8-.34,2.2-1.55,4.18-3.36,5.48-1.84,1.32-3.48,1.68-5.84,1.68-.71.01-1.43-.07-2.12-.24-.48-.1-.93-.28-1.36-.52-.41-.3-.79-.65-1.12-1.04l-1.12,6.44h-6.72ZM92.93,50.9h-6.96l3.52-19.43,6.76.16-3.32,19.27ZM58.23,36.87l.48-2.84,7.12-1.52-.76,4.36h3.52l-.68,2.84h-3.4l-2.04,11.19h-6.92l2.08-11.19h-2.6l.52-2.8h2.68v-.04ZM2.82,45.9c-1.86.42-3.77.62-5.68.6-3.24,0-5.84-1.6-5.68-4.6.08-1.96,2.44-6.12,8.36-6.12,1.87-.04,3.72.46,5.32,1.44l.84-4.84c-2.13-.85-4.42-1.23-6.72-1.12-7.8.08-15.27,3.6-16.19,10.79s8,9.15,11.95,9.15c2.28,0,4.68-.12,6.88-.32l.92-5ZM78.66,44.5l-1.16.32-2.68.48c-.63.05-1.25.24-1.8.56-.33.18-.55.51-.6.88-.1.36.05.75.36.96.36.24.92.32,1.72.32.59,0,1.19-.08,1.76-.24.53-.15,1.02-.41,1.44-.76.28-.25.49-.56.6-.92.17-.52.29-1.06.36-1.6ZM86.02,39.9c-.04.68-.16,1.32-.32,2.32l-1.24,7c-.14.58.15,1.18.68,1.44v.24h-7.16v-1.8c-1.08.64-2.23,1.14-3.44,1.48-1.12.29-2.28.42-3.44.4-2.28,0-3.6-.24-4.52-1.04s-1.36-1.36-1.32-2.48c.08-.77.38-1.49.88-2.08.52-.57,1.16-1.02,1.88-1.32.9-.4,1.86-.67,2.84-.8,1.28-.2,3.04-.4,5.4-.6.79-.08,1.57-.25,2.32-.52.48-.2.68-.4.76-.8s-.08-1.12-1.04-1.32c-2.56-.52-7.36.32-9.83.92l1.32-3.6c3.16-.5,6.35-.77,9.55-.8,5.08.04,6.72,1.52,6.68,3.36h0ZM45.16,50.9l2.48-13.95h6.84l-2.48,13.95h-6.84ZM48.04,33.75c.2-1.16,2-2.08,4.04-2.08s3.48.92,3.28,2.08-2,2.08-4.04,2.08-3.48-.96-3.28-2.08ZM17.18,44.46c-.37.15-.76.26-1.16.32l-2.64.48c-.65.05-1.28.24-1.84.56-.33.2-.55.54-.6.92-.08.36.08.73.4.92.51.29,1.1.41,1.68.36.6-.01,1.19-.11,1.76-.28.53-.15,1.02-.41,1.44-.76.28-.25.49-.56.6-.92.19-.51.32-1.05.36-1.6ZM24.53,39.9c-.04.68-.16,1.28-.32,2.32l-1.24,6.96c-.14.58.15,1.18.68,1.44v.28h-7.16v-1.76c-1.09.61-2.24,1.09-3.44,1.44-1.11.3-2.25.45-3.4.44-2.32,0-3.64-.24-4.52-1.04s-1.4-1.36-1.36-2.52c.09-.75.39-1.46.88-2.04.52-.58,1.16-1.05,1.88-1.36.92-.39,1.89-.66,2.88-.8,1.24-.2,3-.4,5.36-.6.8-.02,1.59-.2,2.32-.52.52-.2.68-.4.76-.8s-.08-1.12-1.04-1.32c-2.56-.48-7.36.32-9.83.96l1.32-3.64c3.16-.5,6.35-.77,9.55-.8,5.08,0,6.72,1.48,6.68,3.36Z"/>
    <path class="st2" d="M120.76,41.78l1.56-.16c.52,0,.96.12,1,.6s-.52,2.4-.64,2.92l-1.08,4.68c-.4,1.92-.88,3.92-1.28,5.52h2.72l1.52-7.44c4.72-4.88,6.52-6.48,7.6-6.48.44-.05.83.27.88.71,0,.06,0,.11,0,.17.04.84-.52,2.8-.68,3.36l-1.6,5.4c-.32,1.24-.6,2.32-.56,3.12s.76,1.72,1.8,1.72c2,0,3.48-2.08,4.72-4.12l-.36-.68c-.52.8-1.68,2.6-2.64,2.6-.28,0-.56-.2-.56-.68.03-.75.17-1.49.4-2.2l1.76-6.36c.44-1.76.68-2.88.68-3.48s-.76-1.72-1.8-1.72c-1.8,0-4.2,1.32-9.23,7.12h-.08l.64-2.84c.36-1.56.68-3.16,1-4.28-1.89.67-3.83,1.22-5.8,1.64l.04.88ZM147.5,41.94c-.04-1.12-.6-1.88-1.76-1.88-2.8,0-5.76,5.48-6.28,7.68,4.56,0,8.16-2.72,8.04-5.8ZM148.1,50.54l.52.36c-1.36,2.76-4.12,5-7.4,5-2.68,0-4.84-1.76-4.96-5.08-.24-6,5.4-11.55,9.95-11.55,1.96,0,3.8.88,3.88,3,.16,4.76-6.52,6.2-10.91,6.28-.14.57-.2,1.17-.16,1.76.08,2,1.28,3.64,3.72,3.64s4.28-1.72,5.36-3.4ZM100.97,46.66c.12,4.36,2.88,7.92,6.48,7.92,6.96,0,9.91-8.56,9.71-14.27-.16-4.36-2.96-7.92-6.56-7.92-6,0-9.87,8.52-9.63,14.27ZM97.29,46.42c-.28-7.44,5.56-15.03,13.99-15.03,5.68,0,9.35,3.8,9.55,9.55.28,7.84-5.16,15.03-13.99,15.03-5.68,0-9.35-3.76-9.55-9.55Z"/>
  </g>
</svg>