<?xml version="1.0" encoding="UTF-8"?>
<svg id="_图层_2" xmlns="http://www.w3.org/2000/svg" version="1.1" xmlns:xlink="http://www.w3.org/1999/xlink" viewBox="0 0 251.77 69.18">
  <!-- Generator: Adobe Illustrator 29.8.3, SVG Export Plug-In . SVG Version: 2.1.1 Build 3)  -->
  <defs>
    <style>
      .st0 {
        fill: #dddbdb;
      }

      .st0, .st1, .st2, .st3, .st4, .st5, .st6, .st7, .st8, .st9, .st10, .st11, .st12, .st13, .st14, .st15, .st16, .st17, .st18, .st19, .st20, .st21, .st22, .st23, .st24, .st25, .st26, .st27, .st28, .st29, .st30, .st31, .st32, .st33, .st34, .st35, .st36, .st37, .st38, .st39, .st40, .st41, .st42, .st43 {
        fill-rule: evenodd;
      }

      .st1 {
        fill: #9b9b9b;
      }

      .st2 {
        fill: #c1bfbf;
      }

      .st3 {
        fill: #dbd9d9;
      }

      .st4 {
        fill: #b7b7b7;
      }

      .st44 {
        fill: #4d4d4c;
      }

      .st5 {
        fill: #7f7f7f;
      }

      .st6 {
        fill: #bfbfbf;
      }

      .st7 {
        fill: #8e8e8e;
      }

      .st45, .st10 {
        fill: #fff;
      }

      .st8 {
        fill: #e8e8e8;
      }

      .st9 {
        fill: #a8a7a7;
      }

      .st46 {
        fill: none;
      }

      .st11 {
        fill: #c4c2c2;
      }

      .st12 {
        fill: #f2f0f0;
      }

      .st47 {
        fill: url(#Gradiente_sem_nome_1371);
      }

      .st13 {
        fill: #efefef;
      }

      .st14 {
        fill: #ccc;
      }

      .st15 {
        fill: #e0e0e0;
      }

      .st48 {
        clip-path: url(#clippath-1);
      }

      .st16 {
        fill: #828282;
      }

      .st17 {
        fill: #c6c6c6;
      }

      .st18 {
        fill: #bab9b9;
      }

      .st19 {
        fill: #d8d6d6;
      }

      .st20 {
        fill: #e5e5e5;
      }

      .st21 {
        fill: #a3a2a2;
      }

      .st22 {
        fill: #a09f9f;
      }

      .st23 {
        fill: #d6d4d4;
      }

      .st24 {
        fill: #afafaf;
      }

      .st25 {
        fill: #8c8b8b;
      }

      .st26 {
        fill: #e2e0e0;
      }

      .st27 {
        fill: #edebeb;
      }

      .st28 {
        fill: #aaa9a9;
      }

      .st29 {
        fill: #b5b4b4;
      }

      .st30 {
        fill: #eae8e8;
      }

      .st31 {
        fill: #a5a4a4;
      }

      .st32 {
        fill: #a5a5a5;
      }

      .st33 {
        fill: #898989;
      }

      .st34 {
        fill: #919191;
      }

      .st35 {
        fill: #d1cfcf;
      }

      .st49 {
        fill: #f69375;
      }

      .st50 {
        clip-path: url(#clippath);
      }

      .st36 {
        fill: #adadad;
      }

      .st37 {
        fill: #848484;
      }

      .st38 {
        fill: #bcbbbb;
      }

      .st39 {
        fill: #b2b2b2;
      }

      .st40 {
        fill: #d3d1d1;
      }

      .st41 {
        fill: #9e9e9e;
      }

      .st42 {
        fill: #e5e3e3;
      }

      .st43 {
        fill: #c4c4c4;
      }
    </style>
    <clipPath id="clippath">
      <path class="st46" d="M9.13,56.4l.2.2v-.2h-.2ZM8.93,56.2l.2.2v-.2h-.2ZM8.73,56l.2.2v-.2h-.2ZM8.53,55.8l.2.2v-.2h-.2ZM8.33,55.6l.2.2v-.2h-.2ZM8.13,55.4l.2.2v-.2h-.2ZM7.93,55.2l.2.2v-.2h-.2ZM7.73,55l.2.2v-.2h-.2ZM7.53,54.8l.2.2v-.2h-.2ZM59.85,12.38v.41h.2l.2.2v.41h.2l.2.2v.41h.2v.41h.2l.2.2v.41h.2v.41h.2v.41h.2v.41h.2v.41h.2v.41h.2v.41h.2v.41h.2v.61h.2v.41h.2v.61h.2v.41h.2v.61h.2v.61h.2v.81h.2v.61h.2v.81h.2v.81h.2v1.01h.2v1.22h.2v1.62h.2l-.2,7.3-.2,1.62-.41,2.03-.41,1.62-.2.61-.2.81-.2.41-.61,1.83-.81,1.62-.2.61-.61,1.22-.2.2-.41.81-.2.2-.41.81-.2.2-.2.41-.2.2-.2.41-.41.41-.2.41-.41.41-.2.41-.41.41-.2.41-3.85,3.85-.41.2-.41.41-.41.2-.41.41-.41.2-.41.41-.41.2-.2.2-.41.2-.2.2-.81.41-.2.2-.81.41-.2.2-1.22.61-.61.2-1.62.81-1.83.61-.41.2-.81.2-.61.2-1.62.41-2.03.41-1.62.2-7.3.2v-.2l-1.62-.2-1.22-.2-.81-.2-1.01-.2-.61-.2-.81-.2-2.43-.81-.41-.2-.61-.2-3.65-1.83-.2-.2-.81-.41-.2-.2-.41-.2-.2-.2-.81-.41-.41-.41-.41-.2-.61-.61-.41-.2-.41-.41-.41-.2-.41-.41h-.2v.41h.2l.61.61.41.2,1.62,1.62.41.2.61.61.41.2.41.41.41.2.2.2.41.2.2.2.41.2.2.2.41.2.2.2,1.22.61.2.2,1.62.81.61.2.81.41.61.2.41.2.61.2.41.2,1.22.41,2.43.61,1.01.2,1.22.2,1.42.2,7.3.2v-.2l1.42-.2,1.22-.2,1.01-.2,1.62-.41.61-.2.81-.2.41-.2,1.83-.61,2.43-1.22.61-.2.41-.2.2-.2.81-.41.2-.2.81-.41.2-.2.41-.2.2-.2.41-.2.41-.41.41-.2.41-.41.41-.2.41-.41.41-.2,4.06-4.06.2-.41.41-.41.2-.41.41-.41.2-.41.41-.41.2-.41.2-.2.2-.41.2-.2.41-.81.2-.2.41-.81.2-.2.2-.41.2-.61,1.22-2.43.61-1.83.2-.41.2-.81.2-.61.41-1.62.2-1.01.2-1.22.2-1.42.2-7.3h-.2v-1.62h-.2v-1.01h-.2v-1.01h-.2v-.61h-.2v-.81h-.2v-.81h-.2v-.61h-.2v-.61h-.2v-.61h-.2v-.61h-.2v-.41h-.2v-.61h-.2v-.41h-.2v-.41h-.2v-.41h-.2v-.41h-.2v-.41h-.2v-.61l-.2-.2h-.2v-.41h-.2v-.41l-.2-.2h-.2v-.41h-.2v-.41l-.2-.2h-.2v-.41h-.2v-.41l-.41-.41h-.2v-.41l-.2-.2h-.2v-.41l-.41-.41h-.2v-.41l-.41-.41h-.2v.03ZM59.65,12.18l.2.2v-.2h-.2ZM59.45,11.98l.2.2v-.2h-.2ZM59.25,11.57l.2.2v-.2h-.2ZM59.05,11.37l.2.2v-.2h-.2ZM58.85,11.17l.2.2v-.2h-.2Z"/>
    </clipPath>
    <radialGradient id="Gradiente_sem_nome_1371" data-name="Gradiente sem nome 1371" cx="35.9" cy="39.02" fx="35.9" fy="39.02" r="35.68" gradientUnits="userSpaceOnUse">
      <stop offset="0" stop-color="#9d9d9c"/>
      <stop offset=".25" stop-color="#949595"/>
      <stop offset=".58" stop-color="#919292"/>
      <stop offset=".98" stop-color="#8a8989"/>
    </radialGradient>
    <clipPath id="clippath-1">
      <rect class="st46" x="53.96" y="57.01" width=".2" height=".2"/>
    </clipPath>
  </defs>
  <g id="Layer_3">
    <g>
      <path class="st5" d="M0,34.49C0,15.42,15.62,0,34.69,0s34.49,15.42,34.49,34.49-15.42,34.69-34.49,34.69S0,53.56,0,34.49Z"/>
      <g class="st50">
        <circle class="st47" cx="35.9" cy="39.02" r="35.68"/>
      </g>
      <g class="st48">
        <path class="st49" d="M17.85,38.95c0-10.14,8.12-18.26,18.06-18.26s18.06,8.11,18.06,18.26-8.12,18.06-18.06,18.06-18.06-8.11-18.06-18.06Z"/>
      </g>
      <path class="st44" d="M33.27,56.81v3.25c0,.81-.61,1.22-1.42,1.22h-5.68v-13.59h5.68c.81,0,1.42.61,1.42,1.22v3.04h-3.45c-.61,0-1.22.61-1.22,1.22v2.43c0,.81.61,1.22,1.22,1.22h3.45ZM34.28,56.81v3.25c0,.81.61,1.22,1.22,1.22h5.68v-13.59h-5.68c-.61,0-1.22.61-1.22,1.22v3.04h3.25c.81,0,1.22.61,1.22,1.22v2.43c0,.81-.41,1.22-1.22,1.22h-3.25Z"/>
      <path class="st10" d="M32.66,35.5l-.2.2v.2l-.2.2c-.61-.61-3.45-.41-4.67.41-2.03,1.01-5.07,4.46-3.45,5.68,1.01.81,4.46-3.04,4.87-5.48l.41-.2c0,.41-.2,1.22-.41,1.83-.41.61-.61,1.22-.61,1.22l.2.2.41-.2c.2,0,.2-.2.41-.2h.2v.41c-.2.2-.2.41-.2.81-.2.61-.41.81-.61,1.42v.2h.2c.2,0,.61-.2.81-.2-.2.2-.61.41-1.22.81-.81.61-1.22,1.01-1.62,1.22h-.2c0-.41.41-2.43.81-3.25l-.2-.2c-.2.41-.41.61-.81,1.01-.41.41-.81.81-1.22,1.01-1.01.81-2.03,1.22-2.84,1.01-1.22-.41-.2-4.87,4.87-7.51,1.42-.81,3.04-1.62,5.27-1.42v.81h0Z"/>
      <path class="st10" d="M32.66,36.11v-.41s.61,0,1.22-.2c.41-.2,1.22-.61,1.83-1.01,0-.13.07-.2.2-.2h.2v.2c0,.2-.2.61-.2.81-.2.61-.41,1.22-.41,1.42l.2.2c.81-.81,3.45-2.23,3.85-2.03.2.2.2.41.2.81v.61c0,.2-.2.2-.2.41v.41l.2-.2c.81-.61,1.62-1.22,2.43-1.62.41-.2.61-.41,1.01-.41h.41c.41.41.2,1.62-.41,3.25-.41,1.42-1.22,3.04-1.42,3.65v.41l.2-.2c.41,0,.81-.2,1.01-.2-.2.2-.41.41-.81.41-.41.41-1.01.81-1.62,1.22-.2.2-.61.41-.81.41v-.81c.2-.81.61-1.62,1.01-2.64.41-.81.81-1.83,1.22-2.64.2-.41.2-.61.2-1.01.2-.2.2-.41,0-.61,0-.2-.2-.2-.41,0h-.2c-.41.2-.61.41-1.01.61l-1.22,1.22s-.41,1.01-.81,2.03c-.41,1.01-1.01,2.23-1.01,2.64-.61.2-1.22.61-1.62.81-.2,0-.41.2-.41.2-.13.13-.27.2-.41.2h-.2c.2-.41,1.01-1.83,1.62-3.45.41-.81.81-1.62,1.22-2.43,0-.41.2-.61.2-.81v-.61c-.41-.41-2.03.61-2.84,1.62-.61,1.01-1.62,2.64-2.03,4.67-.2.2-2.03,1.01-2.23,1.01-.13-.13-.13-.27,0-.41,1.42-1.22,2.84-5.68,3.25-7.1v-.2l-.2-.2h-.41c-.2,0-.41,0-.81.2l.02-.03Z"/>
      <path class="st10" d="M51.12,41.39l-.2.2c-.2.41-2.23,2.03-3.04,2.03-.41.2-.61,0-.61,0v-.2l-.2-.2s1.22-3.04,2.43-6.09l1.83-4.06c.41-1.01.61-1.83.81-2.03,0-.13-.07-.27-.2-.41h-1.42v-.2c.2,0,.81,0,1.22-.2.61-.2,1.42-.41,1.83-.81h1.01c-.41.61-1.62,3.25-2.64,5.88-1.22,2.84-2.64,6.09-2.43,6.49h.2v.2h.2c.2,0,.61-.2.61-.2l.41-.41h.2-.01Z"/>
      <path class="st45" d="M47.88,31.45c.61-.2,1.01.2,1.01.61s-.2.81-.81.81-1.01-.41-1.01-.61c0-.41.41-.81.81-.81Z"/>
      <path class="st10" d="M47.07,42.2c0,.2-.2.2-.41.41-.2,0-.61.2-1.22.41-.81.41-1.83.61-2.03.61-.61-.2,2.64-7.3,2.64-7.3l.2-.41-1.83.41s-.2,0-.2-.2c.2,0,.61-.2,1.01-.41l.81-.2c.2,0,.41-.2.41-.2.2,0,.41-.2.81-.41.2-.2.61-.2.81,0v.2c0,.2,0,.41-.2.81-.2.81-.61,1.62-1.01,2.64-.41.81-1.01,1.83-1.22,2.43-.2.41-.2.81-.2,1.01v.41s0,.2.2.2c.41.2.81,0,1.01-.2h.2l.2-.2h.02Z"/>
      <path class="st10" d="M5.88,31.85c-2.23,1.42-3.85,6.09-1.42,8.72,4.26,4.67,11.77,3.25,14.2,1.22h.2v-.2c-.61-5.88-7.91-12.98-12.98-9.74ZM29.21,32.86h-.2c-.2-.81-.81-1.22-1.42-1.42h-1.83c-.41,1.01-.81,2.64-1.62,4.46-.81,1.62-2.03,3.65-3.65,5.48-4.67,4.87-13.19,4.46-16.84.81-1.62-1.61-3.65-5.88,1.22-9.93,6.09-5.27,14.2,1.22,14.4,8.93v.41l.2-.41c1.42-1.42,2.43-3.65,3.04-5.68.81-1.83,1.22-3.45,1.42-4.06l.2-.2h-8.31c0-.2.61-.81.81-1.01.61,0,6.9,0,7.71-.2.41-.61.61-1.83,1.42-3.25.61-1.22,1.83-2.84,3.45-3.85.41-.2,1.01-.41,1.83-.81.2,0,.61-.2.81-.2h.61v.41c-.2.2-.2.41-.2.61-.2.41-.61.81-.81,1.42v-.2c0-.2-.2-.41-.2-.41-.41-.41-.81-.41-1.83-.2-1.22.61-2.03,2.23-2.43,3.65-.61,1.42-.81,2.84-.81,2.84h2.84s.2,0,.2-.2h.41v1.01c-.2.61-.41,1.22-.41,2.03v-.03Z"/>
      <path class="st10" d="M53.76,43.82c-1.01.2-2.03.41-3.04.81-2.23.61-4.26,1.62-5.27,3.04-1.42,2.03-.81,4.46,2.23,3.85,2.64-.41,7.1-4.87,8.72-8.32l.2-.41-.41.2c-.61.2-1.42.41-2.43.81v.02ZM52.14,36.31c.41-.41,2.23-1.62,2.64-1.42v.61c.2.2,0,.61,0,1.01-.2.81-.41,1.62-.41,1.83l.2.2c1.22-2.23,4.06-4.26,4.67-4.26.2,0,.81.61.81.81.2.61-.2,2.03-.81,3.25-.61,1.42-1.22,2.64-1.22,2.84l-.2.41.2-.2c3.25-.81,9.94-4.87,9.94-9.94,0-2.64-2.23-4.87-3.65-5.88,1.62.61,4.06,3.65,4.06,5.68,0,5.07-4.46,9.33-10.96,11.16v.2c-3.04,7.51-9.13,11.56-12.58,10.96-2.43-.61-2.23-4.46-.2-6.49,1.42-1.42,3.25-2.23,5.27-2.84,2.03-.61,4.46-1.22,6.9-2.23l.2-.2c0-.2.61-1.62,1.01-2.84.2-.61.41-1.22.41-1.62v-.81s0-.2-.2-.41c-.81-.41-4.46,4.06-6.29,6.9v-.2c.81-1.62,1.83-5.88,1.01-6.69h-.41c-.13.13-.27.2-.41.2l.02-.03Z"/>
      <path class="st10" d="M37.73,26.78l-2.03.41c-1.01.2-1.62.81-1.62,1.62,0,1.01.61,1.62,1.62,1.62.41,0,1.22-.2,1.62-.61.2-.2.41-.61.41-1.01v-2.03ZM39.96,30.84c-.61.2-1.01.2-1.22.2-.61,0-1.01-.41-1.01-1.01-.41.2-1.01,1.01-2.64,1.01-1.42,0-2.23-.61-2.23-2.03-.2-1.22.81-1.83,2.43-2.23,1.83-.41,2.03-.41,2.43-.61,0-1.83-.41-2.64-2.03-2.64-.81,0-1.62.41-2.03,1.22h-.2v-1.01c.81-.61,1.83-.81,2.84-.81,2.23,0,2.64,1.22,2.64,2.64,0,4.67,0,5.07.81,5.07h.2v.2h0Z"/>
      <path class="st10" d="M50.31,26.17c-.2-1.83-1.01-3.04-2.23-3.04s-2.43,1.22-2.43,3.04h4.67,0ZM51.53,26.78h-5.88c.2,2.23,1.22,3.45,3.04,3.45.41,0,1.22,0,2.23-1.01v1.01c-.2.2-1.01.81-2.64.81-2.43,0-4.06-1.83-4.06-4.26s1.62-4.06,3.85-4.06c1.83,0,3.45.61,3.45,4.06h.01Z"/>
      <path class="st10" d="M44.63,22.92v1.42h-.2c-.41-.2-.61-.2-.81-.2-.81,0-1.83.2-1.83,4.06,0,.61,0,1.62.2,2.84-.81-.2-1.42,0-1.42,0,0-2.03.2-4.67,0-8.12h1.42c0,.41,0,1.01-.2,2.03.81-1.62,1.42-2.03,2.43-2.03,0,0,.41,0,.41,0Z"/>
      <path class="st16" d="M9.33,19.48c0-1.62.61-3.04,1.22-3.85.81-1.83,2.43-3.45,3.65-4.67,1.42-1.22,3.04-2.23,4.67-3.04.81-.41,2.03-.61,3.25-.81,1.01,0,3.45,0,5.27,1.83,1.62,1.83,2.03,3.85,1.42,5.68,0,.81-.41,1.62-1.01,2.23-.41.81-1.01,1.22-1.42,1.42-.41.41-.81.61-1.22.81-.61.41-1.01.61-1.62,1.01-.2,0-.41,0-.41.2,0,0,0,.2-.2.41-.41.61-.81,1.22-1.22,1.83s-1.22,1.62-2.43,2.43c-1.42,1.01-3.65,1.62-6.09.61-2.84-1.22-4.06-3.65-3.85-6.09h-.01Z"/>
      <path class="st16" d="M14.2,10.96c1.42-1.22,3.04-2.23,4.67-3.04.81-.2,1.83-.61,3.04-.81h.2c1.01,0,3.45,0,5.27,1.83,1.42,1.62,1.83,3.45,1.62,5.07,0,.2-.2.41-.2.61-.2.81-.61,1.62-1.01,2.23-.61.61-1.22,1.22-1.62,1.42-.41.2-.61.61-1.22.81-.2.2-.81.41-1.22.61,0,.2-.2.2-.41.2,0,.2-.2.2-.2.2,0,.2-.2.2-.41.61-.2.61-.61,1.22-1.01,1.62-.41.61-1.22,1.62-2.43,2.43-.13.13-.27.2-.41.2-1.42.81-3.45,1.42-5.68.41-2.64-1.01-3.65-3.25-3.85-5.27v-.61c0-1.62.81-3.04,1.22-3.85.81-1.83,2.43-3.45,3.65-4.67Z"/>
      <path class="st16" d="M14.2,10.96c1.42-1.22,3.04-2.23,4.67-3.04.81-.2,1.83-.61,3.04-.81h.2c1.01,0,3.25,0,5.07,1.83,1.42,1.62,2.03,3.25,1.62,5.07v.61c-.2.81-.61,1.42-1.22,2.23-.41.61-1.01,1.01-1.42,1.42-.41.2-.81.41-1.22.81-.41.2-.81.41-1.22.61-.2,0-.2.2-.41.2l-.2.2c-.2,0-.2.2-.41.41-.41.61-.81,1.22-1.01,1.83-.41.61-1.22,1.62-2.43,2.43-.2,0-.41.2-.41.2-1.42.81-3.45,1.22-5.68.41-2.64-1.01-3.65-3.25-3.85-5.48v-.41c0-1.83.81-3.25,1.22-4.06,1.01-1.62,2.43-3.25,3.65-4.46h0Z"/>
      <path class="st16" d="M14.2,10.96c1.42-1.22,3.04-2.23,4.67-3.04.81-.2,1.83-.61,3.04-.81,1.22,0,3.45,0,5.27,1.83,1.42,1.62,1.83,3.25,1.62,5.07,0,.2-.2.41-.2.61-.2.81-.61,1.42-1.01,2.03-.61.81-1.22,1.22-1.62,1.62-.2.2-.61.41-1.01.61-.41.2-.81.41-1.42.81,0,0-.2,0-.2.2-.2,0-.41,0-.41.2,0,0,0,.2-.2.41-.41.61-.81,1.22-1.22,1.62-.41.61-1.22,1.62-2.43,2.43,0,.2-.2.2-.2.2-1.62,1.01-3.45,1.42-5.68.41-2.43-.81-3.65-3.04-3.85-5.27v-.61c0-1.62.81-3.04,1.22-3.85,1.01-1.62,2.43-3.25,3.65-4.46h-.02Z"/>
      <path class="st37" d="M14.2,10.96c1.42-1.22,3.04-2.23,4.67-2.84.81-.41,1.83-.81,3.04-1.01,1.22,0,3.45,0,5.27,1.83,1.42,1.42,1.83,3.25,1.42,4.87v.81c-.2.61-.61,1.42-1.22,2.03-.41.61-1.01,1.22-1.42,1.42s-.81.61-1.22.81c-.41.2-.81.41-1.22.61-.13.13-.27.2-.41.2,0,.2-.2.2-.2.2,0,.2-.2.2-.41.61-.2.41-.61,1.01-1.01,1.62-.41.61-1.22,1.62-2.43,2.43,0,0-.2.2-.41.2-1.42.81-3.45,1.22-5.48.41-2.43-1.01-3.65-3.25-3.85-5.27v-.61c.2-1.62.81-3.04,1.22-3.85,1.01-1.62,2.43-3.25,3.65-4.46h0Z"/>
      <path class="st37" d="M14.2,10.96c1.42-1.22,3.04-2.23,4.67-2.84.81-.41,1.83-.81,2.84-.81.13,0,.2-.07.2-.2,1.22,0,3.45,0,5.07,1.83,1.42,1.42,1.83,3.25,1.62,4.87,0,.2-.2.41-.2.61-.2.81-.61,1.62-1.01,2.23-.61.61-1.22,1.01-1.62,1.42-.2.2-.61.41-1.01.81-.41.2-.81.41-1.22.61-.2,0-.2.2-.41.2s-.2.2-.2.2c-.2,0-.2.2-.41.41-.41.61-.61,1.22-1.01,1.62-.41.61-1.22,1.83-2.43,2.43-.13.13-.27.2-.41.2-1.42,1.01-3.45,1.42-5.48.61-2.43-1.01-3.65-3.25-3.65-5.27v-.61c0-1.62.61-3.04,1.01-3.85,1.01-1.62,2.43-3.25,3.65-4.46h0Z"/>
      <path class="st37" d="M14.4,10.96c1.22-1.01,2.84-2.23,4.46-2.84.81-.41,1.83-.81,2.84-.81h.2c1.01-.2,3.25-.2,5.07,1.62,1.42,1.42,1.83,3.25,1.42,4.87v.61c-.2.81-.61,1.42-1.22,2.03-.41.81-1.01,1.22-1.42,1.62-.41.2-.61.41-1.22.61-.2.2-.81.41-1.22.81,0,0-.2,0-.2.2h-.41c0,.2-.2.41-.2.61-.41.61-.81,1.22-1.22,1.62-.41.61-1.01,1.62-2.23,2.43-.2,0-.2.2-.41.2-1.42.81-3.45,1.22-5.48.41-2.43-1.01-3.65-3.04-3.65-5.27v-.41c0-1.62.61-3.04,1.22-3.85.81-1.62,2.23-3.25,3.65-4.46h.02Z"/>
      <path class="st37" d="M14.4,10.96c1.22-1.01,2.84-2.23,4.46-2.84.81-.41,1.83-.81,2.84-.81h.2c1.01-.2,3.25-.2,5.07,1.62,1.22,1.42,1.62,3.25,1.42,4.87,0,.2-.2.41-.2.61-.2.81-.61,1.42-1.01,2.03-.61.81-1.22,1.22-1.42,1.42-.41.2-.81.61-1.22.81-.41.2-.81.41-1.22.61-.13.13-.27.2-.41.2,0,.2-.2.2-.2.2l-.41.41c-.2.61-.61,1.22-1.01,1.83-.41.61-1.22,1.62-2.43,2.23,0,.2-.2.2-.2.2-1.42,1.01-3.45,1.42-5.48.61-2.43-1.01-3.65-3.25-3.65-5.27v-.61c0-1.62.61-2.84,1.22-3.65.81-1.62,2.23-3.25,3.65-4.46h0Z"/>
      <path class="st33" d="M14.4,10.96c1.22-1.01,2.84-2.23,4.46-2.84.61-.41,1.62-.61,2.84-.81h.2c1.01-.2,3.25,0,4.87,1.62,1.42,1.42,1.83,3.25,1.42,4.87v.61c-.2.61-.61,1.42-1.01,2.03-.61.61-1.22,1.22-1.62,1.42s-.61.41-1.01.81c-.41.2-.81.41-1.22.61-.2,0-.2.2-.41.2s-.2.2-.2.2c-.2,0-.2.2-.41.41-.41.61-.61,1.22-1.01,1.62-.41.61-1.22,1.62-2.43,2.43l-.2.2c-1.42.81-3.45,1.22-5.48.41-2.43-1.01-3.65-3.04-3.65-5.07v-.61c0-1.62.81-3.04,1.22-3.65.81-1.62,2.43-3.25,3.65-4.46h-.01Z"/>
      <path class="st33" d="M14.4,10.96c1.22-1.01,2.84-2.23,4.46-2.84.61-.41,1.62-.61,2.84-.81s3.45,0,5.07,1.62c1.42,1.42,1.62,3.25,1.42,4.87,0,.2,0,.41-.2.61-.2.61-.61,1.42-1.01,2.03l-1.42,1.42c-.41.2-.81.41-1.22.61s-.81.41-1.22.81c0,0-.2,0-.2.2h-.41c0,.2-.2.41-.2.61-.41.41-.81,1.01-1.22,1.62s-1.01,1.62-2.23,2.23c-.13.13-.27.2-.41.2-1.42,1.01-3.25,1.42-5.27.61-2.43-1.01-3.45-3.04-3.65-5.27v-.41c.2-1.62.81-3.04,1.22-3.65,1.01-1.83,2.43-3.25,3.65-4.46Z"/>
      <path class="st33" d="M14.4,10.96c1.22-1.01,2.84-2.23,4.46-2.84.61-.41,1.62-.61,2.84-.81s3.25,0,5.07,1.62c1.22,1.42,1.62,3.04,1.22,4.67v.61c-.2.81-.61,1.42-1.01,2.03-.61.81-1.22,1.22-1.62,1.42-.2.2-.61.61-1.01.81-.41.2-.81.41-1.22.61-.13.13-.27.2-.41.2,0,.2-.2.2-.2.2l-.41.41c-.2.61-.61,1.22-1.01,1.62-.41.61-1.22,1.62-2.23,2.43-.2,0-.2.2-.41.2-1.42.81-3.25,1.42-5.27.41-2.43-.81-3.45-3.04-3.65-5.07v-.41c.2-1.62.81-3.04,1.22-3.85,1.01-1.62,2.43-3.04,3.65-4.26h-.01Z"/>
      <path class="st33" d="M14.4,10.96c1.22-1.01,2.84-2.03,4.46-2.84.61-.2,1.62-.61,2.64-.81h.2c1.01-.2,3.25,0,4.87,1.62,1.42,1.42,1.83,3.04,1.42,4.67,0,.2,0,.41-.2.61-.2.81-.61,1.42-1.01,2.03-.41.61-1.01,1.22-1.42,1.42s-.81.41-1.22.81c-.2.2-.81.41-1.22.61l-.2.2c-.13,0-.2.07-.2.2-.2,0-.2.2-.41.41-.41.61-.61,1.01-1.01,1.62-.41.61-1.22,1.62-2.23,2.23-.2.2-.41.2-.41.41-1.42.81-3.25,1.22-5.27.41-2.43-1.01-3.45-3.04-3.45-5.07v-.61c0-1.62.61-2.84,1.01-3.65,1.01-1.62,2.43-3.04,3.65-4.26h0Z"/>
      <path class="st25" d="M14.4,10.96c1.22-1.01,2.84-2.03,4.26-2.84.81-.2,1.83-.61,2.84-.81h.2c1.01,0,3.25,0,4.87,1.62,1.42,1.42,1.62,3.04,1.42,4.67-.2.2-.2.41-.2.61-.2.81-.61,1.42-1.01,2.03-.61.61-1.22,1.01-1.62,1.42-.2.2-.61.41-1.01.61s-.81.41-1.22.81h-.2c-.2.2-.41.2-.41.2,0,.2-.2.2-.2.61-.41.41-.81,1.01-1.01,1.42-.41.61-1.22,1.62-2.43,2.43l-.2.2c-1.42.81-3.25,1.42-5.27.41-2.43-.81-3.45-2.84-3.45-4.87v-.61c0-1.62.61-2.84,1.01-3.65,1.01-1.62,2.43-3.04,3.65-4.26h-.02Z"/>
      <path class="st25" d="M14.4,10.96c1.22-1.01,2.84-2.03,4.26-2.84.81-.2,1.83-.61,2.84-.81h.2c1.01,0,3.25,0,4.87,1.62,1.22,1.42,1.62,3.04,1.22,4.67,0,.2,0,.41-.2.61-.2.61-.41,1.42-1.01,2.03-.41.61-1.01,1.01-1.42,1.22-.41.2-.61.61-1.01.81s-.81.41-1.22.61c-.2,0-.2.2-.41.2,0,.2-.2.2-.2.2l-.41.41c-.2.61-.61,1.22-1.01,1.62-.41.61-1.01,1.62-2.23,2.23,0,.2-.2.2-.41.41-1.22.81-3.04,1.22-5.07.41-2.43-1.01-3.45-3.04-3.45-5.07v-.41c0-1.62.61-2.84,1.22-3.65.81-1.62,2.23-3.04,3.45-4.26h0Z"/>
      <path class="st25" d="M14.4,10.96c1.22-1.01,2.84-2.03,4.26-2.84.81-.2,1.83-.61,2.84-.81,1.22,0,3.25,0,4.87,1.62,1.42,1.42,1.62,3.04,1.42,4.67-.2.2-.2.41-.2.61-.2.61-.61,1.22-1.01,1.83-.61.61-1.22,1.22-1.62,1.42-.2.2-.61.41-1.01.61-.41.2-.81.61-1.22.81,0,0-.2,0-.2.2-.13,0-.2.07-.2.2-.2,0-.2.2-.41.41-.41.41-.61,1.01-1.01,1.62-.41.41-1.22,1.42-2.23,2.23-.2,0-.2.2-.41.2-1.22.81-3.25,1.42-5.07.61-2.43-1.01-3.45-3.04-3.45-5.07v-.41c0-1.62.81-2.84,1.22-3.65.81-1.62,2.23-3.04,3.45-4.26h-.02Z"/>
      <path class="st25" d="M14.4,10.96c1.22-1.01,2.84-2.03,4.26-2.64.81-.41,1.62-.81,2.84-.81v-.2c1.22,0,3.25,0,4.87,1.62,1.22,1.42,1.62,3.04,1.22,4.67,0,.2,0,.41-.2.41-.2.81-.41,1.42-1.01,2.03-.41.61-1.01,1.01-1.42,1.42-.41.2-.61.41-1.01.61-.41.2-.81.41-1.22.61,0,.2-.2.2-.2.2-.2.2-.41.2-.41.2,0,.2-.2.2-.2.41-.41.61-.81,1.22-1.01,1.62-.41.61-1.22,1.62-2.23,2.43-.13,0-.27.07-.41.2-1.42.81-3.25,1.22-5.07.41-2.43-.81-3.45-2.84-3.45-4.87v-.61c.2-1.42.81-2.84,1.22-3.45.81-1.62,2.23-3.25,3.45-4.26h-.02Z"/>
      <path class="st25" d="M14.4,10.96c1.22-1.01,2.84-2.03,4.26-2.64.81-.41,1.62-.81,2.64-.81h.2c1.22-.2,3.25-.2,4.87,1.42,1.22,1.42,1.42,3.04,1.22,4.46-.2.2-.2.41-.2.61-.2.81-.61,1.42-1.01,2.03-.61.61-1.22,1.01-1.42,1.22-.41.2-.81.61-1.22.81-.2.2-.61.41-1.01.61-.2,0-.2.2-.41.2s-.2.2-.2.2l-.41.41c-.2.61-.61,1.01-1.01,1.62-.41.61-1.01,1.42-2.23,2.23l-.2.2c-1.42.81-3.25,1.42-5.07.61-2.43-1.01-3.25-3.04-3.45-5.07v-.41c.2-1.62.81-2.84,1.22-3.45,1.01-1.62,2.23-3.25,3.45-4.26h-.02Z"/>
      <path class="st25" d="M14.4,10.96c1.22-1.01,2.84-2.03,4.26-2.64.81-.41,1.62-.81,2.64-.81h.2c1.01-.2,3.25-.2,4.67,1.42,1.42,1.42,1.62,3.04,1.22,4.46,0,.2,0,.41-.2.61-.2.61-.41,1.42-1.01,1.83-.41.61-1.01,1.22-1.42,1.42-.2.2-.61.41-1.01.61-.41.2-.81.61-1.22.81,0,0-.2,0-.2.2h-.41c0,.2,0,.41-.2.61-.41.41-.61,1.01-1.01,1.42-.41.61-1.01,1.62-2.23,2.43,0,0-.2,0-.2.2-1.42.81-3.25,1.22-5.27.41-2.23-.81-3.04-2.84-3.04-4.87v-.41c0-1.62.61-2.84,1.01-3.65,1.01-1.42,2.23-3.04,3.45-4.06h-.03Z"/>
      <path class="st25" d="M14.4,10.96c1.22-1.01,2.84-2.03,4.26-2.64.61-.41,1.62-.61,2.64-.81h.2c1.01-.2,3.04-.2,4.67,1.42,1.22,1.42,1.62,3.04,1.22,4.46,0,.2-.2.41-.2.61-.2.61-.61,1.22-1.01,1.83-.61.61-1.01,1.01-1.42,1.42-.41.2-.81.41-1.01.61-.41.2-.81.41-1.22.61-.13.13-.27.2-.41.2,0,.2-.2.2-.2.2,0,0-.2.2-.2.41-.41.61-.81,1.22-1.01,1.62-.41.61-1.22,1.42-2.23,2.23,0,0-.2.2-.41.2-1.22.81-3.04,1.42-5.07.61-2.23-1.01-3.04-3.04-3.04-4.87v-.61c0-1.42.61-2.64,1.01-3.45,1.01-1.42,2.23-3.04,3.45-4.06h-.02Z"/>
      <path class="st25" d="M14.4,10.96c1.22-1.01,2.64-2.03,4.26-2.64.61-.41,1.62-.61,2.64-.81h.2c1.01-.2,3.04-.2,4.67,1.42,1.22,1.42,1.42,2.84,1.01,4.46,0,.2,0,.41-.2.61-.2.61-.41,1.22-1.01,1.83-.41.61-1.01,1.01-1.42,1.22-.2.2-.61.61-1.01.81s-.81.41-1.01.61c-.2,0-.2.2-.41.2s-.2.2-.2.2l-.41.41c-.2.41-.61,1.01-1.01,1.42-.2.61-1.01,1.62-2.03,2.43-.13,0-.27.07-.41.2-1.22.81-3.04,1.22-5.07.41-2.23-.81-3.04-2.84-3.04-4.67v-.61c0-1.42.61-2.64,1.22-3.45.81-1.42,2.03-3.04,3.25-4.06h-.02Z"/>
      <path class="st25" d="M14.4,10.96c1.22-1.01,2.64-2.03,4.26-2.64.61-.41,1.62-.61,2.64-.81,1.22-.2,3.25-.2,4.67,1.42,1.42,1.42,1.62,2.84,1.22,4.46,0,.2-.2.41-.2.61-.2.61-.61,1.22-1.01,1.83-.61.61-1.01,1.01-1.42,1.22-.41.2-.61.41-1.01.61s-.81.61-1.22.81c0,0-.2,0-.2.2h-.41c0,.13-.07.34-.2.61-.41.41-.61,1.01-1.01,1.42-.41.61-1.01,1.62-2.03,2.23-.2,0-.2.2-.41.2-1.22.81-3.04,1.42-5.07.61s-3.04-2.84-3.04-4.87v-.41c.2-1.42.81-2.64,1.22-3.45.81-1.42,2.23-3.04,3.25-4.06h-.03Z"/>
      <path class="st25" d="M14.4,10.96c1.22-1.01,2.64-2.03,4.26-2.64.61-.41,1.62-.61,2.64-.81,1.22-.2,3.25-.2,4.67,1.42,1.22,1.42,1.42,2.84,1.01,4.46v.41c-.41.81-.61,1.42-1.22,1.83-.41.61-1.01,1.01-1.42,1.42-.2.2-.61.41-1.01.61-.2.2-.61.41-1.01.61-.13.13-.27.2-.41.2,0,.2-.2.2-.2.2,0,0-.2.2-.2.41-.41.61-.61,1.01-1.01,1.62-.41.41-1.22,1.42-2.23,2.23,0,0-.2,0-.2.2-1.42.81-3.04,1.22-5.07.41s-3.04-2.84-3.04-4.67v-.41c.2-1.62.81-2.84,1.22-3.45.81-1.42,2.23-3.04,3.25-4.06h-.03Z"/>
      <path class="st25" d="M14.4,10.96c1.22-1.01,2.64-2.03,4.26-2.64.61-.2,1.62-.61,2.43-.81h.2c1.01-.2,3.04,0,4.67,1.42,1.22,1.42,1.42,2.84,1.01,4.26,0,.2-.2.41-.2.61-.2.61-.61,1.22-1.01,1.83-.41.61-1.01,1.01-1.42,1.22-.41.2-.61.61-1.01.81-.41.2-.81.41-1.22.61,0,0,0,.2-.2.2s-.2,0-.2.2c-.2,0-.2.2-.41.41-.2.41-.61,1.01-.81,1.42-.41.61-1.22,1.62-2.23,2.23l-.2.2c-1.42.81-3.04,1.42-5.07.61s-3.04-2.84-3.04-4.67v-.61c.2-1.42.81-2.64,1.22-3.25.81-1.62,2.23-3.04,3.25-4.06h-.02Z"/>
      <path class="st25" d="M14.4,10.96c1.22-1.01,2.64-2.03,4.26-2.64.61-.2,1.42-.61,2.43-.81h.2c1.01-.2,3.04,0,4.67,1.42,1.22,1.42,1.22,2.84.81,4.26v.61c-.41.61-.61,1.22-1.22,1.83-.41.61-1.01,1.01-1.22,1.22-.41.2-.81.41-1.01.61-.41.2-.81.41-1.22.81h-.2c-.13.13-.27.2-.41.2,0,.13-.07.27-.2.41-.41.61-.61,1.01-1.01,1.62-.41.61-1.01,1.42-2.03,2.23-.13,0-.27.07-.41.2-1.22.81-2.84,1.22-4.87.61-2.03-1.01-3.04-2.84-2.84-4.87v-.41c0-1.42.61-2.64,1.01-3.25.81-1.62,2.23-3.04,3.25-4.06h0Z"/>
      <path class="st25" d="M14.4,10.96c1.22-1.01,2.64-1.83,4.06-2.64.81-.2,1.62-.61,2.64-.81h.2c1.01,0,3.04,0,4.46,1.42,1.22,1.42,1.42,2.84,1.01,4.26,0,.2-.2.41-.2.61-.2.61-.61,1.22-1.01,1.62-.41.61-1.01,1.01-1.42,1.42-.2.2-.61.41-1.01.61-.41.2-.61.41-1.01.61-.13.13-.27.2-.41.2,0,.2-.2.2-.2.2,0,0-.2.2-.2.41-.41.41-.61,1.01-1.01,1.42-.41.61-1.01,1.62-2.03,2.23-.13.13-.27.2-.41.2-1.22.81-3.04,1.42-4.87.61-2.03-.81-2.84-2.84-2.84-4.67v-.41c0-1.42.61-2.64,1.01-3.25,1.01-1.62,2.23-3.04,3.25-4.06v.02Z"/>
      <path class="st25" d="M14.4,10.96c1.22-1.01,2.64-1.83,4.06-2.64.81-.2,1.62-.61,2.64-.61v-.2c1.22,0,3.25,0,4.67,1.42,1.22,1.22,1.22,2.84.81,4.26v.61c-.2.61-.61,1.22-1.01,1.62-.61.61-1.22,1.01-1.42,1.22-.41.2-.61.41-1.01.81-.41.2-.81.41-1.22.61,0,0-.2,0-.2.2-.13,0-.2.07-.2.2-.2,0-.2.2-.41.41-.2.41-.61,1.01-.81,1.42-.41.61-1.22,1.42-2.23,2.23,0,0-.2,0-.2.2-1.22.81-3.04,1.22-4.87.61-2.03-.81-2.84-2.84-2.84-4.67v-.41c0-1.42.61-2.64,1.22-3.45.81-1.42,2.03-2.84,3.04-3.85h-.02Z"/>
      <path class="st25" d="M14.61,10.96c1.01-1.01,2.43-1.83,3.85-2.43.81-.41,1.62-.81,2.64-.81,1.22-.2,3.04-.2,4.67,1.22,1.01,1.22,1.22,2.84.81,4.26,0,.2-.2.2-.2.41-.2.61-.61,1.22-1.01,1.83-.41.61-1.01,1.01-1.42,1.22-.2.2-.61.41-1.01.61-.2.2-.61.41-1.01.81h-.2c-.13.13-.27.2-.41.2,0,.13-.07.27-.2.41-.41.61-.61,1.01-1.01,1.42-.41.61-1.01,1.62-2.03,2.23,0,.2-.2.2-.2.2-1.22.81-3.04,1.42-4.87.61-2.03-.81-2.84-2.64-2.84-4.46v-.61c.2-1.42.81-2.43,1.22-3.25.81-1.42,2.03-2.84,3.25-3.85l-.03-.02Z"/>
      <path class="st25" d="M14.61,10.96c1.01-1.01,2.43-1.83,3.85-2.43.81-.41,1.62-.81,2.64-.81,1.22-.2,3.04-.2,4.46,1.22,1.22,1.22,1.42,2.84,1.01,4.26-.2,0-.2.2-.2.41-.2.61-.61,1.22-1.01,1.83-.61.41-1.01.81-1.42,1.22-.41.2-.61.41-1.01.61-.41.2-.81.41-1.01.61-.2,0-.2.2-.41.2l-.2.2s-.2.2-.2.41c-.41.41-.61,1.01-1.01,1.42-.41.61-1.01,1.42-2.03,2.23,0,0-.2,0-.2.2-1.42.81-3.04,1.22-4.87.61-2.03-.81-2.84-2.84-2.84-4.67v-.41c.2-1.42.81-2.43,1.22-3.25.81-1.42,2.03-2.84,3.25-3.85h-.02Z"/>
      <path class="st25" d="M14.61,10.96c1.01-1.01,2.43-1.83,3.85-2.43.61-.41,1.62-.61,2.43-.81h.2c1.01-.2,3.04-.2,4.46,1.22,1.22,1.22,1.22,2.64.81,4.06,0,.2,0,.41-.2.61-.2.61-.61,1.22-1.01,1.62-.41.61-1.01,1.01-1.42,1.22-.2.2-.61.41-.81.81-.41.2-.81.41-1.22.61,0,0-.2,0-.2.2h-.2c-.13.13-.27.34-.41.61-.2.41-.61.81-.81,1.42-.41.41-1.01,1.42-2.03,2.03-.13.13-.27.2-.41.2-1.22.81-2.84,1.42-4.67.61-2.03-.81-2.84-2.64-2.84-4.46v-.41c.2-1.42.81-2.64,1.22-3.25.81-1.42,2.03-2.84,3.25-3.85h.01Z"/>
      <path class="st25" d="M14.61,10.96c1.01-.81,2.43-1.83,3.85-2.43.61-.41,1.62-.61,2.43-.81h.2c1.01-.2,3.04-.2,4.46,1.22,1.01,1.22,1.22,2.64.81,4.06-.2.2-.2.41-.2.61-.2.61-.61,1.22-1.01,1.62-.61.61-1.01,1.01-1.42,1.22s-.61.41-1.01.61c-.41.2-.61.41-1.01.61l-.2.2c-.13.13-.27.2-.41.2-.21,0,0,.2-.2.41-.2.41-.61,1.01-1.01,1.42-.2.61-1.01,1.42-1.83,2.23-.13,0-.27.07-.41.2-1.22.81-2.84,1.42-4.67.61-2.03-.81-2.84-2.64-2.64-4.46v-.61c0-1.22.61-2.43,1.01-3.04.81-1.42,2.03-2.84,3.25-3.85v-.02Z"/>
      <path class="st25" d="M14.61,10.96c1.01-.81,2.43-1.83,3.85-2.43.61-.41,1.42-.61,2.43-.81h.2c1.01-.2,2.84-.2,4.26,1.22,1.22,1.22,1.22,2.64.81,4.06,0,.2,0,.41-.2.61-.2.61-.61,1.01-1.01,1.62-.41.61-1.01,1.01-1.22,1.22-.41.2-.81.41-1.01.61-.41.2-.81.41-1.01.61-.2,0-.2.2-.41.2l-.2.2s-.2.2-.2.41c-.41.41-.61,1.01-1.01,1.42-.41.61-1.01,1.42-2.03,2.03,0,.2-.2.2-.2.2-1.22.81-2.84,1.42-4.67.61-2.03-.61-2.84-2.64-2.64-4.46v-.41c0-1.22.61-2.43,1.01-3.04.81-1.42,2.03-2.84,3.25-3.85v-.02Z"/>
      <path class="st25" d="M14.61,10.96c1.01-.81,2.43-1.83,3.85-2.43.61-.41,1.42-.61,2.43-.81,1.22-.2,3.04-.2,4.46,1.22,1.22,1.22,1.22,2.64.81,4.06-.2.2-.2.41-.2.41-.2.61-.61,1.22-1.01,1.83-.61.41-1.01.81-1.42,1.01-.2.2-.61.41-1.01.81-.2.2-.61.41-1.01.61,0,0-.2,0-.2.2h-.2l-.41.41c-.2.61-.61,1.01-.81,1.42-.41.61-1.01,1.42-2.03,2.23,0,0-.2,0-.2.2-1.22.81-2.84,1.42-4.67.61-2.03-.81-2.64-2.64-2.64-4.46v-.41c.2-1.42.61-2.43,1.01-3.04,1.01-1.42,2.23-2.84,3.25-3.85v-.02Z"/>
      <path class="st25" d="M14.61,11.16c1.01-1.01,2.43-2.03,3.85-2.64.61-.2,1.42-.61,2.43-.81,1.22-.2,3.04-.2,4.46,1.22,1.01,1.22,1.01,2.64.61,4.06,0,.13-.07.27-.2.41-.2.61-.61,1.22-1.01,1.62-.41.61-1.01,1.01-1.22,1.22-.41.2-.61.41-1.01.61s-.61.41-1.01.61l-.2.2c-.13.13-.27.2-.41.2-.21,0,0,.2-.2.41-.2.41-.61,1.01-.81,1.42-.41.61-1.01,1.42-2.03,2.03l-.2.2c-1.22,1.01-2.84,1.42-4.67.81-2.03-.81-2.64-2.64-2.64-4.46v-.41c.2-1.42.81-2.43,1.22-3.25.81-1.22,2.03-2.64,3.04-3.45Z"/>
      <path class="st25" d="M14.61,11.16c1.01-1.01,2.43-2.03,3.85-2.64.61-.2,1.42-.61,2.23-.81h.2c1.01-.2,3.04-.2,4.26,1.22,1.22,1.22,1.22,2.64.81,4.06-.2,0-.2.2-.2.41-.2.61-.61,1.22-1.01,1.62-.61.61-1.01,1.01-1.42,1.22-.2.2-.61.41-.81.61-.41.2-.81.41-1.22.61,0,0,0,.2-.2.2,0,0-.2,0-.2.2,0,0-.2.2-.2.41-.41.41-.61.81-1.01,1.22-.41.61-1.01,1.42-1.83,2.23-.2,0-.2.2-.41.2-1.22.81-2.64,1.42-4.46.61-2.03-.81-2.64-2.64-2.64-4.26v-.61c.2-1.22.81-2.23,1.22-3.04.81-1.22,2.03-2.64,3.04-3.45h0Z"/>
      <path class="st25" d="M14.61,11.16c1.01-1.01,2.43-2.03,3.85-2.64.61-.2,1.42-.61,2.23-.81h.2c1.01-.2,2.84-.2,4.26,1.22,1.01,1.22,1.22,2.64.61,3.85,0,.2,0,.41-.2.61-.2.61-.61,1.01-1.01,1.62-.41.41-1.01.81-1.22,1.01-.41.2-.61.41-1.01.81-.2.2-.61.41-1.01.61,0,0-.2,0-.2.2h-.2l-.41.41c-.2.41-.61,1.01-.81,1.42-.41.61-1.01,1.42-2.03,2.03,0,.13-.07.2-.2.2-1.22,1.01-2.84,1.42-4.46.81-2.03-.81-2.64-2.64-2.64-4.46v-.41c.2-1.22.81-2.43,1.22-3.04.81-1.22,2.03-2.64,3.04-3.45h0Z"/>
      <path class="st25" d="M14.61,11.16c1.01-1.01,2.43-2.03,3.65-2.64.81-.2,1.62-.61,2.43-.61l.2-.2c1.01-.2,2.84-.2,4.26,1.22,1.01,1.22,1.01,2.64.61,3.85,0,.2-.2.41-.2.61-.2.41-.61,1.01-1.01,1.42-.41.61-1.01,1.01-1.42,1.22-.2.2-.61.41-.81.61-.41.2-.81.41-1.01.61l-.2.2c-.13.13-.27.2-.41.2-.21,0,0,.2-.2.41-.2.41-.61.81-.81,1.42-.41.41-1.01,1.42-2.03,2.03l-.2.2c-1.22.81-2.84,1.42-4.46.61-2.03-.81-2.64-2.43-2.43-4.26v-.41c0-1.22.61-2.43,1.01-3.04.81-1.42,2.03-2.64,3.04-3.45h0Z"/>
      <path class="st25" d="M14.61,11.16c1.01-1.01,2.43-2.03,3.65-2.64.81-.2,1.62-.61,2.43-.61h.2c1.01-.41,2.84-.2,4.06,1.01,1.22,1.21,1.22,2.64.61,3.85,0,.2,0,.41-.2.41-.2.61-.61,1.22-1.01,1.62-.41.61-.81,1.01-1.22,1.22-.41.21-.61.41-1.01.61-.2.2-.61.41-1.01.61,0,0,0,.2-.2.2,0,0-.2,0-.2.2l-.2.2c-.41.61-.61,1.01-1.01,1.42-.2.61-1.01,1.42-1.83,2.03,0,.2-.2.2-.2.2-1.22,1.01-2.84,1.42-4.46.81-2.03-.81-2.64-2.64-2.43-4.26v-.41c0-1.42.61-2.43,1.01-3.04.81-1.42,2.03-2.64,3.04-3.45l-.02.02Z"/>
      <path class="st25" d="M14.61,11.16c1.01-1.01,2.43-2.03,3.65-2.64.61-.2,1.42-.41,2.43-.61,1.22-.2,3.04-.2,4.26,1.01,1.01,1.22,1.01,2.43.61,3.85,0,.2-.2.2-.2.41-.2.61-.61,1.22-1.01,1.62s-1.01.81-1.42,1.22c-.2,0-.41.2-.81.61-.41.2-.61.41-1.01.61h-.2l-.2.2-.41.41c-.2.41-.41,1.01-.81,1.42-.41.41-1.01,1.42-1.83,2.03-.2,0-.2.2-.41.2-1.01.81-2.64,1.42-4.26.61-2.03-.61-2.64-2.43-2.43-4.26v-.41c.2-1.22.61-2.23,1.01-2.84.81-1.42,2.03-2.64,3.04-3.45h0Z"/>
      <path class="st25" d="M16.35,21.96c-.95.5-2.16.6-3.36.15-1.83-.81-2.64-2.43-2.43-4.26v-.41c.2-1.22.81-2.23,1.22-2.84.61-1.42,1.83-2.64,2.84-3.45h-.01c1.01-1,2.43-1.82,3.65-2.42.61-.41,1.42-.61,2.43-.81,1.22-.2,2.84-.2,4.26,1.01,1.01,1.22,1.01,2.43.41,3.85,0,0,0,.2-.2.41-.2.61-.41,1.01-1.01,1.62-.41.41-.81.81-1.22,1.01-.2.2-.61.41-1.01.61-.2.2-.61.41-.81.61-.13.13-.27.2-.41.2l-.2.2s0,.2-.2.41c-.2.41-.61.81-.81,1.22-.41.61-1.01,1.42-1.83,2.03-.13.13-.27.2-.41.2-.26.26-.57.48-.9.66"/>
      <path class="st25" d="M14.61,11.16c1.01-1.01,2.43-1.83,3.65-2.43.61-.41,1.42-.61,2.23-.81h.2c1.01-.2,2.84-.2,4.06,1.01,1.22,1.22,1.01,2.43.61,3.85,0,0-.2.2-.2.41-.2.41-.61,1.01-1.01,1.42-.41.61-1.01,1.01-1.22,1.22-.41.2-.61.41-1.01.61-.2.2-.61.41-1.01.61,0,0-.2,0-.2.2h-.2c0,.2-.2.2-.2.41-.41.41-.61,1.01-1.01,1.42-.2.61-.81,1.42-1.83,2.03,0,0,0,.2-.2.2-1.22.81-2.64,1.42-4.26.81-1.83-.81-2.43-2.64-2.43-4.26v-.41c.2-1.22.81-2.23,1.22-2.84.81-1.42,1.83-2.64,2.84-3.45h-.03Z"/>
      <path class="st25" d="M14.61,11.16c1.01-1.01,2.43-1.83,3.65-2.43.61-.41,1.42-.61,2.23-.81h.2c1.01-.2,2.84-.2,4.06,1.01,1.01,1.22,1.01,2.43.41,3.65v.61c-.41.41-.61,1.01-1.22,1.42-.41.61-.81.81-1.22,1.22-.2,0-.61.2-.81.61-.41,0-.81.2-1.01.61h-.2l-.2.2c-.2,0-.2.2-.41.41-.2.41-.41.81-.81,1.22-.41.61-1.01,1.42-1.83,2.03,0,.2-.2.2-.2.2-1.22,1.01-2.64,1.42-4.26.81-1.83-.81-2.43-2.43-2.43-4.26,0,0,0-.2.2-.2,0-1.22.61-2.23,1.01-3.04.81-1.22,1.83-2.43,2.84-3.25h0Z"/>
      <path class="st25" d="M14.61,11.16c1.01-1.01,2.43-1.83,3.65-2.43.61-.41,1.42-.61,2.23-.81h.2c1.01-.2,2.64-.2,4.06,1.01,1.01,1.22,1.01,2.43.41,3.65,0,.2-.2.41-.2.41-.2.61-.61,1.22-1.01,1.62s-1.01.81-1.22,1.01c-.41.2-.61.41-1.01.61-.2.2-.61.41-.81.61-.2,0-.2.2-.41.2l-.2.2s0,.2-.2.41c-.2.41-.61.81-.81,1.22-.41.61-1.01,1.42-1.83,2.03l-.2.2c-1.22.81-2.64,1.42-4.26.81-1.83-.81-2.43-2.43-2.23-4.26v-.41c0-1.22.61-2.23,1.01-2.84.81-1.22,1.83-2.43,2.84-3.25h0Z"/>
      <path class="st25" d="M14.61,11.16c1.01-1.01,2.43-1.83,3.65-2.43.61-.41,1.42-.61,2.23-.81,1.22-.2,2.84-.2,4.06,1.01,1.22,1.21,1.01,2.43.61,3.65-.2.2-.2.41-.2.41-.41.61-.61,1.01-1.01,1.62-.61.41-1.01.81-1.42,1.01-.2.2-.61.41-.81.61-.41.2-.61.41-1.01.61,0,0-.2,0-.2.2h-.2c0,.2-.2.2-.2.41-.41.41-.61,1.01-.81,1.42-.41.41-1.01,1.22-1.83,1.83-.13.13-.27.2-.41.2-1.01,1.01-2.43,1.42-4.06.81-1.83-.61-2.43-2.43-2.23-4.06v-.41c.2-1.22.61-2.23,1.01-2.84.81-1.22,1.83-2.43,2.84-3.25h0Z"/>
      <path class="st25" d="M14.61,11.16c1.01-1.01,2.43-1.83,3.65-2.43.61-.2,1.42-.61,2.23-.81,1.22-.2,2.84-.2,4.06,1.01,1.01,1.22,1.01,2.43.41,3.65,0,.2-.2.2-.2.41-.2.61-.61,1.01-1.01,1.42-.41.61-.81.81-1.22,1.22-.41.2-.61.2-1.01.61-.2,0-.61.2-.81.41l-.2.2-.2.2c-.2,0-.2.2-.41.41-.2.41-.41.81-.81,1.22-.41.61-.81,1.42-1.83,2.03,0,0,0,.2-.2.2-1.01.81-2.43,1.42-4.06.81-1.83-.81-2.43-2.43-2.23-4.06v-.41c.2-1.22.61-2.23,1.01-2.84.81-1.22,2.03-2.43,2.84-3.25h0Z"/>
      <path class="st7" d="M14.61,11.16c1.01-1.01,2.43-1.83,3.65-2.43.61-.2,1.42-.61,2.23-.81,1.01-.2,2.84-.2,4.06,1.01,1.01,1.22.81,2.43.41,3.65-.2,0-.2.2-.2.41-.41.41-.61,1.01-1.01,1.42-.61.41-1.01.81-1.42,1.01-.2.2-.41.41-.81.61-.2.2-.61.41-1.01.61,0,0,0,.2-.2.2,0,0-.2,0-.2.2,0,0,0,.2-.2.2-.2.41-.61,1.01-.81,1.42-.41.41-1.01,1.22-1.83,1.83,0,.2-.2.2-.2.41-1.01.81-2.64,1.22-4.06.61-1.83-.61-2.43-2.23-2.23-4.06v-.41c.2-1.01.81-2.03,1.22-2.64.61-1.22,1.83-2.43,2.64-3.25h-.03Z"/>
      <path class="st34" d="M14.61,11.16c1.01-1.01,2.43-1.83,3.65-2.43.61-.2,1.22-.61,2.03-.61.2,0,.2-.2.2-.2,1.01-.2,2.64-.2,3.85,1.01,1.01,1.22,1.01,2.23.41,3.65,0,0,0,.2-.2.41-.2.41-.61.81-1.01,1.42-.41.41-.81.81-1.22,1.01-.2.2-.61.41-.81.61-.41.2-.61.41-1.01.61,0,0-.2,0-.2.2h-.2c0,.2-.2.2-.2.41-.41.41-.61.81-.81,1.22-.41.61-1.01,1.42-1.83,2.03l-.2.2c-1.22.81-2.64,1.42-4.06.81-1.83-.81-2.43-2.43-2.23-4.06v-.41c.2-1.01.81-2.03,1.22-2.64.61-1.22,1.83-2.43,2.64-3.25h-.02Z"/>
      <path class="st1" d="M14.81,11.16c.81-1.01,2.23-1.83,3.45-2.43.61-.2,1.22-.61,2.03-.61h.2c1.01-.41,2.64-.41,3.85.81,1.01,1.22.81,2.23.41,3.45-.2.2-.2.41-.2.41-.41.61-.61,1.01-1.01,1.42-.41.61-1.01.81-1.22,1.22-.41.2-.61.2-1.01.41-.2.2-.61.41-.81.61l-.2.2-.2.2c-.2,0-.2.2-.41.41-.2.41-.41.81-.81,1.22-.2.61-.81,1.22-1.62,2.03-.13,0-.2.07-.2.2-1.22.81-2.64,1.42-4.06.61-1.83-.61-2.23-2.23-2.23-3.85,0-.13.07-.27.2-.41,0-1.22.61-2.03,1.01-2.64.81-1.22,1.83-2.43,2.84-3.25h-.01Z"/>
      <path class="st41" d="M14.81,11.16c.81-1.01,2.03-1.83,3.25-2.43.61-.2,1.42-.41,2.23-.61h.2c1.01-.41,2.64-.41,3.85.81,1.01,1.01.81,2.23.2,3.45,0,.2,0,.41-.2.41-.2.61-.61,1.01-1.01,1.42s-.81.81-1.22,1.01c-.2.2-.61.41-.81.61-.41.2-.61.41-1.01.61,0,0,0,.2-.2.2,0,0-.2,0-.2.2l-.2.2c-.2.41-.61,1.01-.81,1.22-.41.61-.81,1.42-1.62,2.03-.2,0-.2.2-.41.2-1.01.81-2.43,1.42-3.85.81-1.83-.61-2.23-2.23-2.03-4.06v-.2c0-1.22.61-2.03,1.01-2.84.81-1.01,1.83-2.23,2.84-3.04h-.01Z"/>
      <path class="st1" d="M15.06,10.95c.88-.95,2.15-1.69,3.41-2.2.62-.16,1.44-.31,2.27-.45,1.25-.32,2.86-.21,3.78,1.07.94,1.08.85,2.29.17,3.47-.14.12-.22.26-.23.4-.44.38-.68.97-1.11,1.35s-1.06.74-1.29.92c-.42.17-.64.37-1.05.54-.21.19-.64.37-.85.55h-.2s-.21.17-.21.17c-.01.2-.21.19-.23.4-.44.38-.66.77-.89,1.16-.45.58-1.09,1.15-1.97,1.9l-.21.19c-1.06.74-2.52,1.25-3.9.54-1.77-.93-2.06-2.58-1.74-4.19l.03-.41c.27-.99.75-1.98,1.19-2.56.89-1.16,1.98-2.1,3.04-2.84h-.02Z"/>
      <path class="st1" d="M14.81,11.16c1.01-1.01,2.03-1.83,3.25-2.23.61-.41,1.42-.61,2.23-.81,1.22-.2,2.64-.41,3.85.81,1.01,1.01.81,2.23.2,3.45,0,.13-.07.27-.2.41-.2.41-.61.81-1.01,1.42-.41.41-.81.61-1.22,1.01-.2.2-.61.2-.81.41-.2.2-.61.41-.81.61l-.2.2c-.2,0-.2.2-.2.2-.2,0-.2.2-.41.41-.2.41-.41.81-.81,1.22-.2.41-.81,1.22-1.62,1.83l-.2.2c-1.01.81-2.43,1.42-3.85.81-1.83-.61-2.23-2.23-2.03-3.85v-.41c.2-1.01.61-2.03,1.01-2.64.81-1.22,1.83-2.23,2.84-3.04h-.01Z"/>
      <path class="st22" d="M14.81,11.16c1.01-1.01,2.03-1.83,3.25-2.23.61-.41,1.42-.61,2.23-.81,1.01-.2,2.64-.2,3.85.81,1.01,1.01.81,2.23.2,3.45-.2,0-.2.2-.2.41-.2.41-.61.81-1.01,1.22-.41.41-1.01.81-1.22,1.01-.41.2-.61.41-.81.61-.41.2-.61.41-1.01.61l-.2.2h-.2c0,.13-.07.27-.2.41-.2.41-.61.81-.81,1.22-.41.61-.81,1.42-1.62,2.03,0,0-.2,0-.2.2-1.01.81-2.43,1.42-3.85.81-1.83-.81-2.23-2.23-2.03-3.85v-.41c.2-1.01.61-2.03,1.01-2.64.81-1.22,1.83-2.23,2.84-3.04h-.02Z"/>
      <path class="st21" d="M14.81,11.16c1.01-.81,2.03-1.62,3.25-2.23.61-.41,1.42-.61,2.03-.81h.2c1.01-.2,2.64-.2,3.65.81s.81,2.23.2,3.45c0,0,0,.2-.2.41-.2.41-.61.81-1.01,1.22-.41.41-.81.81-1.22,1.01-.2.2-.41.41-.81.61-.2.2-.61.41-.81.61h-.2l-.2.2s-.2.2-.2.41c-.41.41-.61.81-.81,1.22-.41.41-1.01,1.22-1.62,1.83-.2,0-.2.2-.2.2-1.22.81-2.43,1.42-4.06.81-1.62-.61-2.03-2.23-1.83-3.85v-.2c.2-1.22.81-2.03,1.22-2.64.61-1.22,1.62-2.23,2.64-3.04l-.02-.02Z"/>
      <path class="st32" d="M14.81,11.16c1.01-.81,2.03-1.62,3.25-2.23.61-.41,1.22-.61,2.03-.81h.2c1.01-.2,2.64-.2,3.65.81s.81,2.23.2,3.25c0,.2-.2.41-.2.41-.2.61-.61,1.01-1.01,1.42-.41.41-.81.61-1.22,1.01-.2.2-.61.2-.81.41-.41.2-.61.41-.81.61l-.2.2c-.2,0-.2.2-.2.2-.2,0-.2.2-.41.2-.2.41-.41.81-.81,1.22-.2.61-.81,1.42-1.42,2.03-.13,0-.27.07-.41.2-1.01.81-2.23,1.42-3.85.81-1.62-.61-2.03-2.23-1.83-3.85,0-.13.07-.27.2-.41,0-1.01.61-1.83,1.01-2.43.61-1.22,1.62-2.23,2.64-3.04h0Z"/>
      <path class="st31" d="M14.81,11.16c1.01-.81,2.03-1.62,3.25-2.23.61-.41,1.22-.61,2.03-.81,1.22-.2,2.64-.2,3.85.81,1.01,1.01.61,2.23,0,3.25,0,.13-.07.27-.2.41-.2.41-.61.81-1.01,1.22-.41.61-.81.81-1.22,1.01-.2.2-.41.41-.81.61-.2.2-.41.41-.81.61,0,0-.2,0-.2.2h-.2c0,.13-.07.27-.2.41-.2.41-.41.81-.81,1.22-.41.41-.81,1.22-1.62,1.83,0,0,0,.2-.2.2-1.01.81-2.23,1.42-3.85.81-1.62-.61-2.03-2.03-1.83-3.65.13-.13.2-.27.2-.41.2-1.01.61-1.83,1.01-2.43.61-1.22,1.62-2.23,2.64-3.04l-.02-.02Z"/>
      <path class="st9" d="M14.81,11.16c1.01-.81,2.03-1.62,3.25-2.23.61-.2,1.22-.61,2.03-.81,1.22-.2,2.64-.2,3.65.81s.81,2.03.2,3.25c0,.2-.2.2-.2.41-.2.41-.61.81-1.01,1.22-.41.41-.81.81-1.22,1.01-.2.2-.61.41-.81.61-.2.2-.61.41-.81.61h-.2l-.2.2s-.2.2-.2.41c-.41.41-.61.81-.81,1.01-.41.61-.81,1.42-1.62,2.03,0,0-.2,0-.2.2-1.01.81-2.43,1.42-3.85.81-1.62-.61-1.83-2.23-1.62-3.85v-.2c.2-1.01.61-2.03,1.01-2.43.81-1.22,1.83-2.23,2.64-3.04l-.03-.02Z"/>
      <path class="st28" d="M14.81,11.16c1.01-.81,2.03-1.62,3.25-2.23.61-.2,1.22-.61,2.03-.61v-.2c1.01-.2,2.64-.2,3.65.81s.81,2.03,0,3.25c0,0,0,.2-.2.41-.2.41-.61.81-1.01,1.22-.41.41-.81.81-1.01,1.01-.41.2-.61.2-.81.41-.41.2-.61.41-1.01.61,0,0,0,.2-.2.2v.2c-.2,0-.2.2-.41.2l-.61,1.22c-.41.61-1.01,1.22-1.62,1.83l-.2.2c-1.01.81-2.43,1.42-3.85.81s-1.83-2.03-1.62-3.65v-.41c.2-.81.61-1.83,1.01-2.43.81-1.01,1.83-2.03,2.64-2.84h-.03Z"/>
      <path class="st36" d="M14.81,11.16c1.01-.81,2.03-1.62,3.25-2.23.61-.2,1.22-.61,1.83-.61h.2c1.01-.41,2.64-.41,3.65.61.81,1.01.61,2.03,0,3.25,0,0-.2.2-.2.41-.2.41-.61.81-1.01,1.22-.41.41-.81.61-1.22.81-.2.2-.41.41-.81.61-.2.2-.61.41-.81.61,0,0-.2,0-.2.2h-.2c0,.13-.07.27-.2.41-.2.41-.41.81-.81,1.22-.2.41-.81,1.22-1.42,1.83-.13,0-.27.07-.41.2-.81.81-2.23,1.42-3.65.81s-1.83-2.03-1.62-3.65v-.41c.2-1.01.61-1.83,1.01-2.43.81-1.01,1.83-2.03,2.64-2.84l-.02-.02Z"/>
      <path class="st36" d="M14.81,11.16c1.01-.81,2.03-1.62,3.25-2.23.41-.2,1.22-.41,1.83-.61h.2c1.01-.41,2.43-.41,3.45.61,1.01,1.01.81,2.03.2,3.25-.2,0-.2.2-.41.2-.2.41-.61.81-1.01,1.22-.41.41-.81.81-1.01,1.01-.41.2-.61.41-.81.61-.41.2-.61.41-.81.61h-.2l-.2.2s-.2.2-.2.41c-.41.2-.61.61-.81,1.01-.41.61-.81,1.22-1.62,1.83,0,.13-.07.2-.2.2-1.01.81-2.23,1.42-3.65,1.01-1.42-.81-1.83-2.23-1.62-3.65v-.41c.2-1.01.81-1.83,1.22-2.43.61-1.01,1.62-2.03,2.43-2.84h-.03Z"/>
      <path class="st24" d="M14.81,11.16c1.01-.81,2.03-1.62,3.25-2.23.41-.2,1.22-.41,1.83-.61h.2c1.01-.41,2.43-.41,3.45.61,1.01,1.01.61,2.03,0,3.04,0,.2-.2.41-.2.41-.2.41-.61.81-1.01,1.22-.41.41-.81.81-1.22,1.01-.2.2-.41.2-.81.41-.2.2-.41.41-.81.61,0,0,0,.2-.2.2v.2c-.13,0-.27.07-.41.2-.2.41-.41.81-.61,1.22-.41.41-.81,1.22-1.62,1.83,0,0-.2,0-.2.2-1.01.81-2.23,1.42-3.65.81s-1.83-2.03-1.62-3.65c0,0,0-.2.2-.2.2-1.01.61-1.83,1.01-2.43.61-1.01,1.62-2.03,2.43-2.84h-.01Z"/>
      <path class="st24" d="M14.81,11.16c1.01-.81,2.03-1.62,3.04-2.23.61-.2,1.22-.41,2.03-.61,1.22-.41,2.64-.41,3.65.61.81,1.01.61,2.03,0,3.04-.13.13-.2.27-.2.41-.41.41-.81.81-1.01,1.22-.41.41-1.01.61-1.22.81-.2.2-.61.41-.81.61-.2.2-.61.41-.81.61h-.2c0,.2-.2.2-.2.2,0,0,0,.2-.2.41-.2.41-.41.81-.81,1.01-.2.61-.81,1.22-1.42,1.83,0,.2-.2.2-.2.2-1.01,1.01-2.23,1.42-3.65,1.01-1.42-.61-1.83-2.03-1.62-3.65.13-.13.2-.27.2-.41.2-.81.61-1.62,1.01-2.23.61-1.01,1.62-2.03,2.43-2.84h0Z"/>
      <path class="st39" d="M14.81,11.16c1.01-.81,2.03-1.62,3.04-2.03.61-.41,1.22-.61,2.03-.81,1.22-.41,2.64-.41,3.45.61,1.01,1.01.61,2.03,0,3.04,0,.2-.2.2-.2.41-.2.41-.61.81-1.01,1.22-.41.2-.81.61-1.22.81-.2.2-.41.41-.61.61-.41.2-.61.2-.81.41l-.2.2c-.2,0-.2.2-.2.2l-.2.2c-.2.41-.61.81-.81,1.22-.41.41-.81,1.22-1.42,1.83-.13,0-.2.07-.2.2-1.01.81-2.23,1.42-3.65.81s-1.83-2.03-1.42-3.45v-.41c.2-.81.61-1.62,1.01-2.23.61-1.01,1.62-2.23,2.43-2.84h0Z"/>
      <path class="st29" d="M14.81,11.16c1.01-.81,2.03-1.62,3.04-2.03.61-.41,1.22-.61,2.03-.81,1.01-.2,2.43-.41,3.45.61,1.01,1.01.61,2.03,0,3.04-.2,0-.2.2-.2.41-.41.41-.61.61-1.01,1.01-.41.41-.81.81-1.22,1.01-.2.2-.61.2-.81.41-.2.2-.41.41-.81.61,0,0,0,.2-.2.2h-.2c0,.13-.07.27-.2.41-.2.41-.41.81-.61,1.01-.41.61-.81,1.22-1.42,1.83-.13.13-.27.2-.41.2-.81,1.01-2.03,1.42-3.45,1.01-1.42-.61-1.83-2.03-1.42-3.65v-.2c.2-1.01.61-1.83,1.01-2.23.81-1.22,1.62-2.23,2.43-2.84Z"/>
      <path class="st29" d="M14.81,11.16c1.01-.81,2.03-1.62,3.04-2.03.61-.41,1.22-.61,1.83-.81h.2c1.01-.2,2.43-.41,3.45.61.81,1.01.61,2.03-.2,3.04l-.2.2c-.2.41-.61.81-1.01,1.22-.41.41-.81.61-1.01.81-.41.2-.61.41-.81.61-.41.2-.61.41-.81.61h-.2c0,.2-.2.2-.2.2,0,0,0,.2-.2.41-.2.2-.41.61-.81,1.01-.2.61-.81,1.22-1.42,1.83l-.2.2c-.81.81-2.03,1.42-3.45.81s-1.62-2.03-1.42-3.45v-.2c.2-1.01.61-1.83,1.01-2.43.81-1.01,1.62-2.03,2.43-2.64h-.02Z"/>
      <path class="st4" d="M14.81,11.16c1.01-.81,2.03-1.62,3.04-2.03.61-.41,1.22-.61,1.83-.81h.2c1.01-.2,2.43-.41,3.25.61,1.01,1.01.61,1.83,0,3.04-.2,0-.2.2-.2.2-.41.41-.61.81-1.01,1.22-.41.41-.81.61-1.22.81-.2.2-.41.41-.81.61-.2,0-.41.2-.61.41l-.2.2c-.2,0-.2.2-.2.2l-.2.2c-.2.41-.61.81-.81,1.22-.2.41-.81,1.22-1.42,1.62,0,.2-.2.2-.2.2-1.01,1.01-2.03,1.62-3.45,1.01s-1.62-2.03-1.42-3.45v-.41c.2-.81.81-1.62,1.22-2.23.61-1.01,1.42-2.03,2.23-2.64l-.02.02Z"/>
      <path class="st18" d="M14.81,11.16c1.01-.81,2.03-1.62,3.04-2.03.61-.2,1.22-.61,1.83-.81h.2c1.01-.2,2.43-.2,3.25.61.81,1.01.61,1.83-.2,2.84,0,.13-.07.27-.2.41-.2.41-.61.81-1.01,1.01-.41.41-.81.81-1.01,1.01-.41.2-.61.2-.81.41-.2.2-.61.41-.81.61l-.2.2h-.2c0,.13-.07.27-.2.41-.2.41-.41.61-.61,1.01-.41.61-.81,1.22-1.42,1.83,0,0-.2,0-.2.2-1.01.81-2.23,1.42-3.45.81-1.42-.41-1.62-1.83-1.42-3.25,0-.2.2-.2.2-.41.2-.81.61-1.62,1.01-2.23.61-1.01,1.42-2.03,2.23-2.64h-.02Z"/>
      <path class="st38" d="M14.81,11.16c1.01-.81,2.03-1.42,3.04-2.03.61-.2,1.22-.61,1.83-.61v-.2c1.22-.2,2.43-.2,3.45.61.81,1.01.41,1.83-.2,2.84-.13.13-.2.27-.2.41-.41.41-.61.61-1.01,1.01-.41.41-.81.61-1.22.81l-.61.61c-.41.2-.61.41-.81.61h-.2c0,.2-.2.2-.2.2,0,0,0,.2-.2.2-.2.41-.41.81-.61,1.22-.41.41-.81,1.22-1.42,1.62l-.2.2c-1.01,1.01-2.23,1.62-3.45,1.01-1.42-.61-1.62-2.03-1.42-3.45.2,0,.2-.2.2-.2.2-.81.61-1.62,1.01-2.23.61-1.01,1.42-2.03,2.23-2.64h0Z"/>
      <path class="st6" d="M14.81,11.16c1.01-.81,2.03-1.42,3.04-2.03.41-.2,1.22-.61,1.83-.61,1.01-.41,2.43-.41,3.25.41,1.01,1.01.61,1.83-.2,2.84,0,.13-.07.27-.2.41-.2.2-.61.61-1.01,1.01s-.81.61-1.01.81c-.2.2-.61.41-.81.61-.2,0-.41.2-.81.41v.2c-.13,0-.2.07-.2.2-.13,0-.2.07-.2.2-.2.41-.61.81-.81,1.01-.2.61-.81,1.22-1.42,1.83,0,0,0,.2-.2.2-.81.81-2.03,1.42-3.25,1.01-1.42-.61-1.62-2.03-1.22-3.45v-.2c.2-1.01.61-1.62,1.01-2.23.61-1.01,1.62-2.03,2.23-2.64h-.02Z"/>
      <path class="st2" d="M15.01,11.16c.81-.81,1.83-1.42,2.84-2.03.41-.2,1.01-.41,1.83-.61,1.01-.41,2.43-.41,3.25.41.81,1.01.41,1.83-.2,2.84-.2,0-.2.2-.2.2-.41.41-.61.81-1.01,1.22-.41.2-.81.61-1.22.81-.2.2-.41.2-.61.41-.41.2-.61.41-.81.61,0,0-.2,0-.2.2h-.2c0,.13-.07.27-.2.41-.2.2-.41.61-.61,1.01-.41.41-.81,1.22-1.42,1.62,0,.13-.07.2-.2.2-.81,1.01-2.03,1.62-3.25,1.01-1.42-.61-1.62-1.83-1.22-3.25v-.41c.2-.81.61-1.62,1.01-2.03.61-1.01,1.62-2.03,2.43-2.64v.02Z"/>
      <path class="st2" d="M15.01,11.16c.81-.81,1.83-1.42,2.84-2.03.41-.2,1.01-.41,1.62-.61h.2c1.01-.41,2.43-.41,3.25.41.81,1.01.41,1.83-.41,2.84,0,0,0,.2-.2.2-.2.41-.61.81-1.01,1.01-.41.41-.81.61-1.01.81-.2.2-.41.41-.81.61-.2.2-.41.41-.61.61h-.2c0,.2-.2.2-.2.2l-.2.2c-.2.41-.41.81-.61,1.01-.41.61-.81,1.22-1.42,1.83l-.2.2c-.81.81-2.03,1.42-3.25,1.01-1.42-.61-1.62-2.03-1.22-3.45v-.2c.2-.81.61-1.62,1.01-2.03.61-1.01,1.62-2.03,2.43-2.64v.02Z"/>
      <path class="st11" d="M15.01,11.16c.81-.81,1.83-1.42,2.84-2.03.41-.2,1.01-.41,1.62-.61h.2c1.01-.41,2.23-.41,3.04.41,1.01.81.61,1.83-.2,2.84l-.2.2c-.41.41-.61.61-1.01,1.01-.41.41-.81.61-1.22.81-.2.2-.41.41-.61.61-.2,0-.61.2-.81.41v.2c-.13,0-.2.07-.2.2-.13,0-.2.07-.2.2-.2.41-.41.61-.81,1.01-.2.61-.61,1.22-1.22,1.62l-.2.2c-1.01,1.01-2.03,1.62-3.25,1.01-1.42-.41-1.62-1.83-1.22-3.25v-.2c.2-.81.81-1.62,1.01-2.23.81-.81,1.62-1.83,2.43-2.43v.02Z"/>
      <path class="st43" d="M15.01,11.16c.81-.81,1.83-1.42,2.64-2.03.61-.2,1.22-.41,1.83-.61,1.22-.41,2.43-.41,3.25.41.81.81.41,1.83-.41,2.64,0,.13-.07.27-.2.41-.2.41-.61.61-1.01,1.01-.2.2-.61.61-1.01.81-.2.2-.41.2-.61.41-.41.2-.61.41-.81.61,0,0-.2,0-.2.2h-.2s0,.2-.2.41c-.2.2-.41.61-.61,1.01-.41.41-.81,1.01-1.22,1.62-.2,0-.2.2-.2.2-1.01.81-2.03,1.42-3.25,1.01-1.42-.61-1.42-1.83-1.22-3.25,0-.2.2-.2.2-.41.2-.61.61-1.42,1.01-2.03.61-.81,1.42-1.83,2.23-2.43h0Z"/>
      <path class="st17" d="M15.01,11.16c.81-.81,1.83-1.42,2.64-1.83.61-.41,1.22-.61,1.83-.81,1.22-.41,2.43-.41,3.25.41.81.81.41,1.83-.41,2.64,0,.2-.2.2-.2.41-.41.2-.61.61-1.01,1.01-.41.2-.81.41-1.01.61-.41.2-.61.41-.81.61-.2.2-.41.41-.61.61h-.2c-.2,0-.2.2-.2.2l-.2.2c-.2.41-.41.81-.61,1.01-.41.61-.81,1.22-1.42,1.62,0,.13-.07.2-.2.2-.81,1.01-1.83,1.62-3.04,1.01-1.42-.41-1.42-1.83-1.22-3.04.13-.13.2-.27.2-.41.2-.81.61-1.42,1.01-2.03.61-.81,1.42-1.83,2.23-2.43h-.02Z"/>
      <path class="st17" d="M15.01,11.16c.81-.81,1.83-1.42,2.64-1.83.61-.41,1.22-.61,1.83-.81,1.01-.41,2.43-.41,3.04.41,1.01.81.41,1.62-.2,2.64-.2,0-.2.2-.41.2-.2.41-.61.81-1.01,1.01-.2.41-.61.61-1.01.81-.2.2-.41.41-.61.61-.2,0-.61.2-.81.41,0,0,0,.2-.2.2-.13.13-.2.27-.2.41-.2.2-.41.61-.81,1.01-.2.41-.61,1.01-1.22,1.62l-.2.2c-.81.81-1.83,1.42-3.04,1.01-1.22-.61-1.42-1.83-1.01-3.25v-.2c.2-.81.61-1.42,1.01-2.03.61-.81,1.42-1.83,2.23-2.43h-.02Z"/>
      <path class="st14" d="M15.01,11.16c.81-.81,1.83-1.42,2.64-1.83.61-.41,1.22-.61,1.62-.81h.2c1.01-.41,2.23-.41,3.04.41.81.81.41,1.62-.41,2.64l-.2.2c-.41.41-.61.61-1.01,1.01-.41.41-.81.61-1.01.81-.2.2-.61.2-.81.41s-.41.41-.61.61h-.2c0,.13-.07.2-.2.2-.2,0,0,.2-.2.2-.2.41-.41.81-.61,1.01-.2.61-.61,1.22-1.22,1.62,0,.2-.2.2-.2.2-.81,1.01-1.83,1.62-3.04,1.01-1.22-.41-1.42-1.62-1.01-3.04v-.2c.2-.81.61-1.42,1.01-2.03.61-1.01,1.42-1.83,2.23-2.43h0Z"/>
      <path class="st35" d="M15.01,11.16c.81-.61,1.62-1.42,2.64-1.83.61-.41,1.01-.61,1.62-.81h.2c1.01-.2,2.23-.41,3.04.41.81.81.41,1.62-.41,2.64-.2,0-.2.2-.41.2-.2.41-.61.61-1.01,1.01-.2.2-.61.41-1.01.81-.2,0-.41.2-.61.41s-.41.41-.81.41v.2c-.2,0-.2.2-.2.2,0,0-.2,0-.2.2-.2.41-.41.61-.61,1.01-.41.41-.81,1.01-1.22,1.62-.2,0-.2.2-.2.2-.81.81-1.83,1.42-3.04,1.01-1.22-.41-1.42-1.83-1.01-3.04v-.41c.2-.61.61-1.42,1.01-1.83.61-1.01,1.42-1.83,2.23-2.43v.02Z"/>
      <path class="st40" d="M15.01,11.16c.81-.61,1.62-1.42,2.64-1.83.61-.2,1.01-.61,1.62-.61,0-.13.07-.2.2-.2,1.01-.2,2.23-.41,3.04.41.61.81.2,1.62-.61,2.64,0,0-.2,0-.2.2-.2.2-.61.61-1.01.81-.41.41-.81.61-1.01.81s-.41.41-.81.61c-.2,0-.41.2-.61.41,0,0,0,.2-.2.2-.13.13-.2.27-.2.41-.2.2-.41.61-.61.81-.41.61-.81,1.22-1.42,1.83-1.01,1.01-2.03,1.62-3.04,1.22-1.22-.61-1.42-1.83-1.01-3.25l.2-.2c.2-.61.61-1.42.81-1.83.61-1.01,1.42-1.83,2.23-2.43h0Z"/>
      <path class="st23" d="M15.01,11.16c.81-.61,1.62-1.42,2.64-1.83.41-.2,1.01-.61,1.62-.61v-.2c1.22-.2,2.43-.41,3.04.41.81.81.41,1.62-.41,2.43l-.41.41c-.2.2-.61.61-1.01.81-.2.41-.61.61-1.01.81-.2.2-.41.2-.61.41-.2.2-.41.41-.61.61h-.2c0,.13-.07.2-.2.2-.2,0,0,.2-.2.2-.2.41-.41.61-.61,1.01-.2.41-.61,1.01-1.22,1.62,0,0,0,.2-.2.2-.81.81-1.83,1.42-2.84,1.01-1.22-.41-1.42-1.62-1.01-3.04l.2-.2c.2-.81.61-1.42,1.01-1.83.61-1.01,1.22-1.83,2.03-2.43h0Z"/>
      <path class="st19" d="M15.01,11.16c.81-.61,1.62-1.42,2.64-1.83.41-.2,1.01-.41,1.62-.61,1.01-.41,2.23-.61,3.04.2.81.81.2,1.62-.61,2.43,0,.2-.2.2-.2.2-.2.41-.61.61-1.01,1.01-.41.2-.81.61-1.01.81-.2,0-.41.2-.61.41-.2.2-.61.2-.81.41v.2c-.13,0-.2.07-.2.2,0,.2-.2,0-.2.2-.2.2-.41.61-.61,1.01-.41.41-.81,1.01-1.22,1.62,0,0-.2,0-.2.2-.81.81-1.83,1.42-2.84,1.01-1.22-.61-1.42-1.83-1.01-3.04l.2-.2c.2-.81.61-1.42,1.01-2.03.61-.81,1.42-1.62,2.03-2.23v.03Z"/>
      <path class="st3" d="M15.01,11.16c.81-.61,1.62-1.22,2.64-1.83.41-.2,1.01-.41,1.62-.61,1.01-.41,2.23-.41,3.04.2.61.81.2,1.62-.61,2.43-.2,0-.2.2-.2.2-.41.41-.81.61-1.01,1.01-.41.2-.81.41-1.01.61-.41.2-.61.41-.81.41-.2.2-.41.41-.61.61l-.2.2c-.13.13-.2.27-.2.41-.2.2-.41.61-.61.81-.41.61-.81,1.22-1.22,1.62-.2,0-.2.2-.2.2-.81.81-1.83,1.42-2.84,1.01-1.22-.41-1.22-1.62-.81-2.84v-.41c.2-.61.61-1.22,1.01-1.83.61-.81,1.42-1.62,2.03-2.23v.03Z"/>
      <path class="st3" d="M15.01,11.16c.81-.61,1.62-1.22,2.64-1.83.41-.2,1.01-.41,1.42-.61h.2c1.01-.41,2.23-.41,2.84.2.81.81.2,1.62-.61,2.43l-.2.2c-.2.41-.61.61-1.01.81-.41.41-.61.61-1.01.81-.2.2-.41.2-.61.41-.2.2-.41.41-.61.61h-.2c0,.2-.2.2-.2.2,0,0,0,.2-.2.2-.2.41-.41.61-.61,1.01-.2.41-.61,1.01-1.01,1.62-.13,0-.2.07-.2.2-.81.81-1.83,1.42-2.84,1.01-1.22-.41-1.22-1.62-.81-3.04v-.2c.2-.61.61-1.22,1.01-1.83.61-.81,1.42-1.62,2.03-2.23l-.02.03Z"/>
      <path class="st0" d="M15.01,11.16c.81-.61,1.62-1.22,2.64-1.83.41-.2,1.01-.41,1.42-.61h.2c1.01-.41,2.23-.41,2.84.2.81.81.2,1.62-.61,2.43-.2,0-.2.2-.2.2-.41.2-.81.61-1.01.81-.41.2-.81.61-1.01.81-.2,0-.41.2-.81.41-.2.2-.41.2-.61.41v.2c-.13,0-.2.07-.2.2,0,.2-.2,0-.2.2-.2.2-.41.61-.61.81-.2.61-.61,1.22-1.22,1.62,0,0,0,.2-.2.2-.61.81-1.62,1.62-2.64,1.01-1.22-.41-1.22-1.62-.81-2.84v-.2c.2-.61.61-1.42,1.01-1.83.61-.81,1.42-1.62,2.03-2.23v.03Z"/>
      <path class="st15" d="M15.01,11.16c.81-.61,1.62-1.22,2.64-1.83.41-.2.81-.41,1.42-.61,1.22-.41,2.23-.41,3.04.2.61.81.2,1.42-.81,2.43l-.2.2c-.2.2-.61.41-1.01.81-.41.2-.61.41-1.01.61-.2.2-.41.41-.61.41-.2.2-.41.41-.61.61,0,0-.2,0-.2.2-.2,0-.2.2-.2.2-.2.41-.41.61-.61,1.01-.41.41-.81,1.01-1.22,1.62l-.2.2c-.81.81-1.62,1.42-2.64,1.01-1.22-.41-1.22-1.62-.81-2.84,0-.13.07-.2.2-.2.2-.81.61-1.42.81-1.83.61-.81,1.42-1.62,2.03-2.23v.03Z"/>
      <path class="st15" d="M15.01,11.16c.81-.61,1.62-1.22,2.43-1.62.61-.41,1.01-.61,1.62-.81,1.22-.41,2.23-.41,2.84.2.81.81.2,1.42-.61,2.23-.13.13-.2.27-.2.41-.41.2-.81.41-1.01.61-.41.41-.81.61-1.01.81s-.41.2-.61.41-.41.41-.61.61h-.2l-.2.2s0,.2-.2.2c-.2.2-.41.61-.61.81-.2.61-.61,1.22-1.01,1.62l-.2.2c-.81.81-1.62,1.62-2.64,1.01-1.22-.41-1.22-1.42-.81-2.84,0,0,.2,0,.2-.2.2-.61.61-1.22,1.01-1.62.41-.81,1.22-1.62,1.83-2.23h0Z"/>
      <path class="st26" d="M15.01,11.16c.81-.61,1.62-1.22,2.43-1.62.61-.41,1.01-.61,1.62-.81,1.01-.41,2.23-.41,2.84.2.61.81.2,1.42-.81,2.23,0,.13-.07.2-.2.2-.2.41-.61.61-1.01.81-.2.2-.61.61-1.01.81-.2,0-.41.2-.61.41-.2.2-.41.2-.61.41v.2h-.2c0,.2-.2.2-.2.41-.2.2-.41.61-.61.81-.2.41-.61,1.01-1.01,1.62-.13,0-.2.07-.2.2-.81.81-1.62,1.42-2.64,1.01-1.22-.41-1.22-1.62-.81-2.84.2,0,.2-.2.2-.2.2-.61.61-1.22,1.01-1.62.61-.81,1.22-1.62,1.83-2.23h0Z"/>
      <path class="st26" d="M15.01,11.16c.81-.61,1.62-1.22,2.43-1.62.61-.41,1.01-.61,1.62-.81,1.01-.41,2.23-.41,2.84.2.61.81,0,1.42-.81,2.23-.2,0-.2.2-.2.2-.41.2-.61.61-1.01.81-.41.2-.81.41-1.01.61s-.41.41-.61.41c-.2.2-.41.41-.61.61h-.2v.2c-.2,0-.2.2-.2.2-.2.41-.41.61-.61,1.01-.41.41-.61,1.01-1.22,1.42v.2c-.81,1.01-1.62,1.62-2.84,1.22-1.01-.61-1.01-1.62-.41-2.84v-.2c.2-.61.61-1.22,1.01-1.83.61-.61,1.22-1.42,1.83-2.03h0Z"/>
      <path class="st26" d="M15.01,11.16c.81-.61,1.62-1.22,2.43-1.62.41-.41,1.01-.61,1.42-.61,0-.2.2-.2.2-.2,1.01-.41,2.03-.41,2.64.2.81.81.2,1.42-.81,2.23,0,0,0,.2-.2.2-.2.2-.61.41-1.01.81-.2.2-.61.41-1.01.61-.2.2-.41.2-.61.41-.2.2-.41.41-.61.61l-.2.2-.2.2c-.2.2-.2.61-.41.81-.41.61-.81,1.01-1.22,1.62l-.2.2c-.61.81-1.62,1.42-2.64,1.01-1.01-.41-1.01-1.42-.41-2.64v-.41c.2-.41.61-1.01,1.01-1.62.61-.61,1.22-1.42,1.83-2.03v.02Z"/>
      <path class="st42" d="M15.01,11.16c.81-.61,1.62-1.22,2.43-1.62.41-.2,1.01-.61,1.42-.61l.2-.2c1.01-.2,2.03-.41,2.64.2.61.81.2,1.42-.81,2.23,0,0-.2,0-.2.2-.41.2-.61.41-1.01.61-.41.41-.81.61-1.01.81-.2,0-.41.2-.61.41-.2.2-.41.2-.61.41v.2h-.2c0,.2-.2.2-.2.2-.2.41-.41.61-.61,1.01-.2.41-.61,1.01-1.01,1.42,0,.2-.2.2-.2.2-.61,1.01-1.62,1.62-2.64,1.22-1.01-.41-1.01-1.62-.41-2.84v-.2c.41-.61.61-1.01,1.01-1.62.61-.81,1.22-1.42,1.83-2.03h0Z"/>
      <path class="st20" d="M15.22,11.16c.61-.61,1.42-1.22,2.23-1.62.41-.2,1.01-.41,1.42-.61,1.22-.41,2.23-.61,2.84,0,.61.81,0,1.42-1.01,2.23l-.2.2c-.2.2-.61.41-1.01.61-.2.2-.61.41-.81.61-.2.2-.41.41-.61.41-.2.2-.41.41-.61.61h-.2v.2c-.2,0-.2.2-.2.2-.2.2-.41.61-.61.81-.41.61-.61,1.01-1.01,1.62,0,0-.2,0-.2.2-.81.81-1.62,1.42-2.64,1.01-1.01-.41-.81-1.42-.41-2.64,0,0,0-.2.2-.2.2-.61.41-1.22.81-1.62.61-.81,1.22-1.42,2.03-2.03h0Z"/>
      <path class="st8" d="M15.22,11.16c.61-.61,1.42-1.22,2.23-1.62.41-.2,1.01-.41,1.42-.61,1.01-.41,2.23-.61,2.64,0,.81.81.2,1.42-.81,2.03,0,.2-.2.2-.2.2-.41.41-.61.61-1.01.81-.41.2-.61.41-1.01.61-.2.2-.41.2-.61.41-.2.2-.41.41-.61.41v.2s-.2,0-.2.2l-.2.2c-.2.2-.2.41-.41.81-.41.41-.81,1.01-1.01,1.42l-.2.2c-.81,1.01-1.62,1.62-2.64,1.22-1.01-.41-.81-1.42-.41-2.64,0-.2.2-.2.2-.2.2-.61.61-1.22.81-1.62.61-.81,1.22-1.42,2.03-2.03h0Z"/>
      <path class="st30" d="M15.22,11.16c.61-.61,1.42-1.22,2.23-1.62.41-.2.81-.41,1.42-.61,1.01-.41,2.03-.61,2.64,0,.61.81,0,1.42-.81,2.03-.13.13-.27.2-.41.2-.2.2-.61.41-1.01.81-.2.2-.61.41-.81.61-.2,0-.41.2-.61.41-.2,0-.41.2-.61.41l-.2.2c0,.2-.2.2-.2.2-.2.41-.41.61-.61.81-.2.61-.61,1.01-1.01,1.62v.2c-.81.81-1.62,1.42-2.64,1.01-.81-.41-.81-1.42-.41-2.64.13,0,.2-.07.2-.2.2-.41.61-1.01,1.01-1.42.41-.81,1.22-1.42,1.83-2.03h0Z"/>
      <path class="st27" d="M15.22,11.16c.61-.61,1.42-1.22,2.23-1.62.41-.2.81-.41,1.22-.61h.2c1.01-.41,2.03-.61,2.64,0,.61.61,0,1.42-1.01,2.03l-.2.2c-.41.2-.61.41-1.01.61s-.61.41-1.01.61c-.2.2-.41.41-.61.41-.2.2-.41.41-.41.61h-.2v.2c-.2,0-.2.2-.2.2-.2.2-.41.61-.61.81-.2.41-.61,1.01-1.01,1.42,0,.13-.07.2-.2.2-.61,1.01-1.42,1.62-2.43,1.22-.81-.41-.81-1.42-.2-2.64v-.2c.2-.41.61-1.01,1.01-1.42.41-.81,1.22-1.42,1.83-2.03h-.03Z"/>
      <path class="st13" d="M15.22,11.16c.61-.61,1.42-1.01,2.23-1.62.41-.2.81-.41,1.22-.61h.2c1.01-.41,2.03-.61,2.43,0,.81.61,0,1.22-.81,2.03-.13,0-.27.07-.41.2-.2.2-.61.41-1.01.61-.2.2-.61.41-.81.61-.2.2-.41.2-.61.41-.2.2-.41.41-.61.41v.2s-.2,0-.2.2l-.2.2c0,.2-.2.41-.41.81-.41.41-.61.81-1.01,1.42,0,0-.2,0-.2.2-.61.81-1.42,1.42-2.43,1.01-.81-.2-.81-1.22-.2-2.43v-.2c.2-.61.61-1.01,1.01-1.42.61-.81,1.22-1.42,1.83-2.03h0Z"/>
      <path class="st12" d="M15.22,11.16c.61-.61,1.42-1.01,2.23-1.62.41-.2.81-.41,1.22-.61,1.22-.41,2.23-.41,2.64,0,.61.61,0,1.22-1.01,2.03,0,0-.2,0-.2.2-.41.2-.61.41-1.01.61-.41.2-.61.41-1.01.61-.2,0-.41.2-.41.41-.2,0-.41.2-.61.41l-.2.2-.2.2c-.2.2-.41.61-.61.81-.2.41-.61,1.01-.81,1.42l-.2.2c-.61,1.01-1.42,1.62-2.43,1.22-.81-.41-.81-1.42-.2-2.64.41-.61.61-1.01,1.01-1.62l1.83-1.83h-.03Z"/>
      <path class="st10" d="M15.22,11.16c.61-.61,1.42-1.01,2.23-1.62.41-.2.81-.41,1.22-.61,1.01-.41,2.03-.41,2.64,0,.61.61,0,1.22-1.01,2.03h-.41c-.2.2-.61.41-1.01.61-.2.2-.61.41-.81.61s-.41.41-.61.41c-.2.2-.41.41-.41.61h-.2v.2c-.13,0-.2.07-.2.2-.2.2-.41.41-.61.81-.2.41-.61,1.01-1.01,1.42v.2c-.81.81-1.42,1.42-2.43,1.22-.81-.41-.81-1.42-.2-2.64l.2-.2c.2-.41.41-1.01.81-1.42l1.83-1.83h-.02Z"/>
      <path class="st10" d="M15.22,11.16c.61-.61,1.42-1.01,2.03-1.42s1.01-.61,1.42-.81c1.01-.41,2.03-.41,2.43,0,.61.61,0,1.22-1.01,1.83,0,.2-.2.2-.2.2-.41.2-.61.41-1.01.61-.41.2-.61.41-.81.61s-.41.2-.61.41c-.2.2-.41.41-.61.41v.2h-.2c0,.13-.07.2-.2.2,0,.41-.2.61-.41.81-.41.61-.61,1.01-1.01,1.42v.2c-.81,1.01-1.42,1.62-2.43,1.22-.81-.41-.81-1.22-.2-2.43l.2-.2c.2-.41.61-1.01.81-1.42l1.83-1.83h-.02Z"/>
      <path class="st10" d="M15.22,11.16c.61-.61,1.42-1.01,2.03-1.42.41-.41,1.01-.61,1.42-.61v-.2c1.01-.41,2.03-.41,2.43,0,.61.61,0,1.22-1.01,1.83-.2,0-.2.2-.41.2-.2.2-.61.41-.81.61-.41.2-.61.41-1.01.61-.2,0-.41.2-.61.41-.2,0-.2.2-.41.41l-.2.2-.2.2c-.2.2-.41.61-.41.81-.41.41-.61,1.01-1.01,1.42l-.2.2c-.61.81-1.42,1.42-2.23,1.22-.81-.41-.61-1.42-.2-2.43l.2-.2c.2-.61.61-1.01,1.01-1.42.41-.61,1.01-1.22,1.62-1.83h0Z"/>
      <path class="st10" d="M15.22,11.16c.61-.61,1.42-1.01,2.03-1.42.41-.2.81-.61,1.22-.61.13,0,.2-.07.2-.2,1.01-.41,1.83-.41,2.43,0,.61.61-.2,1.22-1.22,1.83l-.2.2c-.41.2-.61.41-1.01.61-.2.2-.61.2-.81.41-.2.2-.41.41-.61.41-.2.2-.41.41-.61.61v.2c-.13,0-.2.07-.2.2-.2.2-.41.41-.61.61-.2.61-.61,1.01-.81,1.42,0,.2-.2.2-.2.2-.61,1.01-1.42,1.62-2.23,1.22-.81-.2-.61-1.22,0-2.43v-.2c.2-.41.61-.81,1.01-1.22.41-.61,1.01-1.22,1.62-1.83h0Z"/>
      <path class="st10" d="M15.22,11.16c1.01-.81,2.23-1.62,3.25-2.03,1.22-.61,2.03-.61,2.43-.2.61.61,0,1.22-1.01,1.83s-2.43,1.22-3.25,2.03c-.61.81-1.22,1.83-1.83,2.84-.61.81-1.42,1.62-2.23,1.22-.81-.41-.61-1.42,0-2.43s1.62-2.23,2.64-3.25h0Z"/>
      <path class="st10" d="M38.95,9.94h-1.22l-3.04,10.35-3.45-10.35h-1.22l-3.04,10.55-3.25-10.55h-1.83c2.23,6.49,2.84,8.93,3.85,12.38h1.22l3.25-10.14,3.45,10.14h1.22s2.43-8.32,4.06-12.38Z"/>
      <path class="st10" d="M44.63,18.46c0-3.25-1.62-4.06-3.45-4.06-2.23,0-3.85,1.62-3.85,4.06s1.62,4.26,4.06,4.26c1.83,0,2.64-.81,2.84-1.01v-.81c-1.01,1.01-1.83,1.22-2.43,1.22-1.83,0-2.84-1.42-3.04-3.65h5.88-.01ZM43.41,17.85h-4.46c0-1.83,1.01-3.04,2.23-3.04s2.23,1.22,2.23,3.04Z"/>
      <g>
        <g>
          <path class="st44" d="M103.06,13.19v-3.25h-3.04v3.25h-9.94v12.98h9.94v5.07h3.04v-5.27h6.9c2.03,0,2.84-1.42,2.84-3.04v-9.74h-9.74ZM100.02,23.54h-7.1v-8.12h7.1v8.12ZM110.16,21.92c0,.81-.41,1.62-1.62,1.62h-5.48v-7.91h7.1s0,6.29,0,6.29Z"/>
          <path class="st44" d="M117.67,10.14v20.9h19.07c1.22,0,2.84-.61,2.84-2.43V10.14h-21.91,0ZM131.26,12.37h1.22l.61,1.42h-1.83v-1.42ZM129.23,25.76l-.41-1.83c-2.43.41-6.49.81-7.91,1.01l.41,2.23c1.22,0,5.48-.41,7.3-.81-.41.61-1.22,1.22-1.22,1.22l1.62,1.01h-8.72V12.38h8.72v1.42h-8.11v2.03h8.11c.2,2.03.81,6.09,2.03,7.91-.61.81-1.22,1.62-1.83,2.03h.01ZM135.11,28.6h-5.48c.61-.41,2.03-2.03,2.43-2.84.41.41.61.81,1.62,2.03,1.01,1.01,2.23,0,2.84-.61-1.22-.81-2.23-2.03-3.04-3.25,1.42-2.03,2.43-4.67,2.84-6.69l-2.23-.41c-.41,1.62-1.01,3.25-1.62,4.46-.41-1.01-1.01-3.85-1.22-5.48h3.45c1.42,0,1.62-.61,2.03-1.62v12.58c0,1.62-.81,1.83-1.62,1.83ZM136.73,13.79h-1.22l-.61-1.42h1.83v1.42Z"/>
          <path class="st44" d="M120.91,23.53h6.09c1.22,0,2.03-.61,2.03-1.83v-4.87h-8.11v6.69h0ZM123.34,19.07h3.04v2.43h-3.04v-2.43Z"/>
          <path class="st44" d="M147.69,9.74c-.81,4.46-2.64,7.71-4.46,10.14l2.43,1.01.41-.61v11.16h2.43v-15.62c.81-1.62,1.42-4.46,1.62-5.48l-2.43-.61h0Z"/>
          <path class="st44" d="M164.73,12.38c1.22,0,1.62-1.22,1.62-2.23h-14.61v2.23h12.99Z"/>
          <path class="st44" d="M165.95,16.84h-14.61v2.23h12.98c1.22,0,1.62-1.22,1.62-2.23h.01Z"/>
          <path class="st44" d="M151.34,22.11h12.98c1.22,0,1.62-1.01,1.62-2.23h-14.61v2.23h.01Z"/>
          <path class="st44" d="M150.13,13.39l-.2,2.43h16.43c1.22,0,1.62-1.22,1.62-2.43h-17.85Z"/>
          <path class="st44" d="M151.34,31.24h12.78c1.62,0,2.23-1.01,2.23-2.43v-5.68h-15.01v8.11ZM154.18,25.56h9.33v2.64c0,.41-.2.61-.81.61h-8.52v-3.25Z"/>
          <path class="st44" d="M179.54,12.58c1.22,0,1.62-1.22,1.62-2.23h-7.3v2.23h5.68Z"/>
          <path class="st44" d="M180.96,16.84h-7.3v2.03h5.68c1.22,0,1.62-1.01,1.62-2.03h0Z"/>
          <path class="st44" d="M173.66,22.11h5.68c1.22,0,1.62-1.22,1.62-2.23h-7.3v2.23h0Z"/>
          <path class="st44" d="M172.65,16.03h8.32c1.22,0,1.62-1.22,1.62-2.23h-9.94v2.23Z"/>
          <path class="st44" d="M173.05,30.84h6.69c1.62,0,2.23-1.01,2.23-2.23v-5.68h-8.93v7.91h0ZM175.69,25.36h3.65v2.43c0,.41,0,.81-.61.81h-3.04v-3.25h0Z"/>
          <path class="st44" d="M188.67,27.39v-6.9h5.68c1.62,0,2.03-1.22,2.03-2.43h-7.51v-4.87h5.48c1.22,0,1.62-1.22,1.62-2.23h-12.98v2.43h3.04v4.87h-3.04v2.23h3.04v8.32c0,1.22.81,2.03,1.83,2.03h5.88c2.03,0,2.23-1.42,2.23-2.43h-6.29c-.61,0-1.01-.41-1.01-1.01h0Z"/>
          <path class="st44" d="M224.99,16.64c-4.67-1.83-8.72-4.06-11.77-6.69h-2.64c-2.03,2.64-5.88,4.87-10.96,6.9,0,.41,1.22,2.23,2.43,1.83.81-.2,1.62-.61,1.62-.61,0,0,1.22-.61,1.42-.61v1.01h5.68v2.43h-9.33v2.23h9.33v5.88h-2.03c0-.2-.2-1.01-.2-1.01-.61-1.22-1.22-2.64-2.03-4.06l-2.43.81v.2c.41.61,1.22,2.03,1.83,4.06h-4.87v2.23h20.69c.41,0,.81-.2,1.22-.41.61-.61.61-1.62.61-1.83h-4.87c.41-1.01,1.01-2.23,1.62-3.65l.2-.61-2.64-1.01v.2c-.61,1.62-1.42,3.45-2.23,5.07h-2.03v-5.88h7.51c.61,0,1.01-.2,1.22-.41.61-.61.61-1.22.61-1.62v-.2h-9.33v-2.43h4.26c.81,0,1.22-1.01,1.42-1.22.2,0,1.62.81,1.62.81,0,0,1.01.41,1.22.61,2.03.2,2.84-1.83,2.84-1.83v-.2h.01ZM217.48,16.03h-10.14c1.62-.81,3.25-2.03,4.87-3.65,1.62,1.42,3.45,2.64,5.27,3.65Z"/>
          <path class="st44" d="M235.13,19.07l-1.01.41s-.81.41-1.01.61v-3.65h.61c1.01,0,1.42-1.01,1.42-1.62v-.61h-2.03v-4.26h-2.64v4.26h-2.84v2.23h2.84v4.46l-1.42.41-1.42.2h-.2l.41,2.43.41-.2c.81,0,1.62-.2,2.23-.41v4.87c0,.61-.2.81-.61.81h-2.03s-.2.2-.2.41c0,.41.2.81.41,1.42.2.2.61.41.81.41h1.22c1.22,0,2.03-.2,2.43-.61s.61-1.01.61-1.83v-6.29c0-.2,1.22-.61,1.22-.61l1.22-.61-.41-2.23h-.02ZM237.97,22.32c1.83-.61,2.64-1.42,3.45-2.43s1.42-2.64,1.62-4.46l-2.64-.2c-.2,1.62-.61,2.84-1.42,3.65-.61.61-1.22,1.01-2.23,1.22l1.22,2.23h0ZM251.77,29.01h-6.9v-3.45h4.06c1.22,0,1.83-1.01,1.83-1.83l.2-.41h-14.61v2.23h5.68v3.45h-6.69v2.23h14.4c1.01,0,1.83-.61,2.03-1.62v-.61h0ZM238.58,14.61h10.14v2.64h2.64v-3.25c0-.61-.41-1.62-1.83-1.62h-4.46v-2.03h-2.84v2.03h-6.29v4.87h2.64s0-2.64,0-2.64ZM247.71,19.28c-.61,0-.81-.2-.81-.41v-3.45h-2.64v3.25c0,1.22.2,2.03.81,2.43.41.2,1.01.41,1.83.41h3.04c1.22,0,1.42-.81,1.62-1.42v-.81h-3.85,0Z"/>
        </g>
        <path class="st44" d="M101.44,55.59h-5.88c-1.62,0-2.84-.61-3.85-2.03-1.01-1.22-1.62-2.84-1.62-4.87s.41-3.85,1.42-5.07c1.01-1.22,2.43-1.83,4.06-1.83h5.88v2.43h-5.68c-1.01,0-1.83.41-2.43,1.22-.81,1.01-1.01,2.03-1.01,3.45,0,1.22.2,2.23,1.01,3.04.61.81,1.42,1.22,2.43,1.22h5.68v2.43h0Z"/>
        <path class="st44" d="M138.97,55.59h-6.09c-1.62,0-2.84-.61-3.85-2.03-1.01-1.22-1.42-2.84-1.42-4.87s.41-3.85,1.42-5.07,2.23-1.83,3.85-1.83h6.09v2.43h-5.68c-1.01,0-1.83.41-2.64,1.22-.61,1.01-1.01,2.03-1.01,3.45,0,1.22.41,2.23,1.01,3.04.81.81,1.62,1.22,2.64,1.22h5.68v2.43h0Z"/>
        <path class="st44" d="M126.59,51.73c0,.61,0,1.01-.2,1.62-.81,1.62-2.03,2.23-4.06,2.23h-7.51v-13.8h7.51c1.83,0,3.25.81,3.85,2.23.41.61.41,1.22.41,1.83,0,1.22-.41,2.23-1.01,3.04.61.61,1.01,1.62,1.01,2.84h0ZM124.76,45.85c0-.61-.41-1.01-.81-1.22-.41-.2-.81-.41-1.42-.41h-5.88v9.13h5.88c.61,0,1.01-.2,1.42-.41.41-.2.81-.81.81-1.22,0-.61-.41-1.01-.81-1.42-.41-.2-1.01-.2-1.42-.2h-4.87v-2.43h4.87c.61,0,1.01-.2,1.42-.41.41-.2.81-.81.81-1.42h0Z"/>
        <polygon class="st44" points="113.41 44.23 109.35 44.23 109.35 55.59 107.12 55.59 107.12 44.23 103.06 44.23 103.06 41.79 113.41 41.79 113.41 44.23"/>
        <path class="st44" d="M147.9,55.59h-2.03v-13.8h2.03v13.8ZM156.62,55.59h-2.03v-5.68h-6.09v-2.43h6.09v-5.68h2.03v13.8h0Z"/>
        <path class="st44" d="M172.04,48.69c0,2.03-.41,3.65-1.42,5.07-1.01,1.22-2.23,1.83-3.85,1.83h-3.04c-1.42,0-2.84-.61-3.85-1.83-1.01-1.42-1.42-3.04-1.42-5.07s.41-3.65,1.42-5.07c1.01-1.22,2.23-1.83,3.85-1.83h3.04c1.62,0,2.84.61,3.85,1.83,1.01,1.42,1.42,3.04,1.42,5.07ZM170.21,48.89c0-1.42-.2-2.43-1.01-3.45-.61-.81-1.42-1.22-2.43-1.22h-3.04c-1.01,0-1.83.41-2.43,1.22-.81,1.01-1.01,2.03-1.01,3.45,0,1.22.2,2.23,1.01,3.04.61.81,1.42,1.42,2.43,1.42h3.04c1.01,0,1.83-.61,2.43-1.42.81-.81,1.01-1.83,1.01-3.04Z"/>
        <polygon class="st44" points="182.79 55.59 173.66 55.59 173.66 41.79 175.69 41.79 175.69 53.36 182.79 53.36 182.79 55.59"/>
        <path class="st44" d="M195.98,48.69c0,2.03-.41,3.65-1.42,5.07-1.01,1.22-2.43,1.83-3.85,1.83h-6.09v-13.8h6.09c1.62,0,2.84.61,3.85,1.83,1.01,1.42,1.42,3.04,1.42,5.07ZM194.15,48.89c0-1.42-.2-2.43-1.01-3.45-.61-.81-1.42-1.22-2.43-1.22h-4.06v9.13h4.06c1.01,0,1.83-.61,2.43-1.42.81-.81,1.01-1.83,1.01-3.04Z"/>
        <rect class="st44" x="198.21" y="41.79" width="2.23" height="14"/>
        <path class="st44" d="M213.83,54.57c0,.81-.2,1.22-.61,1.22s-.81-.2-1.22-.81l-6.69-8.93v9.54h-1.83v-12.58c0-.41,0-.61.2-.81,0-.2.2-.41.41-.41.41,0,.81.2,1.22.81l6.69,8.93v-9.74h1.83v12.78Z"/>
        <path class="st44" d="M228.03,55.59h-6.69c-1.62,0-2.84-.61-3.85-1.83-1.01-1.42-1.42-3.04-1.42-5.07s.41-3.65,1.42-5.07c1.01-1.22,2.23-1.83,3.85-1.83h6.09v2.43h-5.88c-1.01,0-1.83.41-2.43,1.22-.61,1.01-1.01,2.03-1.01,3.45,0,1.22.41,2.23,1.01,3.04.61.81,1.42,1.42,2.43,1.42h4.67v-3.04h-5.07v-2.23h6.9v7.51h-.02Z"/>
      </g>
    </g>
  </g>
</svg>