<?xml version="1.0" encoding="UTF-8"?>
<svg id="layer" xmlns="http://www.w3.org/2000/svg" version="1.1" xmlns:xlink="http://www.w3.org/1999/xlink" viewBox="0 0 652 652">
  <!-- Generator: Adobe Illustrator 29.8.3, SVG Export Plug-In . SVG Version: 2.1.1 Build 3)  -->
  <defs>
    <style>
      .st0 {
        fill: #4d4d4c;
      }

      .st1 {
        fill: #fff;
      }

      .st2 {
        fill: url(#Gradiente_sem_nome_1644);
      }

      .st3 {
        fill: url(#Gradiente_sem_nome_1641);
      }

      .st4 {
        fill: url(#Gradiente_sem_nome_1643);
      }

      .st5 {
        fill: #353535;
      }

      .st6 {
        fill: url(#Gradiente_sem_nome_164);
      }

      .st7 {
        fill: #7f7f7f;
      }

      .st8 {
        fill: url(#Gradiente_sem_nome_1642);
      }
    </style>
    <linearGradient id="Gradiente_sem_nome_164" data-name="Gradiente sem nome 164" x1="101.07" y1="325.15" x2="196.48" y2="325.15" gradientUnits="userSpaceOnUse">
      <stop offset="0" stop-color="#9f9f9f"/>
      <stop offset="1" stop-color="#1d1d1b"/>
    </linearGradient>
    <linearGradient id="Gradiente_sem_nome_1641" data-name="Gradiente sem nome 164" x1="70.7" y1="336.4" x2="178.11" y2="336.4" xlink:href="#Gradiente_sem_nome_164"/>
    <linearGradient id="Gradiente_sem_nome_1642" data-name="Gradiente sem nome 164" x1="57.5" y1="326.8" x2="86.65" y2="326.8" xlink:href="#Gradiente_sem_nome_164"/>
    <linearGradient id="Gradiente_sem_nome_1643" data-name="Gradiente sem nome 164" x1="148" y1="327.99" x2="207.66" y2="327.99" xlink:href="#Gradiente_sem_nome_164"/>
    <linearGradient id="Gradiente_sem_nome_1644" data-name="Gradiente sem nome 164" x1="84.19" y1="360.3" x2="127.82" y2="360.3" xlink:href="#Gradiente_sem_nome_164"/>
  </defs>
  <rect class="st1" x="26.3" y="208.6" width="148.9" height="98.5"/>
  <g>
    <path class="st0" d="M139.6,251.2l7.4-18.9,7.3,18.9h19.2l-14.7,11.9,5.4,19-17.2-11.2-17.3,11.1,6.3-19-15.6-11.9,19.2.1ZM126.6,261.1l-14.7,11.9,5.4,19-17.3-11.3-17.2,11.2,6.3-19-15.6-11.9h19.2l7.4-18.9,7.3,18.9,19.2.1ZM79.4,227.6l-14.7,11.9,5.4,19-17.2-11.2-17.2,11.2,6.3-19-15.6-11.9h19.2l7.4-18.9,7.3,18.9h19.1ZM107.3,217.3h19.2l-14.7,11.9,5.4,19-17.2-11.2-17.2,11.2,6.3-19-15.6-11.9h19.2l3.4-8.7H26.3v62.7h19.1l7.4-18.9,7.3,18.9h19.2l-14.7,11.9,3.8,13.3c-7.9-3.9-17.7-8.9-26.6-13.3l-15.5-11.9v82.7s10,7.3,15.2,10.9c1.7,1.2,4.3,3.3,6.2,1.8,4.3-3.6,13.8-16.5,18.9-26.7,2.3-4.5,5.2-10,7.5-16.3.9-2,2.2-6.4,2.8-8.8.7-2.4,1.3-5,1.6-7.2l6.3,3.4,34.1-9,28.2-6.3,11.8,8.3,19.6,4.1,50.9-31.6,6.4-20.4,67.1-13.3,24.1-34.5H104.2l3.1,8.9Z"/>
    <path class="st0" d="M56.9,394.5l-1-7.1h-29.8c-.3,0-.3.5,0,.5.9,0,2.8,2.2,2.8,5.4v40.7c0,3.1-1.9,5.4-2.8,5.4-.3,0-.3.5,0,.5h12.7c.3,0,.3-.5,0-.5-.9,0-2.8-2.2-2.8-5.4v-20.1h9c3.1,0,5.4,1.9,5.4,2.8,0,.3.5.3.5,0v-10c0-.3-.5-.3-.5,0,0,.9-2.2,2.8-5.4,2.8h-9v-16.7c1.6-.5,4.4-.8,7.3-.8,6.3,0,10.9.8,13,2.5.2.3.6.5.6,0M66.6,391.3c0-2.4-2-4.4-4.4-4.4s-4.4,2-4.4,4.4,2,4.3,4.4,4.3c2.4-.1,4.4-2,4.4-4.3M56.5,439.8h12.7c.3,0,.3-.5,0-.5-.9,0-2.8-2.2-2.8-5.4v-32.9h-9.9c-.3,0-.3.5,0,.5.9,0,2.8,2.2,2.8,5.4v27.1c0,3.1-1.9,5.4-2.8,5.4-.3,0-.3.4,0,.4M93.8,407.7c.3.2.5.1.5-.2v-7c-4.8-.5-10,3.4-11.5,6.3v-5.8h-9.8c-.3,0-.3.5,0,.5.9,0,2.8,2.2,2.8,5.4v27.1c0,3.1-1.9,5.4-2.8,5.4-.3,0-.3.5,0,.5h12.7c.3,0,.3-.5,0-.5-.9,0-2.8-2.2-2.8-5.4v-17.7c0-4.4,2.9-9.4,7.6-9.4.9-.1,2-.1,3.3.8M126.1,429c.6-7.8-5.9-9.6-12.2-12.1-4.8-2-9.9-3.4-9.7-7.5.1-3.6,4.2-4.8,8.1-4.8,4.1,0,7.9,2.2,9.6,3.3.4.3.5.1.5-.4v-5.5c-2.2-.9-6.7-1.9-10.9-1.9-8,0-15.3,3.8-15.3,11.2,0,5.6,5.1,7.9,10.2,10s13,4.1,12.5,8.5c-.7,4.8-5.6,6.3-10.3,6.3-5.4,0-11.6-3-13.8-4.6-.3-.1-1-.5-.7.4l1.4,6.2c1.7.9,8.6,2.8,12.9,2.8,8.4-.1,17.1-3.6,17.7-11.9M146.7,405l1.2-4h-8.9v-9h-.4c-3.7,4.4-7.5,8.4-11.9,12.4v.6h5v25.3c0,6.9,4.5,10.5,10,10.5,1.4,0,2.5-.2,4.1-.5l1.9-4.8c.1-.2.2-.8-.4-.5-4.9,2.4-8.5.7-8.5-6.5v-23.5h7.9ZM216.1,387.9c.3,0,.3-.5,0-.5h-10.6c-.3,0-.3.5,0,.5.9,0,2.8,2.2,2.8,5.4v31.4l-31.7-37.3h-10.3c-.3,0-.3.5,0,.5.9,0,2.8,2.2,2.8,5.4v40.7c0,3.1-1.9,5.4-2.8,5.4-.3,0-.3.5,0,.5h10.6c.3,0,.3-.5,0-.5-.9,0-2.8-2.2-2.8-5.4v-38.9l38.2,44.8,1,.9v-47.5c0-3.2,1.9-5.4,2.8-5.4M247.1,425.9c0,5.6-6.1,10.4-11.9,10.4-3.8,0-7.4-2.9-7.4-7.5,0-5.4,3.4-6.6,7.5-7.7,4.8-1.3,7.2-1.5,11.8-3.1v7.9h0ZM259,436.3c-.4.3-4.8.7-4.8-3.7v-18.6c0-9.3-4.5-13.9-15.4-13.9-7.8,0-12.4,1.4-13.5,1.7l-2,8.2c-.1.3.1.5.3.2.9-1,5.1-5.8,13.8-5.8,5.1,0,9.4,1.4,9.4,5.8,0,5.5-7.7,5.7-13.6,6.7-7.1,1.3-13.4,4.5-13.4,12.4,0,6.7,7.1,11.5,14.1,11.5,8.8,0,11.9-3.9,13.5-5.6.6,3,3.5,5.6,8.3,5.6l3.5-4.4c.2-.2,0-.3-.2-.1M278.2,405l1.2-4h-8.9v-9h-.4c-3.7,4.4-7.5,8.4-11.9,12.4v.6h5v25.3c0,6.9,4.5,10.5,10,10.5,1.4,0,2.5-.2,4.1-.5l1.9-4.8c.1-.2.2-.8-.4-.5-4.9,2.4-8.5.7-8.5-6.5v-23.5h7.9ZM290.9,391.3c0-2.4-2-4.4-4.4-4.4s-4.4,2-4.4,4.4,2,4.3,4.4,4.3c2.4-.1,4.4-2,4.4-4.3M280.8,439.8h12.7c.3,0,.3-.5,0-.5-.9,0-2.8-2.2-2.8-5.4v-32.9h-9.9c-.3,0-.3.5,0,.5.9,0,2.8,2.2,2.8,5.4v27.1c0,3.1-1.9,5.4-2.8,5.4-.3,0-.3.4,0,.4M327.6,420.5c0,10-5.1,15.9-12,15.9s-12-6-12-15.9,5.5-15.9,12-15.9,12,5.9,12,15.9M335.9,420.4c0-11.1-9.2-20.4-20.4-20.4s-20.3,9.2-20.3,20.4,9.2,20.4,20.3,20.4,20.4-9.2,20.4-20.4M366.1,439.8h12.7c.3,0,.3-.5,0-.5-.9,0-2.8-2.2-2.8-5.4v-18.5c0-10.1-5.6-15.4-14.1-15.4-9.3,0-13.2,4.8-14,5.4v-4.4h-9.9c-.3,0-.3.5,0,.5.9,0,2.8,2.2,2.8,5.4v27.1c0,3.1-1.9,5.4-2.8,5.4-.3,0-.3.5,0,.5h12.7c.3,0,.3-.5,0-.5-.9,0-2.8-2.2-2.8-5.4v-18.5c0-5.8,5.2-10.2,10.7-10.2s10.3,3.3,10.3,10.2v18.5c0,3.1-1.9,5.4-2.8,5.4-.2,0-.2.4,0,.4M409.1,425.9c0,5.6-6.1,10.4-11.9,10.4-3.8,0-7.4-2.9-7.4-7.5,0-5.4,3.4-6.6,7.5-7.7,4.8-1.3,7.2-1.5,11.8-3.1v7.9ZM417.7,440.8l3.5-4.4c.2-.2,0-.3-.3-.1-.4.3-4.8.7-4.8-3.7v-18.6c0-9.3-4.5-13.9-15.4-13.9-7.8,0-12.4,1.4-13.5,1.7l-2,8.2c-.1.3.1.5.3.2.9-1,5.1-5.8,13.8-5.8,5.1,0,9.4,1.4,9.4,5.8,0,5.5-7.7,5.7-13.6,6.7-7.1,1.3-13.4,4.5-13.4,12.4,0,6.7,7.1,11.5,14.1,11.5,8.8,0,11.9-3.9,13.5-5.6.7,3,3.6,5.6,8.4,5.6M422.6,439.8h12.7c.3,0,.3-.5,0-.5-.9,0-2.8-2.2-2.8-5.4v-46.6h-9.9c-.3,0-.3.5,0,.5.9,0,2.8,2.2,2.8,5.4v40.8c0,3.1-1.9,5.4-2.8,5.4-.2,0-.2.4,0,.4M488.9,424.2c0,10.8-9.4,11-17.5,11-2,0-3.6-.2-5.4-.5v-20.4c2.2-.3,5.8-.3,8.2-.3,6.2,0,14.7.8,14.7,10.2M471.7,409.4c-2.2,0-4.6-.1-5.8-.4v-16.3c1.2-.5,4.1-.7,6.7-.7,5.4,0,11.2,1,11.2,8.7.1,7.6-6.7,8.7-12.1,8.7M496.7,424.2c0-10.2-9.4-13.4-13.7-13.8,4.1-1.2,8.9-6,8.9-11.9,0-11.4-14.6-11.1-16-11.1h-19.8c-.3,0-.3.5,0,.5.9,0,2.8,2.2,2.8,5.4v40.7c0,3.1-1.9,5.4-2.8,5.4-.3,0-.3.5,0,.5h22.5c3.5-.1,18.1-2,18.1-15.7M527.2,425.9c0,5.6-6.1,10.4-11.9,10.4-3.8,0-7.4-2.9-7.4-7.5,0-5.4,3.4-6.6,7.5-7.7,4.8-1.3,7.2-1.5,11.8-3.1v7.9ZM535.8,440.8l3.5-4.4c.2-.2,0-.3-.3-.1-.4.3-4.8.7-4.8-3.7v-18.6c0-9.3-4.5-13.9-15.4-13.9-7.8,0-12.4,1.4-13.5,1.7l-2,8.2c-.1.3.1.5.3.2.9-1,5.1-5.8,13.8-5.8,5.1,0,9.4,1.4,9.4,5.8,0,5.5-7.7,5.7-13.6,6.7-7.1,1.3-13.4,4.5-13.4,12.4,0,6.7,7.1,11.5,14.1,11.5,8.8,0,11.9-3.9,13.5-5.6.7,3,3.7,5.6,8.4,5.6M568.9,439.8h12.7c.3,0,.3-.5,0-.5-.9,0-2.8-2.2-2.8-5.4v-18.5c0-10.1-5.6-15.4-14.1-15.4-9.3,0-13.2,4.8-14,5.4v-4.4h-9.9c-.3,0-.3.5,0,.5.9,0,2.8,2.2,2.8,5.4v27.1c0,3.1-1.9,5.4-2.8,5.4-.3,0-.3.5,0,.5h12.7c.3,0,.3-.5,0-.5-.9,0-2.8-2.2-2.8-5.4v-18.5c0-5.8,5.2-10.2,10.7-10.2s10.3,3.3,10.3,10.2v18.5c0,3.1-1.9,5.4-2.8,5.4-.2,0-.2.4,0,.4M594.9,434v-46.6h-9.9c-.3,0-.3.5,0,.5.9,0,2.8,2.2,2.8,5.4v40.7c0,3.1-1.9,5.4-2.8,5.4-.3,0-.3.5,0,.5h12.7c.3,0,.3-.5,0-.5-.9,0-2.8-2.3-2.8-5.4M617.8,432.5l-13-17.1,7.2-7.1c4.8-4.5,8.8-6.8,9.8-6.8.3,0,.3-.5,0-.5h-12.3c-.3,0-.3.5,0,.5,1.5,0,1.7,2.2-3.5,6.8l-9.2,8.1v.5l12,15.7c3.8,4.8,2.6,6.8,1.6,6.8-.3,0-.3.5,0,.5h15.3c.3,0,.3-.5,0-.5-.9,0-4.2-2-7.9-6.9"/>
  </g>
  <g>
    <path class="st0" d="M182.9,334c-6.3-15.7-8.5-32.6-5.4-33.9,4.3-1.6,9.5,2.6,13.6,8.1,5.3,7.3,8.9,16.8,8.9,16.8,0,0,3.2,9.9,4.8,20.2,1.6,10.5.4,21.4-3.7,22.1-3.5-.5-12.9-17.9-18.2-33.3"/>
    <path class="st1" d="M178.6,305.8c-6.6,1.3-10.3-1.1-15.4-2.3-6.8-1.2-6.5-2.4-10.1-3-4.2-1.9-14.7-1.8-17-.7-7,3.3-12.1,1.6-18.2,3.6-2,1.2-5.5,6.9-7.8,9-2.4,1.2-6.1,3.9-7.8,5-.2,1.8,1.8,6.9,5.3,7.4,3.8,1.1,8.1.9,11.3-.1,3.5-.6,6-3.8,7.7-5.2,2.4.1,8.3-1.4,10.9-.8,2,1,10.6,8.4,10.6,8.4l21.5,18.6,5.2,5.7s15.2-11.1,19.7-11.3c2.1-2.9-4.9-26.2-15.9-34.3"/>
    <path class="st6" d="M175.6,352.5l-1.8-.2-5.2-5.6-21.4-18.5c-3.1-2.7-8.6-7.2-10.1-8.1-1.2-.2-3.8.1-6,.4-1.5.2-2.9.4-3.9.4-.3.2-.6.5-.9.8-1.7,1.6-4.1,3.9-7.1,4.4-3.3,1.1-8.1,1.2-11.8.1-4.4-.6-6.6-6.6-6.3-8.9l.6-1c.4-.3,1-.7,1.7-1.1,1.8-1.2,4.2-2.9,6.1-3.8,1-.9,2.2-2.5,3.4-4,1.7-2.2,3.2-4.2,4.6-5l.3-.1c2.8-.9,5.4-1.1,7.9-1.3,3.3-.2,6.4-.5,10.2-2.3,1.7-.8,5.6-.9,7.2-.9,1.7,0,7.4.1,10.8,1.5,1.5.3,2.4.7,3.4,1.1,1.3.6,2.7,1.2,6.5,1.9,1.5.3,2.8.7,4.1,1.1,2.4.7,4.6,1.5,7.4,1.5,1.1,0,2.2-.1,3.4-.3l1.1.2c11.2,8.3,18.9,32.4,16.1,36.2l-1,.6c-3.3,0-13.5,6.7-19.3,10.9M136,317.2c.7,0,1.3.1,1.8.2l.3.1c2.1,1.1,10,7.8,10.9,8.6l21.5,18.6,4.5,4.9c3.4-2.5,13.8-9.6,18.5-10.7.7-3.9-5.4-23.9-15.2-31.6-1.1.2-2.2.3-3.3.3-3.2,0-5.7-.8-8.2-1.6-1.2-.4-2.5-.8-3.8-1.1-4.1-.7-5.7-1.5-7.1-2.1-.9-.4-1.6-.7-2.9-.9l-.3-.1c-1.9-.8-5.7-1.4-9.8-1.4-3.1,0-5.3.3-6,.6-4.2,2-7.8,2.3-11.2,2.5-2.4.2-4.6.3-7,1.1-.9.6-2.4,2.6-3.7,4.3-1.3,1.7-2.7,3.4-3.8,4.5l-.3.2c-1.7.8-4.2,2.5-5.9,3.7-.4.3-.8.5-1.1.8.2,1.6,1.8,5,4.2,5.3,1.8.5,3.5.7,5.2.7,1.9,0,3.8-.3,5.4-.8,2.4-.4,4.3-2.2,5.9-3.7.5-.5,1-.9,1.4-1.3l.9-.3h.2c.9,0,2.3-.2,3.7-.4,1.7-.1,3.6-.4,5.2-.4"/>
    <path class="st1" d="M84.5,305c3.9,1.6,12.3,1.4,19.1-.7,3.9-1.2,9.9-3.9,14.2-5.9,4.3-2.1,7.5-4.2,12.3-3.7,5.5.6,9.1-.1,13.3-.5,5.7-1.2,9.4,3,11.1,4.8,2,2,8.3,4.5,8.3,4.5,0,0-15.6-2.8-18.6-3-3.1-.2-6.6.7-9.9,1.8-3.6,1.2-8.8,1.8-12.3,2-4.5-.2-6.7,5-10,8.7-1.7,1.9-4.5,2.6-6.8,4.4-.5.4-.9.7-.9,1.2.9,3.6,2.8,4.8,4.4,5.3,2.4.9,6.1.9,10.5-.7,3.8-1.2,5.3-3.1,7-5.2.5-.2,1.7,0,2.6,0,5.2-.1,6.7-2.1,11.6.5,4.3,2.8,7.6,6.1,10.7,8.6,3.1,2.7,9.3,8.5,13.6,12.5,3.3,3,9.9,9.3,11.8,12.4,2.5,5.4-5.4,11.6-10.4,7.6-2.7-2.1-17.8-15.9-17.8-15.9,0,0,12.8,11.6,15,13.6,3.5,3.8-3.1,12.9-10.2,8.7-5-4.1-14.1-11.8-14.1-11.8,0,0,8.8,7.5,12.1,10.2,2.8,3.4-2.7,11.3-8.5,8.3-5.3-3.9-12.2-9.2-12.2-9.2,0,0,6.7,5.1,10.2,7.7,3.5,3.8-1.7,9.5-8.1,6.4-3.7-1.5-8.9-6.6-17.8-10.4-5.6-1.5-20-9.9-29.5-19.1-6.6-5.2-9.3-5-13.4-7.4,6.4-8.2,12.8-29,12.7-35.7"/>
    <path class="st3" d="M136.1,380.1c-1.4,0-2.8-.3-4.2-1-1.5-.6-3.2-1.8-5.3-3.2-3.2-2.2-7.1-4.9-12.4-7.1-5.4-1.4-19.9-9.7-29.9-19.4-4.1-3.2-6.6-4.2-9-5.2-1.3-.5-2.7-1.1-4.2-2l-.4-2c6.1-8.1,12.5-28.7,12.4-35.1l1.9-1.3c1.5.6,3.9,1,6.7,1,3.8,0,8-.6,11.5-1.7,3.9-1.2,10-3.9,14-5.9.6-.3,1.2-.6,1.8-.9,3.5-1.7,6.8-3.4,11.2-2.9,1.4.2,2.7.2,4.1.2,2.3,0,4.3-.2,6.4-.4.8-.1,1.7-.2,2.6-.3.6-.1,1.3-.2,2.1-.2,4.9,0,8.2,3.5,9.8,5.1l.3.3c1.4,1.5,6.2,3.5,7.9,4.1l-.7,2.6c-5.4-1-16.1-2.8-18.4-2.9-2.6-.1-5.6.4-9.4,1.8-4,1.4-9.7,1.9-12.7,2.1h-.4c-2.4,0-4.1,2.3-6.1,5-.8,1.1-1.6,2.2-2.6,3.2-1.1,1.2-2.6,2-4.1,2.8-1,.5-2,1.1-2.9,1.8-.1.1-.2.2-.3.2.8,2.7,2.2,3.5,3.3,3.9,2.4.9,6,.6,9.6-.7,3.4-1.1,4.7-2.7,6.3-4.6l.1-.2.4-.4c.5-.3,1.3-.3,2.3-.2h.9c1.6,0,2.9-.3,4-.5,1-.2,2-.4,3-.4,1.7,0,3.2.5,5.1,1.5,3.2,2,5.7,4.3,8,6.3,1,.9,2,1.7,2.9,2.5,2.3,2,6.1,5.6,9.8,9l3.8,3.6c3.7,3.4,10.1,9.5,12.1,12.7,1.1,2.2.9,4.6-.5,6.7-1.6,2.6-4.6,4.3-7.5,4.3-1.5,0-2.9-.4-4.1-1.3-.1.6-.3,1.3-.6,2-1.2,2.8-4.2,5.6-8.1,5.6-1.3,0-2.5-.3-3.7-.9-.1.7-.3,1.5-.7,2.2-1.2,2.5-3.9,5-7.2,5-.7,0-1.5-.1-2.2-.4,0,.6-.2,1.1-.4,1.6-.8,2.5-3.3,4-6.3,4M73.8,340.5c.9.4,1.7.8,2.5,1.1,2.5,1,5.3,2.2,9.7,5.7,9.7,9.3,23.8,17.5,29,18.8,5.7,2.4,9.8,5.2,13.1,7.4,1.9,1.3,3.6,2.5,4.9,3,1.1.5,2.1.8,3.1.8,2.1,0,3.5-1.1,4-2.3.4-.9.2-1.9-.5-2.7l-2.3-1.8c-4-3-7.7-5.9-7.7-5.9l1.7-2.2s4.2,3.2,7.7,5.9c1.5,1.1,3,2.2,4.4,3.3.5.2,1.2.4,1.8.4,2.2,0,4-1.8,4.8-3.4.5-1,.8-2.4.1-3.3-3.4-2.8-12-10.1-12-10.1l1.8-2.1s9.1,7.7,14.1,11.8c.8.5,1.9.8,2.9.8,2.7,0,4.8-2.1,5.6-4,.6-1.4.6-2.8-.2-3.5l-2.8-2.5c-5.3-4.7-12.2-11-12.2-11l1.8-2,12.2,11c3.6,3.2,5,4.4,5.5,4.8,2.4,1.9,6.2.7,7.9-2,.5-.8,1.2-2.3.4-4-1.2-2-5.6-6.5-11.5-12l-3.8-3.6c-3.7-3.4-7.5-7-9.8-8.9-.9-.8-1.9-1.6-3-2.5-2.3-2-4.7-4.1-7.6-6-1.8-1-2.9-1.1-3.8-1.1-.8,0-1.6.2-2.5.3-1.2.2-2.7.5-4.5.5-.4,0-.7,0-1.1-.1h-.8c-1.7,2.1-3.4,4-7.3,5.3-4.2,1.5-8.5,1.8-11.4.7-2.6-.9-4.3-2.9-5.2-6.2v-.3c0-1.1.8-1.7,1.4-2.2,1.1-.8,2.2-1.5,3.3-2,1.3-.7,2.5-1.3,3.3-2.2.8-.9,1.6-2,2.4-3,2.2-3,4.5-6.1,8.3-6.1h.4c2.7-.2,8.1-.7,11.8-1.9,4.2-1.4,7.5-2.1,10.5-1.9,1.5.1,5.8.8,9.9,1.4-.3-.2-.5-.4-.7-.7l-.3-.3c-1.5-1.6-4.1-4.3-7.8-4.3-.6,0-1.1.1-1.7.2-1,.1-1.8.2-2.7.3-3.3.4-7,.6-11,.2-3.6-.4-6.3.9-9.7,2.6-.6.3-1.2.6-1.8.9-4.1,2-10.3,4.7-14.4,6-3.8,1.2-8.2,1.9-12.3,1.9-1.7,0-3.9-.1-5.9-.6-.8,7.8-6.3,25.1-12,33.6"/>
    <path class="st1" d="M70.7,326.8c4.6-10.4,6.8-22.4,6.9-25.8,1.2.5,6.3,2.9,7.6,3.4.4,4.6-2.5,17.1-6.6,26.6-3.7,8.5-8.4,17.6-11.2,21-.7.9-1.7.7-2.1.5-1.8-.9-5.7-3.2-7-3.9,2.6-2.5,7.8-11.1,12.4-21.8"/>
    <path class="st8" d="M66.2,354c-.6,0-1-.1-1.3-.2-1-.5-2.5-1.4-3.9-2.2-1.3-.8-2.6-1.5-3.2-1.8l-.3-2.2c2.4-2.4,7.6-11.1,12-21.4,4.7-10.6,6.7-22.5,6.8-25.4l1.9-1.2c.4.2,1.2.6,2.2,1,1.9.9,4.5,2,5.3,2.4l.9,1.1c.5,5.1-2.6,17.8-6.7,27.3-3.5,7.9-8.3,17.5-11.4,21.3-.5.9-1.4,1.3-2.3,1.3M66,351.3h.2c.2,0,.3-.1.3-.1,2.5-3.1,7-11.6,11-20.7,3.9-9.1,6.5-20.4,6.5-25.2-1.2-.5-3.1-1.4-4.7-2.1-.2-.1-.3-.2-.5-.2-.7,5.2-3,15.5-6.9,24.4-4.2,9.7-8.6,17.3-11.4,20.9.6.3,1.2.7,1.8,1,1.4.7,2.8,1.5,3.7,2h0"/>
    <path class="st1" d="M176.4,306c3.2.7,10.2,11,14.7,22.6,3.4,10.2,5.1,18.1,5.7,22.6.3,1.2.2,3.3,1.5,3,2.6-.8,5.3-2.6,6.9-3.2,5.2-5-10.2-49.8-19.3-49.1-1.9.7-8.1,3.3-9.5,4.1M148.9,325.4c3.9,3.5,6.7,6.1,9.1,7.8,4.4,2.5,11.8,2.3,15.1-1.4"/>
    <path class="st4" d="M198,355.5c-.4,0-.8-.1-1.1-.3-1-.7-1.1-1.9-1.3-3,0-.3-.1-.5-.1-.8-.6-3.8-2-11.6-5.7-22.4-4.6-11.8-11.4-21.1-13.7-21.7l-.3-2.5c.8-.4,2.9-1.3,5.1-2.3,1.8-.8,3.6-1.6,4.4-1.9l.5-.1c5.1-.4,10.2,8.8,13.7,16.5,5.2,11.7,10.9,30.9,6.7,34.9l-.4.3c-.6.2-1.3.6-2,1-1.4.8-3.2,1.7-5,2.3h-.8M179.3,306.2c4.2,3.7,9.7,13.2,13.1,21.9,3.7,11.1,5.2,19.1,5.8,22.9,0,.2.1.5.1.9,0,.2.1.5.1.8,1.3-.5,2.7-1.2,3.9-1.9.7-.4,1.4-.7,2-1,1.9-2.5-1.1-17.6-7.4-31.7-4.8-10.9-8.8-14.8-10.8-14.9-.9.4-2.5,1.1-4.2,1.9-.9.3-1.8.7-2.6,1.1M164.9,336.3c-2.7,0-5.5-.7-7.6-1.9-2.4-1.7-5.1-4.1-8.7-7.5l-.6-.6,1.8-2,.6.6c3.6,3.3,6.2,5.6,8.4,7.2,3.7,2.1,10.4,2.1,13.3-1.2l2,1.8c-2.2,2.5-5.7,3.6-9.2,3.6"/>
    <path class="st1" d="M99,351.7c1.8-3.5-6.8-9.1-9.1-6.5-2.6,2.4-6.8,8.6-1.9,12.1,5.5,4.4,9.3-3.5,11-5.6M108.4,358.6c2.6-3.6-6-10.5-9.6-6.1-1.9,2.4-7.8,7.3-1.9,11.6,2.5,1.7,4.5,1.9,6.2,1,2-1.9,4-4.6,5.3-6.5M116.4,367.3c.6-.8,2.1-2.2,2.3-3.8.7-3.1-6.7-8.5-9.9-4.9-2.2,3-7.8,8.1-2.1,11.8,5.1,3.4,7.2.2,9.7-3.1M126.6,368.7c-.3-2.2-4.7-6.4-7.9-4.1-2.5,2.8-3.5,4.4-4.5,6.5-.5,1.8-.1,4.5,4.2,4.8,1.8.2,3.7-.4,5.7-2.1,2.3-1.8,3-3.5,2.5-5.1"/>
  </g>
  <g>
    <path class="st2" d="M119.2,377.4h0c-.3,0-.6,0-.9-.1-2.2-.2-3.8-1-4.8-2.3-.5-.6-.7-1.4-.8-2.2-.6.3-1.4.4-2.1.4-1.4,0-3-.6-4.7-1.7-1.7-1.2-2.8-2.6-3-4.2,0-.2-.1-.4-.1-.7-.6.2-1.2.3-1.9.3-1.5,0-3.1-.6-4.9-1.8-1.8-1.3-2.8-2.8-3.1-4.5-.1-.3-.1-.7-.1-1-.6.2-1.1.3-1.7.3-1.4,0-2.8-.6-4.2-1.6-1.7-1.2-2.6-2.9-2.7-4.8-.2-3.8,2.8-7.7,4.6-9.3.4-.4,1.2-1,2.7-1,2.7,0,6.5,2.3,8.1,4.9.4.6.6,1.3.7,1.9.4-.1.9-.2,1.3-.2,3.2,0,6.5,2.5,7.7,4.9.3.5.5,1.1.6,1.6.5-.1.9-.2,1.5-.2,2.8,0,5.7,1.9,7.1,3.7.8,1,1.2,1.9,1.3,2.9h.6c3.4,0,6.7,3.5,7.2,5.8.7,2.2-.3,4.3-2.8,6.5-1.7,1.6-3.6,2.4-5.6,2.4M115.6,371.6c-.1.4-.2,1.2.3,1.9.6.8,1.8,1.1,2.8,1.2h.6c1.3,0,2.7-.6,4.1-1.8,1.6-1.4,2.3-2.6,2-3.6l-.1-.2c-.2-1.4-3.6-4.6-5.7-3.3-2.3,2.4-3.2,3.9-4,5.8M111.6,358.8c-.7,0-1.3.2-1.8.7-.2.3-.6.8-1,1.3-1.5,1.9-3.4,4.2-3.2,6.1.1.9.7,1.6,1.8,2.4,1.2.8,2.3,1.2,3.1,1.2,1.7,0,3-1.7,4.5-3.7l.2-.3c.1-.2.3-.4.5-.6.6-.7,1.4-1.7,1.5-2.5.1-.4-.1-1-.7-1.8-1.1-1.7-3.3-2.8-4.9-2.8M101.9,352.4c-.8,0-1.5.3-2,.9-.3.3-.6.7-1,1.2-.3.4-.7.7-1,1.1-.2.3-.5.6-.8,1-1,1.4-1.5,2.6-1.4,3.7.1.9.8,1.8,2,2.7,1.2.8,2.4,1.3,3.3,1.3.4,0,.9-.1,1.3-.3,2-1.8,4-4.7,5-6.2.4-.6.2-1.4-.1-1.9-1-1.9-3.4-3.5-5.3-3.5M91.7,345.8c-.2,0-.6,0-.7.2-1.7,1.6-4,4.7-3.8,7.3.1,1.1.6,2.1,1.7,2.8.9.7,1.7,1.1,2.5,1.1,1.2,0,2.4-.8,3.7-2.3.2-.3.5-.6.7-.9.4-.6.8-1.2,1.2-1.7.3-.5.6-.9.9-1.2.2-.5-.1-1.1-.4-1.5-1.1-2-4-3.8-5.8-3.8"/>
    <path class="st7" d="M304.2,265.7c0,6.1-1.6,6.6-7.6,6.5h-43.4c-12.5.3-21.3,3.4-23.6,14.3v-4c.3-4.1,1-6.4,3.9-9.4,1.5-1.5,5.2-6.3,19.8-6.4h38.8c7.6,0,11.8-.1,12.1-6.1v5.1M230.1,320.2c.4-5.6.2-11,4.1-15.4.8-.8,1.8-1.9,3.7-3.1,2.5-1.6,6.9-3.3,15.3-3.2h38.6c6.6,0,11.2.8,12.2-4.5v3.4c0,6.1-1.7,6.8-7.8,6.7h-43.4c-12.9,0-20.7,4.4-22.7,16.1M459.8,208.6h-133c-15.9,0-22.5,5-22.5,17.7,0,3.4.1,6.1.1,7.5,0,6.1-1.7,6.8-7.8,6.7h-43.4c-14.8,0-25,6.7-24.4,21.2v14.8c-6.3,3-46.5,21.7-51.3,23.7,19.7,5.6,31.1,53.6,24,67.1,4.1-2,27.5-13.5,27.5-13.5v-.1c2.4-1.2-.6-11,4.7-17,1.5-1.5,4.8-6.3,19.4-6.4h38.8c7.9,0,12.3.1,12.2-6.8,0-3.2-.1-5.1-.1-10.9.6-14.1,15.3-14.1,23.4-14.1h38.3c2.7-4.5,13.5-21.4,16.6-26.2h-55.8c-14.4,0-21.2,4.2-22.3,14.4v-6.2c.6-14.1,14.8-14,22.9-14h76.9c2.9-4.4,13.9-21.5,16.9-26.3-5.9,0-80.3.1-94.3.1-15.2,0-21.8,4.6-22.4,16.1v-7.5c.6-14.1,15.3-14.1,23.4-14.1h115.4c2.8-4.1,13.7-21.1,16.8-26.2"/>
  </g>
  <g>
    <polygon class="st5" points="387.4 272.3 394.6 272.3 394.6 273.4 391.6 273.4 391.6 281.1 390.4 281.1 390.4 273.4 387.4 273.4 387.4 272.3"/>
    <path class="st5" d="M402.9,281.1v-7.4h0l-2.5,7.4h-1.2l-2.5-7.4h0v7.4h-1.2v-8.8h1.7l2.5,7.5h0l2.5-7.5h1.7v8.8h-1Z"/>
  </g>
</svg>