<svg width="69" height="24" viewBox="0 0 69 24" fill="none" xmlns="http://www.w3.org/2000/svg">
<path d="M0.882812 5.73216L8.03549 4.75042V11.6627H0.882812M8.89701 4.61017L18.3738 3.22772V11.6026H8.89701M0.882812 12.392H8.03549V19.3242L0.882812 18.3225M8.89701 12.4841H18.3738V20.7788L8.89701 19.4364" fill="#545454" style="fill:#545454;fill:color(display-p3 0.3308 0.3308 0.3308);fill-opacity:1;"/>
<g clip-path="url(#clip0_4204_873)">
<path d="M40.7357 9.14156C40.6314 9.22251 38.7896 10.2603 38.7896 12.568C38.7896 15.2373 41.1332 16.1816 41.2033 16.205C41.1925 16.2625 40.831 17.4982 39.9677 18.7573C39.1979 19.8653 38.394 20.9714 37.1709 20.9714C35.9479 20.9714 35.6331 20.261 34.2213 20.261C32.8454 20.261 32.3562 20.9948 31.2374 20.9948C30.1187 20.9948 29.3382 19.9696 28.4407 18.7105C27.4011 17.232 26.5612 14.9351 26.5612 12.7551C26.5612 9.25848 28.8346 7.40405 31.072 7.40405C32.2608 7.40405 33.2518 8.18467 33.9982 8.18467C34.7087 8.18467 35.8166 7.35728 37.1691 7.35728C37.6817 7.35728 39.5235 7.40405 40.7357 9.14156ZM36.527 5.87697C37.0864 5.21326 37.4821 4.29234 37.4821 3.37142C37.4821 3.24372 37.4713 3.11421 37.4479 3.00989C36.5378 3.04406 35.4551 3.61604 34.8022 4.37328C34.2896 4.95605 33.8112 5.87697 33.8112 6.81048C33.8112 6.95078 33.8346 7.09108 33.8454 7.13604C33.9029 7.14684 33.9964 7.15943 34.09 7.15943C34.9065 7.15943 35.9335 6.61263 36.527 5.87697Z" fill="#545454" style="fill:#545454;fill:color(display-p3 0.3308 0.3308 0.3308);fill-opacity:1;"/>
</g>
<g clip-path="url(#clip1_4204_873)">
<path d="M58.4944 6.55172C58.4944 6.62278 58.4236 6.62278 58.4236 6.62278H58.3528C58.2821 6.62278 58.2821 6.55172 58.2113 6.48067C58.2113 6.48067 58.1406 6.40961 58.1406 6.33855C58.1406 6.2675 58.1406 6.2675 58.2113 6.2675L58.3528 6.33855C58.4236 6.40961 58.4944 6.48067 58.4944 6.55172ZM57.2206 5.84116C57.2206 5.48587 57.0791 5.2727 56.8668 5.2727C56.8668 5.2727 56.8668 5.34376 56.796 5.34376V5.48587H57.0083C57.0083 5.62799 57.0791 5.69904 57.0791 5.84116H57.2206ZM59.6974 5.48587C59.8389 5.48587 59.9097 5.62799 59.9804 5.84116H60.122C60.0512 5.7701 60.0512 5.69904 60.0512 5.62799C60.0512 5.55693 60.0512 5.48587 59.9804 5.41482C59.9097 5.34376 59.8389 5.2727 59.7681 5.2727C59.7681 5.2727 59.6974 5.34376 59.6266 5.34376C59.6266 5.41482 59.6974 5.41482 59.6974 5.48587ZM57.5744 6.62278C57.5037 6.62278 57.5037 6.62278 57.5037 6.55172C57.5037 6.48067 57.5037 6.40961 57.5744 6.33855C57.716 6.33855 57.7867 6.2675 57.7867 6.2675C57.8575 6.2675 57.8575 6.33855 57.8575 6.33855C57.8575 6.40961 57.7867 6.48067 57.6452 6.62278H57.5744ZM56.796 6.55172C56.513 6.40961 56.4422 6.19644 56.4422 5.84116C56.4422 5.62799 56.4422 5.48587 56.5837 5.34376C56.6545 5.20165 56.796 5.13059 56.9376 5.13059C57.0791 5.13059 57.1498 5.20165 57.2914 5.34376C57.3621 5.55693 57.4329 5.7701 57.4329 5.98327V6.12538H57.5037V6.05433C57.5744 6.05433 57.5744 5.91221 57.5744 5.62799C57.5744 5.41482 57.5744 5.20165 57.4329 4.98848C57.2914 4.77531 57.1498 4.63319 56.8668 4.63319C56.6545 4.63319 56.4422 4.77531 56.3714 4.98848C56.2299 5.2727 56.2016 5.48587 56.2016 5.84116C56.2016 6.12538 56.3007 6.40961 56.5837 6.69384C56.6545 6.62278 56.7253 6.62278 56.796 6.55172ZM65.6416 16.5707C65.7123 16.5707 65.7123 16.5423 65.7123 16.4783C65.7123 16.322 65.6416 16.1373 65.4293 15.9312C65.217 15.718 64.8632 15.583 64.4386 15.5262C64.3678 15.5191 64.2971 15.5191 64.2971 15.5191C64.2263 15.5049 64.2263 15.5049 64.1555 15.5049C64.0848 15.4978 63.9432 15.4836 63.8725 15.4693C64.0848 14.8085 64.1555 14.2259 64.1555 13.7142C64.1555 13.0037 64.014 12.5063 63.7309 12.0799C63.4479 11.6536 63.1648 11.4404 62.811 11.3694C62.7402 11.4404 62.7402 11.4404 62.7402 11.5115C63.0941 11.6536 63.4479 11.9378 63.6602 12.3642C63.8725 12.8616 63.9432 13.2879 63.9432 13.7853C63.9432 14.1832 63.8725 14.773 63.5894 15.5262C63.3064 15.6399 63.0233 15.9028 62.811 16.3149C62.811 16.3789 62.811 16.4144 62.8818 16.4144C62.8818 16.4144 62.9525 16.3504 63.0233 16.2296C63.1648 16.1089 63.2356 15.9881 63.3771 15.8673C63.5894 15.7465 63.7309 15.6825 63.9432 15.6825C64.2971 15.6825 64.6509 15.7323 64.8632 15.8317C65.1462 15.9241 65.2878 16.0236 65.3585 16.1373C65.4293 16.2439 65.5 16.3433 65.5708 16.4357C65.5708 16.5281 65.6416 16.5707 65.6416 16.5707ZM59.1313 6.2675C59.0605 6.19644 59.0605 6.05433 59.0605 5.91221C59.0605 5.62799 59.0605 5.48587 59.202 5.2727C59.3435 5.13059 59.4851 5.05953 59.6266 5.05953C59.8389 5.05953 59.9804 5.20165 60.122 5.34376C60.1927 5.55693 60.2635 5.69904 60.2635 5.91221C60.2635 6.2675 60.122 6.48067 59.8389 6.55172C59.8389 6.55172 59.9097 6.62278 59.9804 6.62278C60.122 6.62278 60.1927 6.69384 60.3342 6.76489C60.405 6.33855 60.4758 6.05433 60.4758 5.69904C60.4758 5.2727 60.405 4.98848 60.2635 4.77531C60.0512 4.56214 59.8389 4.49108 59.5558 4.49108C59.3435 4.49108 59.1313 4.56214 58.919 4.70425C58.7774 4.91742 58.7067 5.05953 58.7067 5.2727C58.7067 5.62799 58.7774 5.91221 58.919 6.19644C58.9897 6.19644 59.0605 6.2675 59.1313 6.2675ZM59.9804 7.40441C59.0605 8.04392 58.3528 8.32814 57.7867 8.32814C57.2914 8.32814 56.796 8.11497 56.3714 7.75969C56.4422 7.9018 56.513 8.04392 56.5837 8.11497L57.0083 8.54131C57.2914 8.82554 57.6452 8.96765 57.999 8.96765C58.4944 8.96765 59.0605 8.68343 59.7681 8.18603L60.405 7.75969C60.5465 7.61758 60.6881 7.47546 60.6881 7.26229C60.6881 7.19124 60.6881 7.12018 60.6173 7.12018C60.5465 6.97807 60.1927 6.76489 59.4851 6.55172C58.8482 6.2675 58.3528 6.12538 58.0698 6.12538C57.8575 6.12538 57.5037 6.2675 57.0083 6.55172C56.5837 6.83595 56.3007 7.12018 56.3007 7.40441C56.3007 7.40441 56.3714 7.47546 56.4422 7.61758C56.8668 7.97286 57.2914 8.18603 57.716 8.18603C58.2821 8.18603 58.9897 7.9018 59.9097 7.19124V7.33335C59.9804 7.33335 59.9804 7.40441 59.9804 7.40441ZM61.608 21.7579C61.8911 22.2922 62.3864 22.5608 62.9525 22.5608C63.0941 22.5608 63.2356 22.5395 63.3771 22.4969C63.5186 22.4684 63.6602 22.4187 63.7309 22.3618C63.8017 22.3121 63.8725 22.2624 63.9432 22.2055C64.0848 22.1558 64.0848 22.1203 64.1555 22.0847L65.3585 21.0402C65.6416 20.8135 65.9246 20.6153 66.2785 20.4433C66.5615 20.2728 66.8446 20.1591 66.9861 20.0951C67.1984 20.0383 67.3399 19.953 67.4814 19.8393C67.5522 19.7327 67.623 19.5977 67.623 19.4272C67.623 19.2211 67.4814 19.0648 67.3399 18.9511C67.1984 18.8374 67.0569 18.7593 66.9153 18.7095C66.7738 18.6598 66.6323 18.5461 66.42 18.3542C66.2785 18.1695 66.1369 17.9137 66.0662 17.5797L65.9954 17.1676C65.9246 16.9757 65.9246 16.8336 65.8539 16.7555C65.8539 16.7342 65.8539 16.727 65.7831 16.727C65.7123 16.727 65.5708 16.791 65.5 16.9118C65.3585 17.0326 65.217 17.1676 65.0755 17.3097C65.0047 17.4518 64.7924 17.5797 64.6509 17.7005C64.4386 17.8213 64.2263 17.8853 64.0848 17.8853C63.5186 17.8853 63.2356 17.7289 63.0233 17.4234C62.8818 17.196 62.811 16.9331 62.7402 16.6347C62.5987 16.5139 62.5279 16.4499 62.3864 16.4499C62.0326 16.4499 61.8911 16.8194 61.8911 17.5655V19.7754C61.8911 19.8393 61.8203 19.9814 61.8203 20.2017C61.7495 20.422 61.7495 20.6721 61.7495 20.9549L61.608 21.7437V21.7557M51.3472 21.3798C52.0053 21.4765 52.7625 21.6833 53.6187 21.9987C54.475 22.3114 54.9986 22.4748 55.1897 22.4748C55.685 22.4748 56.0955 22.2545 56.4351 21.8289C56.5059 21.6911 56.5059 21.5291 56.5059 21.3429C56.5059 20.6714 56.1025 19.8223 55.2958 18.792L54.8146 18.1453C54.7156 18.0103 54.5953 17.8043 54.4396 17.5271C54.291 17.25 54.1565 17.0369 54.0504 16.8876C53.9584 16.7242 53.8098 16.5608 53.6187 16.3973C53.4347 16.2339 53.2224 16.1273 52.9889 16.0705C52.6917 16.1273 52.4865 16.2268 52.3874 16.3618C52.2883 16.4968 52.2317 16.646 52.2176 16.8024C52.1963 16.9516 52.1539 17.0511 52.0831 17.1008C52.0124 17.1434 51.8921 17.179 51.7293 17.2145C51.6939 17.2145 51.6302 17.2145 51.5382 17.2216H51.3472C50.9721 17.2216 50.7174 17.2642 50.5829 17.3353C50.406 17.5414 50.314 17.7758 50.314 18.0245C50.314 18.1382 50.3423 18.3301 50.3989 18.6001C50.4555 18.863 50.4838 19.0762 50.4838 19.2254C50.4838 19.5167 50.3989 19.8081 50.222 20.0994C50.0451 20.4049 49.9531 20.6323 49.9531 20.7943C50.0239 21.07 50.4909 21.264 51.3472 21.3777M53.7036 14.9187C53.7036 14.4284 53.831 13.8883 54.0928 13.2488C54.3476 12.6093 54.6023 12.183 54.85 11.8987C54.8359 11.8277 54.8005 11.8277 54.7439 11.8277L54.6731 11.7566C54.4679 11.9698 54.2202 12.4672 53.923 13.1778C53.6258 13.8173 53.4701 14.407 53.4701 14.8405C53.4701 15.1602 53.5479 15.4374 53.6895 15.679C53.8452 15.9134 54.2202 16.2545 54.8146 16.688L55.5647 17.1783C56.3644 17.8746 56.789 18.3578 56.789 18.642C56.789 18.7912 56.7182 18.9405 56.5059 19.1039C56.3644 19.2744 56.1733 19.3597 56.0105 19.3597C55.9964 19.3597 55.9893 19.3739 55.9893 19.4094C55.9893 19.4165 56.0601 19.5587 56.2087 19.8358C56.5059 20.2408 57.1428 20.4398 57.9919 20.4398C59.5488 20.4398 60.7518 19.8002 61.6717 18.5212C61.6717 18.1659 61.6717 17.9457 61.6009 17.8533V17.5904C61.6009 17.1285 61.6717 16.7803 61.8132 16.553C61.9548 16.3256 62.0963 16.219 62.3086 16.219C62.4501 16.219 62.5916 16.2687 62.7332 16.3753C62.8039 15.8282 62.8039 15.3521 62.8039 14.9258C62.8039 14.2791 62.8039 13.7462 62.6624 13.2488C62.5916 12.8225 62.4501 12.4672 62.3086 12.183L61.884 11.5435C61.7425 11.3303 61.6717 11.1171 61.5302 10.9039C61.4594 10.6197 61.3886 10.4066 61.3886 10.0513C61.1763 9.69598 61.0348 9.3407 60.8225 8.98542C60.681 8.63013 60.5395 8.27485 60.3979 7.99062L59.7611 8.48802C59.0534 8.98542 58.4873 9.19859 57.9919 9.19859C57.5674 9.19859 57.2135 9.12753 57.0012 8.8433L56.5767 8.48802C56.5767 8.70119 56.5059 8.98542 56.3644 9.26964L55.9185 10.1223C55.7204 10.6197 55.6143 10.9039 55.593 11.1171C55.5647 11.2592 55.5435 11.4013 55.5293 11.4013L54.9986 12.4672C54.4254 13.533 54.1353 14.5207 54.1353 15.3379C54.1353 15.5013 54.1494 15.6719 54.1777 15.8424C53.8593 15.6221 53.7036 15.3166 53.7036 14.9187ZM58.7704 21.6406C57.8504 21.6406 57.1428 21.7657 56.6474 22.0137V21.9923C56.2936 22.4187 55.8973 22.639 55.3454 22.639C54.9986 22.639 54.4537 22.504 53.7178 22.2339C52.9748 21.9781 52.3166 21.782 51.7435 21.6527C51.6868 21.6364 51.5595 21.6122 51.3542 21.5795C51.1561 21.5475 50.9721 21.5148 50.8094 21.4822C50.6608 21.4502 50.4909 21.4019 50.3069 21.3365C50.13 21.2804 49.9885 21.2072 49.8823 21.1184C49.7847 21.0288 49.7366 20.9279 49.7366 20.8149C49.7366 20.7012 49.7606 20.5797 49.8088 20.4504C49.854 20.3723 49.9036 20.2941 49.9531 20.223C50.0026 20.1449 50.0451 20.0738 50.0734 20.0028C50.1159 19.9388 50.1442 19.8749 50.1725 19.8038C50.2008 19.7399 50.2291 19.6759 50.2432 19.5977C50.2574 19.5267 50.2716 19.4556 50.2716 19.3846C50.2716 19.3135 50.2432 19.1003 50.1866 18.7237C50.13 18.3542 50.1017 18.1198 50.1017 18.0203C50.1017 17.7076 50.1725 17.4589 50.3282 17.2813C50.4838 17.1036 50.6324 17.0113 50.7881 17.0113H51.6019C51.6656 17.0113 51.7647 16.9757 51.9133 16.8905C51.9628 16.7768 52.0053 16.6844 52.0336 16.5991C52.069 16.5139 52.0831 16.4499 52.0973 16.4215C52.1114 16.3789 52.1256 16.3362 52.1397 16.3007C52.168 16.251 52.2034 16.1941 52.253 16.1373C52.1963 16.0662 52.168 15.9738 52.168 15.8602C52.168 15.782 52.168 15.7109 52.1822 15.6683C52.1822 15.4125 52.3025 15.0501 52.5572 14.574L52.8049 14.1264C53.0101 13.7427 53.1658 13.4584 53.279 13.1742C53.3993 12.89 53.5267 12.4636 53.6682 11.8952C53.7815 11.3978 54.0504 10.9004 54.475 10.403L55.0057 9.76349C55.3737 9.33715 55.6143 8.98186 55.7487 8.69764C55.8832 8.41341 55.9539 8.05813 55.9539 7.7739C55.9539 7.63179 55.9185 7.20545 55.8407 6.49488C55.7699 5.78431 55.7346 5.07375 55.7346 4.43423C55.7346 3.93684 55.777 3.58155 55.869 3.22627C55.961 2.87099 56.1238 2.5157 56.3644 2.23148C56.5767 1.94725 56.8597 1.66302 57.2843 1.52091C57.7089 1.3788 58.2042 1.30774 58.7704 1.30774C58.9826 1.30774 59.1949 1.30774 59.4072 1.3788C59.6195 1.3788 59.9026 1.44985 60.2564 1.59197C60.5395 1.73408 60.8225 1.87619 61.0348 2.08936C61.3179 2.30253 61.5302 2.65782 61.7425 3.0131C61.884 3.43944 62.0255 3.86578 62.0963 4.43423C62.167 4.78952 62.167 5.1448 62.2378 5.6422C62.2378 6.06854 62.3086 6.35277 62.3086 6.56594C62.3793 6.77911 62.3793 7.06333 62.4501 7.41862C62.5209 7.70284 62.5916 7.98707 62.7332 8.20024C62.8747 8.48447 63.0162 8.76869 63.2285 9.05292C63.4408 9.40821 63.7239 9.76349 64.0069 10.1898C64.6438 10.9004 65.1391 11.682 65.4222 12.4636C65.776 13.1742 65.9883 14.0979 65.9883 15.0856C65.9883 15.5759 65.9176 16.052 65.776 16.5139C65.9176 16.5139 65.9883 16.5707 66.0591 16.6702C66.1298 16.7697 66.2006 16.9829 66.2714 17.3168L66.3421 17.8426C66.4129 17.999 66.4837 18.1482 66.696 18.2761C66.8375 18.404 66.979 18.5106 67.1913 18.5958C67.3328 18.6669 67.5451 18.7664 67.6867 18.8943C67.8282 19.0364 67.899 19.1856 67.899 19.3419C67.899 19.5835 67.8282 19.7612 67.6867 19.8891C67.5451 20.0312 67.4036 20.1307 67.1913 20.1946C67.0498 20.2657 66.7667 20.4078 66.3421 20.6082C65.9883 20.8185 65.6345 21.0736 65.2807 21.3756L64.573 21.9803C64.29 22.2574 64.0069 22.4563 63.7946 22.5771C63.5823 22.705 63.2993 22.769 63.0162 22.769L62.5209 22.7122C61.9548 22.5629 61.6009 22.2787 61.3886 21.8453C60.2564 21.7074 59.3365 21.6392 58.7704 21.6392" fill="#545454" style="fill:#545454;fill:color(display-p3 0.3308 0.3308 0.3308);fill-opacity:1;"/>
</g>
<defs>
<clipPath id="clip0_4204_873">
<rect width="14.6404" height="17.9867" fill="white" style="fill:white;fill-opacity:1;" transform="translate(26.5612 3.00989)"/>
</clipPath>
<clipPath id="clip1_4204_873">
<rect width="18.8233" height="22.1697" fill="white" style="fill:white;fill-opacity:1;" transform="translate(49.3889 0.918396)"/>
</clipPath>
</defs>
</svg>
