<svg width="37" height="37" viewBox="0 0 37 37" fill="none" xmlns="http://www.w3.org/2000/svg">
<rect x="1.71289" y="1.29199" width="33.5742" height="33.5742" rx="16.7871" fill="#FF492C"/>
<rect x="1.71289" y="1.29199" width="33.5742" height="33.5742" rx="16.7871" stroke="white" stroke-width="2.57422"/>
<g clip-path="url(#clip0_373_644)">
<path d="M22.7148 22.6267C23.4937 23.9929 24.2638 25.3435 25.0334 26.6927C21.6256 29.3299 16.3238 29.6486 12.399 26.6116C7.88237 23.114 7.14003 17.146 9.55815 12.85C12.3393 7.90865 17.5439 6.81584 20.8949 7.61716C20.8042 7.81617 18.7972 12.025 18.7972 12.025C18.7972 12.025 18.6386 12.0355 18.5488 12.0373C17.5584 12.0797 16.8206 12.3127 16.0299 12.7259C15.1624 13.1835 14.419 13.8489 13.8646 14.6639C13.3103 15.479 12.9618 16.4189 12.8498 17.4015C12.7329 18.398 12.8692 19.4082 13.2459 20.3366C13.5643 21.1216 14.0148 21.8187 14.6188 22.4072C15.5453 23.311 16.6478 23.8705 17.9258 24.0558C19.136 24.2314 20.2999 24.0576 21.3905 23.5035C21.7996 23.296 22.1476 23.0669 22.5544 22.7526C22.6063 22.7186 22.6523 22.6756 22.7148 22.6267Z" fill="white"/>
<path d="M22.7215 10.646C22.5238 10.4493 22.3405 10.2679 22.1581 10.0852C22.0492 9.97636 21.9444 9.8631 21.833 9.75686C21.793 9.71852 21.7461 9.66613 21.7461 9.66613C21.7461 9.66613 21.784 9.58477 21.8002 9.55141C22.0136 9.11856 22.348 8.80219 22.7447 8.5505C23.1833 8.27006 23.6943 8.12738 24.2132 8.14048C24.877 8.15365 25.4943 8.32076 26.0152 8.77087C26.3997 9.10305 26.5968 9.52448 26.6316 10.0276C26.6895 10.8763 26.342 11.5263 25.6521 11.9799C25.2468 12.2468 24.8096 12.4532 24.3712 12.6975C24.1295 12.8325 23.9228 12.951 23.6865 13.1951C23.4786 13.44 23.4685 13.6709 23.4685 13.6709L26.609 13.6669V15.0807H21.7614C21.7614 15.0807 21.7614 14.9841 21.7614 14.944C21.7429 14.2493 21.8231 13.5954 22.1378 12.9645C22.4274 12.3856 22.8773 11.9618 23.4178 11.6355C23.8342 11.3841 24.2725 11.1701 24.6897 10.9199C24.9471 10.7657 25.1289 10.5394 25.1275 10.2114C25.1275 9.92982 24.9248 9.6796 24.6353 9.60145C23.9526 9.41532 23.2577 9.71237 22.8964 10.3439C22.8437 10.4361 22.7898 10.5277 22.7215 10.646Z" fill="white"/>
<path d="M28.7975 21.1239L26.1509 16.5039H20.9136L18.25 21.1716H23.5258L26.1292 25.7696L28.7975 21.1239Z" fill="white"/>
</g>
<defs>
<clipPath id="clip0_373_644">
<rect width="20.5938" height="21.4013" fill="white" transform="translate(8.20312 7.37891)"/>
</clipPath>
</defs>
</svg>
