<svg width="24" height="24" viewBox="0 0 24 24" fill="none" xmlns="http://www.w3.org/2000/svg">
<rect width="24" height="24" rx="2" fill="#FFD741"/>
<rect width="16" height="16" transform="translate(4 4)" fill="white" fill-opacity="0.01" style="mix-blend-mode:multiply"/>
<path d="M12 5.5C9.35105 5.5 6.5 6.126 6.5 7.5V16.5C6.5 17.874 9.35105 18.5 12 18.5C14.649 18.5 17.5 17.874 17.5 16.5V7.5C17.5 6.126 14.649 5.5 12 5.5ZM12 6.5C14.8988 6.5 16.3974 7.21705 16.4984 7.5C16.3974 7.78295 14.8988 8.5 12 8.5C9.07935 8.5 7.5803 7.7722 7.5 7.5088V7.50635C7.5803 7.2278 9.07935 6.5 12 6.5ZM7.5 8.71385C8.56395 9.24755 10.3213 9.5 12 9.5C13.6787 9.5 15.4361 9.24755 16.5 8.71385V10.4936C16.4197 10.7722 14.9207 11.5 12 11.5C9.07495 11.5 7.57545 10.77 7.5 10.5V8.71385ZM7.5 11.7139C8.56395 12.2476 10.3213 12.5 12 12.5C13.6787 12.5 15.4361 12.2476 16.5 11.7139V13.4937C16.4197 13.7722 14.9207 14.5 12 14.5C9.07495 14.5 7.57545 13.77 7.5 13.5V11.7139ZM12 17.5C9.07495 17.5 7.57545 16.77 7.5 16.5V14.7139C8.56395 15.2476 10.3213 15.5 12 15.5C13.6787 15.5 15.4361 15.2476 16.5 14.7139V16.4937C16.4197 16.7722 14.9207 17.5 12 17.5Z" fill="#161616"/>
</svg>
