<svg width="24" height="25" viewBox="0 0 24 25" fill="none" xmlns="http://www.w3.org/2000/svg">
<rect y="0.5" width="24" height="24" rx="2" fill="#FFD741"/>
<rect width="16" height="16" transform="translate(4 4.5)" fill="white" fill-opacity="0.01" style="mix-blend-mode:multiply"/>
<path d="M18 5.5H12C11.7349 5.50026 11.4807 5.60571 11.2932 5.79319C11.1057 5.98066 11.0003 6.23486 11 6.5V11.5H6C5.73486 11.5003 5.48066 11.6057 5.29319 11.7932C5.10571 11.9807 5.00026 12.2349 5 12.5V19.5H19V6.5C18.9997 6.23488 18.8942 5.9807 18.7068 5.79323C18.5193 5.60576 18.2651 5.5003 18 5.5ZM8.5 18.5V15H10.5V18.5H8.5ZM18 18.5H11.5V14.5C11.5 14.3674 11.4473 14.2402 11.3536 14.1464C11.2598 14.0527 11.1326 14 11 14H8C7.86739 14 7.74021 14.0527 7.64645 14.1464C7.55268 14.2402 7.5 14.3674 7.5 14.5V18.5H6V12.5H12V6.5H18V18.5Z" fill="#161616"/>
<path d="M14 8.5H13V9.5H14V8.5Z" fill="#161616"/>
<path d="M17 8.5H16V9.5H17V8.5Z" fill="#161616"/>
<path d="M14 11.5H13V12.5H14V11.5Z" fill="#161616"/>
<path d="M17 11.5H16V12.5H17V11.5Z" fill="#161616"/>
<path d="M14 14.4998H13V15.4998H14V14.4998Z" fill="#161616"/>
<path d="M17 14.4998H16V15.4998H17V14.4998Z" fill="#161616"/>
<path d="M7.5 9.5001H5V10.4998H7.5V9.5001Z" fill="#161616"/>
<path d="M10 5.5H9V8H10V5.5Z" fill="#161616"/>
<path d="M6.70704 6.50001L6.00001 7.20705L7.79298 9.00002L8.50002 8.29299L6.70704 6.50001Z" fill="#161616"/>
</svg>
