<?xml version="1.0" encoding="UTF-8"?>
<svg id="Camada_1" xmlns="http://www.w3.org/2000/svg" version="1.1" viewBox="0 0 116.63 48.03">
  <!-- Generator: Adobe Illustrator 29.8.3, SVG Export Plug-In . SVG Version: 2.1.1 Build 3)  -->
  <defs>
    <style>
      .st0 {
        fill: #4d4d4c;
      }

      .st1 {
        fill: #fff;
      }

      .st2 {
        fill: #7f7f7f;
      }
    </style>
  </defs>
  <path class="st0" d="M2.04,40.17v6.46c0,.5.28.65.51.65,2.17.12,3.43-1.34,3.43-3.82s-1.36-3.96-3.34-3.96c-.51.02-.61.06-.61.69M.03,47.82v-.26c.76,0,.94-.43.94-.81v-6.69c0-.39-.15-.81-.94-.81v-.26h2.74c2.73,0,4.38,1.44,4.38,4.44,0,2.7-1.44,4.38-4.3,4.38H.03ZM10.84,43.72c-.04-.77-.32-1.54-1.03-1.54-.75,0-1.08.69-1.18,1.54h2.21,0ZM7.86,44.96c0-1.9.85-3.26,2.17-3.26,1.15,0,1.86,1.04,1.87,2.42h-3.3c.02,1.26.51,2.92,1.73,2.92.71,0,1.29-.69,1.62-1.42l.18.08c-.33,1.21-1.16,2.23-2.23,2.23-1.24.02-2.05-1.38-2.05-2.98M16.11,46.82l-.22.32c-.23.32-.67.85-1.36.85-.85,0-1.24-.75-1.24-1.9v-3.06c0-.81-.08-.97-.67-.97v-.22h1.58v4.17c0,.67.22,1.18.81,1.18.29,0,.61-.19.83-.43.29-.29.24-.47.24-.93v-2.8c0-.83-.06-.98-.79-1.01v-.18h1.68v4.38c0,.69.04.94.65.93v.18c-.41.15-.98.4-1.5.61v-1.12h0ZM18.72,46.1v-3.83h-.32c-.12,0-.37.08-.28-.2.59-.51,1.01-1.26,1.5-1.99v1.76h1.07v.43h-1.06v3.59c0,.98.1,1.62.77,1.3.16-.08.29-.24.39-.4l.14.14c-.4.63-.87,1.05-1.38,1.05-.69,0-.85-.55-.83-1.86M22.4,47.76c-.61-.22-.63-.02-.65.1h-.16v-2.08h.18c.12.97.5,1.87,1.38,1.87.46,0,.85-.36.85-.97,0-1.4-2.43-1.46-2.43-3.34,0-1.04.71-1.64,1.5-1.64.24,0,.43.08.79.24.36.14.37-.06.39-.11h.14v1.81h-.18c-.19-.93-.46-1.62-1.16-1.62-.42,0-.81.32-.81.87,0,1.34,2.51,1.6,2.51,3.27,0,1.15-.73,1.77-1.59,1.77-.28,0-.46-.1-.75-.19M25.6,44.96c0-1.73.81-3.26,2.39-3.26.61,0,1.54.39,1.59,1.3,0,.32-.24.59-.47.59s-.47-.29-.47-.59c0-.53-.26-.93-.83-.93-.93,0-1.38,1.22-1.38,2.33,0,1.22.55,2.6,1.66,2.6.69,0,1.15-.61,1.5-1.3l.16.1c-.43,1.15-1.02,2.11-2.13,2.11-1.16.04-2.01-1.3-2.01-2.96M33.18,47.82v-.18c.51-.06.67-.29.67-.89v-2.78c0-.77-.04-1.55-.81-1.55-.59,0-.85.4-1.16.81v3.53c0,.59.16.83.67.89v.18h-2.25v-.18c.51-.06.67-.29.67-.89v-6.39c0-.85-.1-.81-.67-.79v-.25c.36-.12.64-.18.91-.32l.67-.28v4.05c.36-.59.89-1.07,1.54-1.07,1.08,0,1.34.77,1.34,2.25v2.78c0,.59.15.83.68.89v.18h-2.25M38.86,43.72c-.04-.77-.32-1.54-1.03-1.54-.75,0-1.08.69-1.16,1.54h2.19ZM35.9,44.96c0-1.9.85-3.26,2.17-3.26,1.15,0,1.85,1.04,1.87,2.42h-3.31c.02,1.26.51,2.92,1.73,2.92.71,0,1.28-.69,1.62-1.42l.18.08c-.33,1.21-1.16,2.25-2.23,2.25-1.24,0-2.03-1.4-2.03-2.99M43.51,47.82v-.26c.89,0,1.04-.43,1.04-.81v-6.69c0-.39-.15-.81-1.04-.81v-.26h3.17v.26c-.89,0-1.04.43-1.04.81v6.69c0,.4.15.81,1.04.81v.26h-3.17ZM49.98,47.82v-.18c.51-.06.67-.29.67-.89v-2.86c.02-.77-.06-1.46-.81-1.46-.51,0-.89.43-1.16.77v3.55c0,.59.15.83.67.89v.18h-2.25v-.18c.51-.06.67-.29.67-.89v-3.26c0-1.01-.1-1.01-.67-.97v-.18l1.58-.63v1.07c.37-.51.87-1.07,1.63-1.07.83,0,1.24.73,1.24,2.15v2.9c0,.59.15.83.68.89v.18h-2.25M53.65,44.61c0,1.76.61,2.7,1.48,2.7.61,0,.94-.59.94-1.04v-2.45c0-.97-.33-1.72-1.11-1.72-.89.02-1.32,1.26-1.32,2.51M56.08,48v-.97c-.28.55-.83.93-1.36.93-1.32,0-1.99-1.44-1.99-2.94s.87-3.31,2.25-3.31c.55,0,.94.33,1.08.53v-1.9c0-.9-.06-.79-.69-.79v-.25c.37-.12.65-.18.93-.32l.67-.28v7.89c0,.47.37.42.71.4v.22c-.5.22-1.03.46-1.6.79M61.52,46.82l-.22.32c-.24.32-.67.85-1.36.85-.85,0-1.25-.75-1.25-1.9v-3.06c0-.81-.08-.97-.67-.97v-.22h1.58v4.17c0,.67.22,1.18.81,1.18.29,0,.61-.19.83-.43.29-.29.24-.47.24-.93v-2.8c0-.83-.06-.98-.76-1.01v-.18h1.68v4.38c0,.69.04.94.65.93v.18c-.42.15-.98.4-1.5.61v-1.12M64.74,47.76c-.61-.22-.64-.02-.65.1h-.15v-2.08h.18c.12.97.5,1.87,1.38,1.87.46,0,.85-.36.85-.97,0-1.4-2.42-1.46-2.42-3.34,0-1.04.71-1.64,1.5-1.64.24,0,.43.08.79.24.36.14.37-.06.4-.11h.14v1.81h-.18c-.19-.93-.46-1.62-1.16-1.62-.42,0-.81.32-.81.87,0,1.34,2.51,1.6,2.51,3.27,0,1.15-.73,1.77-1.6,1.77-.28,0-.46-.1-.75-.19M68.43,46.1v-3.83h-.32c-.11,0-.37.08-.28-.2.59-.51,1.01-1.26,1.5-1.99v1.76h1.07v.43h-1.07v3.59c0,.98.1,1.62.77,1.3.15-.08.29-.24.39-.4l.14.14c-.39.63-.87,1.05-1.38,1.05-.69,0-.87-.55-.83-1.86M70.79,47.64c.64-.06.79-.29.79-.89v-2.9c0-1.28-.15-1.44-.79-1.22v-.22l1.69-.71v1.2c.22-.46.69-1.2,1.22-1.2.42,0,.67.32.6.89-.04.28-.22.42-.43.42-.37,0-.46-.47-.71-.47-.22,0-.65.65-.65,1.05v3.17c0,.59.15.83.81.89v.18h-2.52v-.19ZM75.32,39.41c0-.37.24-.67.55-.67.29,0,.55.29.55.67s-.24.67-.55.67-.55-.32-.55-.67M74.67,47.82v-.18c.65-.06.81-.29.81-.89v-3.24c0-1.04-.14-1.12-.81-.93v-.18l1.72-.71v5.03c0,.59.15.83.81.89v.18h-2.52M80.72,43.72c-.04-.77-.32-1.54-1.03-1.54-.75,0-1.08.69-1.16,1.54h2.19ZM77.76,44.96c0-1.9.85-3.26,2.17-3.26,1.15,0,1.86,1.04,1.87,2.42h-3.31c.02,1.26.53,2.92,1.73,2.92.71,0,1.29-.69,1.62-1.42l.18.08c-.33,1.21-1.16,2.23-2.23,2.23-1.22.02-2.04-1.38-2.04-2.98M84.09,43.7v3c-.04.46.1.47.39.65.18.1.46.18.65.18,1.07,0,1.38-1.26,1.38-2.37s-.29-2.62-1.36-2.62c-.81,0-1.07.57-1.07,1.16M83.3,47.35c-.1-.12-.15-.28-.14-.43v-6.57c0-.93-.12-.79-.69-.79v-.26c.37-.12.67-.18.93-.32l.67-.28v4.05c.29-.69.89-1.07,1.52-1.07,1.22,0,1.86,1.52,1.86,2.88,0,1.73-1.01,3.35-2.47,3.35-.61.04-1.22-.15-1.68-.57M89.19,46.06c0,.59.24,1.08.75,1.08.22,0,.83-.29.94-.59v-2.29c-.67.38-1.69.61-1.69,1.8M90.92,46.93c-.5.55-1.08,1.01-1.56,1.01-.64,0-1.12-.63-1.12-1.4,0-1.6,1.72-2.15,2.62-2.6,0-1.4-.1-1.91-.76-1.91-.22,0-.59.11-.69.38-.06.15-.02.43-.02.77,0,.32-.22.59-.47.59-.5,0-.59-.53-.36-1.05.36-.79,1.03-1.01,1.69-1.01,1.16,0,1.52.63,1.52,2.27v2.83c0,.25.08.42.22.42s.32-.1.57-.29v.36c-.15.24-.57.71-.87.71-.55-.02-.75-.53-.77-1.04M95.7,47.82v-.18c.51-.06.67-.29.67-.89v-2.87c.02-.77-.06-1.46-.81-1.46-.51,0-.89.43-1.16.77v3.55c0,.59.15.83.67.89v.18h-2.25v-.18c.51-.06.67-.29.67-.89v-3.26c0-1.01-.1-1.01-.67-.97v-.18l1.58-.63v1.07c.37-.51.87-1.07,1.64-1.07.83,0,1.25.73,1.25,2.15v2.9c0,.59.15.83.67.89v.18h-2.25M101.18,47.82v-.18c.51,0,.42-.33.32-.49l-1.6-2.62v2.23c0,.59.15.83.81.89v.18h-2.51v-.18c.64-.06.81-.29.81-.89v-6.67c0-.61-.1-.55-.69-.51v-.25c.4-.12.67-.18.93-.32l.67-.28v5.58l1.34-1.48c.14-.14.28-.29.36-.5.04-.24-.1-.32-.53-.32v-.18h2.17v.18c-1.11,0-1.64.97-2.6,2.03l1.54,2.45c.33.53.77,1.08,1.34,1.12v.18h-2.35M.03,32.61v-.9c3.04,0,3.59-1.52,3.59-2.9V4.95C3.62,3.57,3.07,2.05.03,2.05v-.91h10.91v.91c-3.04,0-3.59,1.52-3.59,2.9v23.85c0,1.38.55,2.9,3.59,2.9v.9H.03ZM28.9,32.61v-.9c2.7,0,2.92-.85,2.34-2.13-1.03-2.29-3.43-5.61-4.88-7.45l-3.55-4.56-.94,1.01v10.26c0,1.38.55,2.9,3.3,2.9v.9h-10.32v-.9c2.74,0,3.3-1.52,3.3-2.9V4.95c0-1.38-.55-2.9-3.3-2.9v-.91h10.39v.91c-2.82,0-3.38,1.52-3.38,2.9v11.17c1.5-1.9,9.34-10.22,9.34-12.45,0-1.76-1.54-1.52-2.48-1.62v-.91h9.57v.91c-2.66.04-4.1,1.8-5.9,4.14l-6.61,8.5,5.78,7.93,2.45,3.52c1.91,2.76,3.43,5.57,6.04,5.57v.9h-11.15,0ZM48.86,4.43v10.78h2.99c3.69,0,5.86-2.05,5.86-5.9,0-3.61-1.76-5.57-4.32-6.18-1.08-.1-1.94-.15-2.6-.15-1.4,0-1.94.32-1.94,1.46M48.86,28.33c0,1.66.33,2.52,2.99,2.52,3.81,0,6.63-1.48,6.63-7.02s-4.36-6.71-7.8-6.71h-1.83v11.21ZM41.62,32.61v-.9c2.96,0,3.51-1.52,3.51-2.9V4.95c0-1.38-.55-2.9-3.51-2.9v-.91h9.81c5.64,0,10.03,1.95,10.03,8.03,0,3.99-2.05,6.04-4.88,6.84v.1c3.13.75,6.11,3.27,6.11,7.83,0,5.7-3.81,8.64-9.55,8.64h-11.52"/>
  <path class="st2" d="M80.7,0l-13.42,33.19h35.92L116.63,0h-35.93Z"/>
  <path class="st1" d="M84.66,28.93h-8.89l8.94-21.69h11.02l-3.47,8.54h-2.26l-5.34,13.15ZM99.01,5.7h8.89l-8.94,21.69h-11.03l3.48-8.55h2.26l5.34-13.14Z"/>
</svg>