<?xml version="1.0" encoding="UTF-8"?>
<svg id="Layer_1" xmlns="http://www.w3.org/2000/svg" version="1.1" xmlns:sketch="http://www.bohemiancoding.com/sketch/ns" viewBox="0 0 486 55">
  <!-- Generator: Adobe Illustrator 29.8.3, SVG Export Plug-In . SVG Version: 2.1.1 Build 3)  -->
  <defs>
    <style>
      .st0 {
        fill: #4d4d4c;
      }
    </style>
  </defs>
  <g id="Home" sketch:type="MSPage">
    <g id="Home-Copy" sketch:type="MSArtboardGroup">
      <g id="_x31_400-expanded" sketch:type="MSLayerGroup">
        <g id="top-bar" sketch:type="MSShapeGroup">
          <g id="logo">
            <path id="Fill-1" class="st0" d="M36.6,16.8c-.6-.5-1.4-1.1-2.2-1.3l-1.3,25.4,6.4-17.6c.6-2.7-.9-4.9-2.9-6.5"/>
            <path id="Fill-2" class="st0" d="M26.1,15.2l3.7,25.3,3.6-25.3c-2.1-.8-4.9-.9-7.3,0"/>
            <path id="Fill-3" class="st0" d="M23,16.8c-2,1.7-3.5,3.9-2.9,6.5l6.4,17.6-1.3-25.4c-.8.2-1.6.7-2.2,1.3"/>
            <path id="Fill-4" class="st0" d="M10.2,19.2c4.2,7.4,8.6,15.3,12.8,22.4-1.5-6.2-3-16.5-5.2-19.4-2.5-3.5-7.6-3-7.6-3"/>
            <path id="Fill-5" class="st0" d="M2.7,22.9l17.4,20-10.8-23.6c-2.8.1-5.2,1.5-6.6,3.6"/>
            <path id="Fill-6" class="st0" d="M39,28.3l-2.9,13.7c3.7-6.4,7.4-12.7,11-19.1-3.4.2-6.9,1.5-8.1,5.4"/>
            <path id="Fill-7" class="st0" d="M48.1,22.9l-9.2,20.3,16.1-17.5c-1.8-1.9-4.2-2.8-6.9-2.8"/>
            <path id="Fill-8" class="st0" d="M.4,31.9c5.7,4.3,11.3,8.8,17,13.1L2.1,23.5c-1.4,2.5-1.8,5.3-1.7,8.4"/>
            <path id="Fill-9" class="st0" d="M57,28.2c-.3-.7-.7-1.3-1.3-1.8l-13.9,18.9c5.5-4.1,10.8-8.3,16.1-12.4.1-1.7-.1-3.3-.9-4.7"/>
            <path id="Fill-10" class="st0" d="M.4,40.7l14.8,6.8c-4.9-4.9-9.9-9.6-14.8-14.4v7.6"/>
            <path id="Fill-11" class="st0" d="M58,41.2v-6.9l-14,13.5c4.8-2.3,9.2-4.4,14-6.6"/>
            <path id="Fill-12" class="st0" d="M.4,47.4c4.5,1,9.3,2.2,13.3,3.1L.4,41.7v5.7"/>
            <path id="Fill-13" class="st0" d="M58,47.8v-5.3c-4.2,2.6-8.5,5.4-12.4,8.1l12.4-2.8"/>
            <path id="Fill-14" class="st0" d="M.4,54h13L.4,48.5v5.5"/>
            <path id="Fill-15" class="st0" d="M58,54v-5c-4.3,1.8-8,3.3-12,5h12"/>
            <path id="Fill-16" class="st0" d="M53.5,16.1c.1-7.8-11.3-7.8-11.1-.1-.1,7.2,11.4,7.6,11.1.1"/>
            <path id="Fill-17" class="st0" d="M53.5,16.1h0"/>
            <path id="Fill-18" class="st0" d="M16.3,12.1c.4-7.8-11.8-7.5-11.3,0-.4,7.8,12,7.9,11.3,0"/>
            <path id="Fill-19" class="st0" d="M29.8,13.6c4.5.1,6.3-3.2,6.4-6.3.2-4.8-2.8-6.8-6.4-6.8s-6.5,2.1-6.3,6.8c.1,2.7,1.2,6.2,6.3,6.3"/>
            <path id="Fill-20" class="st0" d="M125.6,23.3h5.3v30.4h-5.3v-30.4Z"/>
            <path id="Fill-21" class="st0" d="M106.9,23.3l-9,25.8-8.8-11,11.7-14.8h-6.1l-10.8,14.4v-14.4h-5.3v30.4h5.3v-15l11.2,15h6.4l2.8-8.8h11.2l2.9,8.8h5.5l-10.6-30.4h-6.4ZM105.6,40.7l4.1-12.6h.1l4.2,12.6h-8.4Z"/>
            <path id="Fill-22" class="st0" d="M302.7,45.3l-5.3-22h-9.3v30.4h5.2v-25.9l6.7,25.9h5.3c.1,0,6.7-25.9,6.7-25.9v25.9h5.2v-30.4h-9.1l-5.4,22"/>
            <path id="Fill-23" class="st0" d="M330.5,23.3l-10.6,30.5h5.2l2.8-8.8h11.3l3,8.8h5.5l-10.6-30.5h-6.6ZM329.3,40.7l4.1-12.6h.1l4.3,12.6h-8.5Z"/>
            <path id="Fill-24" class="st0" d="M369.2,46.8l-12.2-23.5h-7v30.4h5v-22.9l12,22.9h7.2v-30.4h-5.1v23.5"/>
            <path id="Fill-25" class="st0" d="M469.5,49.3h-12.6v-8.6h9.3v-4.4h-9.3v-8.6h11.5v-4.4h-16.8v30.5h17.8l.1-4.5"/>
            <path id="Fill-26" class="st0" d="M421.2,23.2h-1v23.8l-12.2-23.7h-7v26h-16.1v-8.6h9.3v-4.4h-9.3v-8.6h11.5v-4.4h-16.7v30.5h26.3v-23.3l12,23.2h7.2v-25.8h9.3v25.9h5.3v-25.9h9.1v-4.6h-27.7"/>
            <path id="Fill-27" class="st0" d="M280.5,38.4c1.7-1.4,2.9-3.7,2.9-6.5s-1.2-5-2.9-6.4c-1.9-1.6-4.5-2.2-8.9-2.2h-8.9v12.9h0v13.2h-16.2v-8.6h9.3v-4.4h-9.3v-8.6h11.5v-4.4h-16.8v30.5h26.8v-13.1h2.6c2.4,3.8,7.6,13,7.6,13h6.3l-8.2-13.4c1.8-.4,3.1-1.1,4.2-2h0ZM268.1,36.3v-8.6h4.5c4,0,5.6,1.6,5.6,4.2,0,2.9-1.6,4.3-5.6,4.3h-4.5v.1Z"/>
            <path id="Fill-28" class="st0" d="M196.9,38.4c1.7-1.4,2.9-3.7,2.9-6.5s-1.2-5-2.9-6.4c-1.8-1.6-4.5-2.2-8.9-2.2h-8.9v12.9h0v13.2h-16.2v-8.6h9.3v-4.4h-9.3v-8.6h11.5v-4.4h-16.8v30.5h26.8v-13.1h2.6c2.4,3.8,7.6,13,7.6,13h6.3l-8.2-13.4c1.9-.4,3.2-1.1,4.2-2h0ZM184.5,36.3v-8.6h4.5c4,0,5.6,1.6,5.6,4.2,0,2.9-1.6,4.3-5.6,4.3h-4.5v.1Z"/>
            <path id="Fill-29" class="st0" d="M235.2,25.6c-1.9-1.6-4.5-2.3-8.9-2.3h-8.9v30.5h5.3v-12.6h3.6c4.4,0,7-.8,8.8-2.4,1.7-1.4,2.9-3.8,2.9-6.6s-1.2-5.2-2.8-6.6h0ZM227.2,36.7h-4.5v-9h4.5c4,0,5.6,1.8,5.6,4.4,0,2.8-1.8,4.6-5.6,4.6h0Z"/>
            <path id="Fill-30" class="st0" d="M146.4,36c-4.2-1.5-6.1-2.7-6.1-5.1,0-1.8,1.9-3.9,5.5-3.9,2.7,0,5.3.9,6.6,1.6v-4.4c-1.4-.7-3.9-1.4-6.5-1.4-6.6,0-11.1,3.7-11.1,8.6,0,4.4,3.4,7.1,8.5,8.8,4,1.4,5.7,2.8,5.7,5.2,0,2.6-2.2,4.4-5.9,4.4-2.9,0-6.5-1-8.4-2.2v4.7c1.8,1,5,1.8,8,1.8,7.9,0,11.7-4.2,11.7-9.1.1-4.5-2.7-7.1-8-9"/>
            <path id="Fill-31" class="st0" d="M474.3,48.3c0-2.9,2.2-5.1,5.1-5.1s5,2.2,5,5.1-2.2,5.1-5,5.1c-2.8.1-5.1-2.1-5.1-5.1h0ZM479.4,54.5c3.4,0,6.3-2.6,6.3-6.2s-2.9-6.2-6.3-6.2-6.3,2.6-6.3,6.2c0,3.6,2.9,6.2,6.3,6.2h0ZM478.1,48.8h1.2l1.9,3.1h1.2l-2-3.1c1.1-.1,1.9-.7,1.9-2,0-1.4-.8-2-2.5-2h-2.7v7.1h1.1v-3.1h-.1ZM478.1,47.9v-2.2h1.5c.8,0,1.6.2,1.6,1,0,1.1-.8,1.2-1.7,1.2h-1.4Z"/>
          </g>
        </g>
      </g>
    </g>
  </g>
</svg>