<?xml version="1.0" encoding="UTF-8"?>
<svg id="Layer_1" xmlns="http://www.w3.org/2000/svg" version="1.1" viewBox="0 0 743 89">
  <!-- Generator: Adobe Illustrator 29.8.3, SVG Export Plug-In . SVG Version: 2.1.1 Build 3)  -->
  <defs>
    <style>
      .st0 {
        fill: #4d4d4c;
      }
    </style>
  </defs>
  <path class="st0" d="M315.3,52.1c-8.1-1.6-11.4-2.5-11.4-4.8,0-2.1,1.8-4.3,7-4.3,4.2,0,7.7,1.8,9.5,4.9.4.7,1.3.9,2,.5l10.3-5.7c.4-.2.7-.6.8-1s0-.9-.2-1.2c-4.7-7-12-10.4-22.3-10.4h-.5c-7.1,0-13.4,2.3-17.6,6.4-3.2,3.1-5,7.2-5,11.3,0,12.1,10.2,15.6,20.2,17.4l.8.2c6.1,1.1,10.9,2,10.9,4.7,0,2.4-2.3,4.8-7.4,4.8s-8.8-2.1-10.9-6.2c-.2-.4-.5-.7-1-.8-.4-.1-.8-.1-1.2.1l-11.4,6.3c-.4.2-.6.5-.7.9s-.1.8.1,1.2c4.6,8.1,12.5,12.1,24.4,12.1h.5c9.2,0,14.8-3.6,17.8-6.6,3.5-3.4,5.5-8,5.5-12.3.1-11.6-9.7-15.2-20.2-17.5"/>
  <path class="st0" d="M367,52.1c-8.1-1.6-11.4-2.5-11.4-4.8,0-2.1,1.8-4.3,7-4.3,4.2,0,7.7,1.8,9.5,4.9.4.7,1.3.9,2,.5l10.3-5.7c.4-.2.7-.6.8-1s0-.9-.2-1.2c-4.7-7-12-10.4-22.3-10.4h-.5c-7.1,0-13.4,2.3-17.6,6.4-3.2,3.1-5,7.2-5,11.3,0,12.1,10.2,15.6,20.2,17.4l.8.2c6.1,1.1,10.9,2,10.9,4.7,0,2.4-2.3,4.8-7.4,4.8s-8.8-2.1-10.9-6.2c-.2-.4-.5-.7-1-.8-.4-.1-.8-.1-1.2.1l-11.4,6.3c-.4.2-.6.5-.7.9s-.1.8.1,1.2c4.6,8.1,12.5,12.1,24.4,12.1h.5c9.2,0,14.8-3.6,17.8-6.6,3.5-3.4,5.5-8,5.5-12.3.2-11.6-9.6-15.2-20.2-17.5"/>
  <path class="st0" d="M575,62.4v-16.4c0-.6.5-1.1,1.1-1.1h9.4c.8,0,1.4-.6,1.4-1.4v-10.6c0-.8-.6-1.4-1.4-1.4h-9.4c-.6,0-1.1-.5-1.1-1.2V13.4c0-1.1-1.2-1.8-2.1-1.3l-13.1,7.2c-.5.3-.7.7-.7,1.3v9.7c0,.6-.5,1.2-1.2,1.2h-5.8c-.8,0-1.4.6-1.4,1.4v10.6c0,.8.6,1.4,1.4,1.4h5.8c.6,0,1.2.5,1.2,1.2v20c0,11.8,9.6,21.2,21.4,21.3,2,0,3.9.2,5.7-.2.5-.1.9-.6.9-1.2v-13.1c0-.5-.5-.9-1-.7-.8.2-1.6.4-2.4.4-4,0-7.3-2.7-8.2-6.4-.2-.3-.5-1.8-.5-3.8"/>
  <path class="st0" d="M609.7,59.8v-27.1c0-.8-.6-1.4-1.4-1.4h-13.2c-.8,0-1.4.6-1.4,1.4v28.6c0,8,2.4,14.8,6.8,19.7,4.4,4.8,10.6,7.4,17.9,7.4,6,0,11.2-1.4,16.1-5.3l.3-.2v2.9c0,.8.6,1.4,1.4,1.4h13.2c.8,0,1.4-.6,1.4-1.4v-53.1c0-.8-.6-1.4-1.4-1.4h-13.2c-.8,0-1.4.6-1.4,1.4v26.8c0,9-4.7,14.3-12.6,14.3s-12.5-5.2-12.5-14"/>
  <path class="st0" d="M502.9,59.8v-27.1c0-.8-.6-1.4-1.4-1.4h-13.2c-.8,0-1.4.6-1.4,1.4v28.6c0,8,2.4,14.8,6.8,19.7,4.4,4.8,10.6,7.4,17.9,7.4,6,0,11.2-1.4,16.1-5.3l.3-.2v3.2c0,.6.5,1.2,1.2,1.2h13.8c.6,0,1.1-.5,1.1-1.2v-53.4c0-.8-.6-1.4-1.4-1.4h-13.3c-.8,0-1.4.6-1.4,1.4v26.8c0,9-4.7,14.3-12.6,14.3s-12.5-5.2-12.5-14"/>
  <path class="st0" d="M741.5.5h-13.5c-.8,0-1.4.6-1.4,1.4v84.2c0,.6.5,1.2,1.2,1.2h13.8c.6,0,1.2-.5,1.2-1.2V1.6c-.1-.6-.7-1.1-1.3-1.1"/>
  <path class="st0" d="M250.4,43.9c8.3,0,14.2,6.2,14.2,15.1s-6,15.6-14.2,15.6-14.4-6.6-14.4-15.6,5.9-15.1,14.4-15.1M220.1,59c0,17.9,12,29.8,29.8,29.4,5.3-.1,10.4-2.2,14.6-5.5v2.9c0,.8.6,1.4,1.4,1.4h13.2c.8,0,1.4-.6,1.4-1.4v-53.1c0-.8-.6-1.4-1.4-1.4h-13.2c-.8,0-1.4.6-1.4,1.4v2.9l-.3-.2c-4.5-3.5-9.6-5.2-15.3-5.2-17.2,0-28.8,11.6-28.8,28.8"/>
  <path class="st0" d="M687.6,43.9c8.3,0,14.2,6.2,14.2,15.1s-6,15.6-14.2,15.6-14.4-6.6-14.4-15.6c0-9,5.9-15.1,14.4-15.1M657.3,59c0,17.9,12,29.8,29.8,29.4,5.3-.1,10.4-2.2,14.6-5.5v3.2c0,.6.5,1.2,1.2,1.2h13.8c.6,0,1.1-.5,1.1-1.2v-53.6c0-.6-.5-1.1-1.1-1.1h-13.8c-.6,0-1.2.5-1.2,1.1v3.2l-.3-.2c-4.5-3.5-9.6-5.2-15.3-5.2-17.2-.1-28.8,11.5-28.8,28.7"/>
  <path class="st0" d="M200.5,1.2l-29.1,43L142.3,1.2c-.3-.5-.8-.7-1.4-.7h-10c-.9,0-1.7.7-1.7,1.7v83.4c0,.9.7,1.7,1.7,1.7h12.8c.9,0,1.7-.7,1.7-1.7v-51l24.7,36.5c.7,1,2.1,1,2.8,0l24.7-36.5v51c0,.9.7,1.7,1.7,1.7h12.8c.9,0,1.7-.7,1.7-1.7V2.2c0-.9-.7-1.7-1.7-1.7h-10c-.8,0-1.3.3-1.6.7"/>
  <path class="st0" d="M465,1.2l-29.1,43L406.8,1.2c-.3-.5-.8-.7-1.4-.7h-10c-.9,0-1.7.7-1.7,1.7v83.4c0,.9.7,1.7,1.7,1.7h12.8c.9,0,1.7-.7,1.7-1.7v-51l24.7,36.5c.7,1,2.1,1,2.8,0l24.7-36.5v51c0,.9.7,1.7,1.7,1.7h12.6c.9,0,1.7-.7,1.7-1.7V2.2c0-.9-.7-1.7-1.7-1.7h-10c-.6,0-1.1.3-1.4.7"/>
  <path class="st0" d="M108.5,75.4c0-7.2-5.9-13.1-13.1-13.1s-13.1,5.9-13.1,13.1,5.9,13.1,13.1,13.1c7.2.1,13.1-5.9,13.1-13.1"/>
  <path class="st0" d="M67.4,75.4c0-7.2-5.9-13.1-13.1-13.1s-13.1,5.9-13.1,13.1,5.9,13.1,13.1,13.1c7.2.1,13.1-5.9,13.1-13.1"/>
  <path class="st0" d="M26.4,75.4c0-7.2-5.9-13.1-13.1-13.1S.2,68.2.2,75.4s5.9,13.1,13.1,13.1c7.2.1,13.1-5.9,13.1-13.1"/>
  <path class="st0" d="M88,43.2c0-7.2-5.9-13.1-13.1-13.1s-13.1,5.9-13.1,13.1,5.9,13.1,13.1,13.1,13.1-5.8,13.1-13.1"/>
  <path class="st0" d="M47,43.2c0-7.2-5.9-13.1-13.1-13.1s-13.1,5.9-13.1,13.1,5.9,13.1,13.1,13.1,13.1-5.8,13.1-13.1"/>
</svg>